<svg width="159" height="200" viewBox="0 0 159 200" fill="none" xmlns="http://www.w3.org/2000/svg">
<path d="M81.6305 131.577C118.107 131.577 147.677 102.122 147.677 65.7883C147.677 29.4544 118.107 0 81.6305 0C45.154 0 15.584 29.4544 15.584 65.7883C15.584 102.122 45.154 131.577 81.6305 131.577Z" fill="#FFEFD2"/>
<path d="M62.9132 27.8015C60.3571 30.3476 59.4913 34.1257 59.2852 37.6985C59.079 41.2713 59.3676 44.9262 58.5431 48.4579C55.5747 60.8189 39.9082 67.061 37.3109 79.5041C36.4039 83.8161 37.2697 88.3744 36.1565 92.6453C33.6829 101.926 22.6339 107.265 20.8611 116.71C19.7068 122.87 23.005 129.153 27.7873 133.219C32.5285 137.284 38.5477 139.584 44.4433 141.679C50.3388 143.773 56.3992 145.867 61.3878 149.645C66.2526 153.382 69.8394 158.516 74.6218 162.376C83.1559 169.275 94.9882 171.287 105.79 169.234C116.591 167.181 126.362 161.39 134.608 154.163C141.204 148.372 147.347 140.036 145.162 131.535C143.678 125.786 138.524 121.022 138.731 115.068C138.895 109.893 143.183 105.212 142.235 100.119C141.122 94.1237 133.824 91.8651 129.413 87.6352C123.971 82.4198 122.982 74.0833 123.641 66.6092C124.301 59.1352 126.28 51.6611 125.497 44.187C124.26 32.7706 116.014 22.3808 105.13 18.6027C97.5855 15.9744 89.0927 16.6315 81.9191 19.9578C78.827 21.3952 75.7349 23.6538 73.5911 26.1999C69.9631 25.2965 65.8816 24.8447 62.9132 27.8015Z" fill="#4F2548"/>
<path d="M112.634 59.0531C110.943 58.4782 109.377 57.3283 108.14 55.8089C106.903 54.2894 105.913 52.4414 105.171 50.4292C104.429 48.4169 103.935 46.2404 103.275 44.0228C102.657 41.8052 101.873 39.5055 100.636 37.4111C99.3995 35.3167 97.668 33.5098 95.7303 32.1136C93.7926 30.7173 91.5663 29.7317 89.3812 29.2389C87.155 28.7461 84.9287 28.7051 82.9085 29.0336C80.8471 29.3621 78.9919 30.0192 77.4253 30.8816C79.1156 30.2656 80.9708 29.8549 82.9498 29.7728C84.9287 29.6906 87.0313 29.896 89.0514 30.4709C93.1329 31.6208 96.9259 34.4954 99.1934 38.3146C101.502 42.1338 102.203 46.8564 104.017 50.963C104.924 53.0164 106.12 54.9054 107.604 56.3427C109.088 57.78 110.861 58.7656 112.634 59.0531Z" fill="#63365C"/>
<path d="M113.211 53.7552C113.293 50.7163 113.252 47.1435 112.675 43.3654C112.098 39.6284 110.861 35.6039 108.593 32.1543C107.48 30.4295 106.12 28.8279 104.512 27.5548C102.945 26.2407 101.131 25.2551 99.2758 24.6391C97.4206 24.0231 95.5241 23.7767 93.7513 23.8999C91.9786 23.9821 90.3295 24.4749 88.9689 25.173C90.4119 24.7213 92.061 24.4338 93.7513 24.5159C95.4417 24.5981 97.2145 24.9677 98.9048 25.6658C102.327 27.021 105.295 29.6903 107.356 32.9756C109.459 36.2199 110.778 39.998 111.562 43.6118C112.427 47.1846 112.798 50.7163 113.211 53.7552Z" fill="#63365C"/>
<path d="M117.705 45.6661C118.117 44.0234 118.241 42.0522 117.993 39.9989C117.746 37.9045 117.127 35.728 116.179 33.7157C115.19 31.7035 113.87 29.8555 112.386 28.3771C110.902 26.8987 109.253 25.7899 107.727 25.0918C108.964 26.2417 110.284 27.5968 111.479 29.1574C112.716 30.7179 113.829 32.5248 114.736 34.3728C115.643 36.2619 116.344 38.233 116.839 40.1632C117.334 42.1343 117.581 43.9823 117.705 45.6661Z" fill="#63365C"/>
<path d="M116.921 111.371C115.519 109.564 114.489 107.182 113.953 104.554C113.417 101.926 113.252 99.0102 113.211 96.0944C113.17 93.1377 113.087 90.0988 112.51 87.2652C112.221 85.8689 111.809 84.5137 111.273 83.2817C110.737 82.0497 110.036 80.982 109.294 80.1196C110.16 82.2551 110.696 84.7601 110.861 87.4705C111.067 90.1809 110.943 93.0966 110.984 96.0944C111.026 99.0923 111.356 102.172 112.345 104.965C112.84 106.32 113.458 107.634 114.241 108.702C115.025 109.811 115.973 110.714 116.921 111.371Z" fill="#63365C"/>
<path d="M122.487 97.5732C121.745 95.8894 120.92 93.9593 120.178 91.8649C119.436 89.7705 118.818 87.553 118.323 85.2532C117.828 82.9946 117.54 80.6538 117.333 78.4773C117.169 76.2597 117.127 74.2064 117.127 72.3584C116.55 74.1243 116.138 76.2186 116.014 78.5184C115.891 80.8181 116.097 83.241 116.591 85.6639C117.086 88.0458 117.911 90.3865 118.941 92.3988C120.013 94.4521 121.25 96.218 122.487 97.5732Z" fill="#63365C"/>
<path d="M52.4002 102.666C51.8642 100.654 51.9879 98.3543 52.6888 96.0957C53.3896 93.796 54.6265 91.5373 56.0694 89.4019C56.8115 88.3341 57.5948 87.2254 58.2545 86.0755C58.9553 84.9256 59.5325 83.6936 59.8623 82.3795C60.1922 81.0654 60.2746 79.7513 60.0273 78.5603C59.8211 77.3694 59.2439 76.3017 58.5018 75.5625C58.9553 76.507 59.2027 77.5337 59.1615 78.6425C59.1203 79.7513 58.8729 80.8601 58.4194 81.9278C57.5536 84.1043 55.9045 86.1166 54.3791 88.3341C52.8537 90.5928 51.6168 93.18 51.2046 95.7672C50.9984 97.0813 50.9572 98.3543 51.1633 99.5453C51.4107 100.736 51.8642 101.804 52.4002 102.666Z" fill="#63365C"/>
<path d="M43.9485 99.5036C43.495 96.9575 43.2889 94.0418 43.7012 91.0439C44.1135 88.0461 45.0617 84.9661 46.6283 82.2557C48.1537 79.5453 50.5449 77.1635 52.2765 74.371C53.1423 72.9747 53.8431 71.4963 54.2142 70.0179C54.5852 68.5395 54.5852 67.0611 54.2142 65.7881C54.0905 68.4163 52.6888 70.9624 50.7511 73.2622C49.7616 74.4531 48.6485 75.5619 47.5353 76.8349C46.4222 78.0669 45.309 79.4632 44.4433 81.0237C42.6705 84.1037 41.8047 87.6354 41.8047 90.9207C41.8459 94.206 42.7529 97.2449 43.9485 99.5036Z" fill="#63365C"/>
<path d="M59.986 55.9314C60.893 55.644 61.8825 55.1101 62.7483 54.412C63.6141 53.6728 64.4386 52.7693 65.0982 51.7427C66.4588 49.6483 67.2833 47.1432 67.9429 44.7203C68.5614 42.2563 69.0973 39.8745 69.9631 37.739C70.7876 35.6036 71.942 33.7556 73.3437 32.4004C72.478 32.8111 71.571 33.4681 70.7876 34.2894C70.0043 35.1108 69.3035 36.0964 68.685 37.1641C67.4894 39.3406 66.7886 41.8457 66.1289 44.2686C65.5105 46.6915 64.8921 49.0323 63.9027 51.0856C62.9132 53.0978 61.5939 54.8226 59.986 55.9314Z" fill="#63365C"/>
<path d="M134.773 121.762C133.948 119.873 133.33 117.655 133.165 115.274C133.124 114.083 133.165 112.851 133.371 111.66C133.495 111.044 133.618 110.469 133.783 109.853C133.948 109.237 134.154 108.621 134.36 107.964C134.773 106.691 135.144 105.294 135.103 103.775C135.061 102.297 134.525 100.859 133.783 99.7505C133.041 98.6006 132.134 97.7382 131.227 96.958C130.32 96.2188 129.372 95.6028 128.506 95.0278C129.825 96.5884 131.475 98.3542 132.505 100.449C133 101.475 133.289 102.625 133.247 103.775C133.206 104.925 132.876 106.116 132.464 107.389C132.258 108.005 132.052 108.662 131.887 109.319C131.722 109.976 131.598 110.715 131.516 111.372C131.351 112.769 131.433 114.124 131.681 115.438C132.217 118.025 133.412 120.243 134.773 121.762Z" fill="#63365C"/>
<path d="M68.9324 112.522C68.3552 110.633 67.8193 108.456 67.407 106.157C66.9947 103.857 66.7473 101.352 66.7061 98.888C66.6649 96.424 66.871 93.919 67.2008 91.6192C67.5307 89.2785 68.0254 87.1019 68.5613 85.2129C67.4894 86.8555 66.5 88.9499 65.8403 91.3318C65.1807 93.7136 64.8096 96.3008 64.8509 98.9291C64.8921 101.557 65.3456 104.144 66.0877 106.485C66.7886 108.826 67.8193 110.92 68.9324 112.522Z" fill="#63365C"/>
<path d="M97.2145 110.797C98.2452 109.277 99.1934 107.388 99.9767 105.253C100.76 103.117 101.296 100.777 101.585 98.3536C101.873 95.9717 101.873 93.5488 101.626 91.2902C101.378 89.0315 100.884 86.9782 100.224 85.2534C100.265 87.0603 100.348 89.1547 100.307 91.3312C100.265 93.5078 100.142 95.8485 99.853 98.1483C99.5644 100.448 99.1934 102.748 98.6987 104.883C98.2452 107.019 97.7092 109.031 97.2145 110.797Z" fill="#63365C"/>
<path d="M120.137 71.6604C119.972 70.1409 119.807 68.3751 119.766 66.5271C119.725 64.6791 119.766 62.7079 119.931 60.7778C120.096 58.8477 120.426 56.9175 120.838 55.1106C121.25 53.3037 121.704 51.62 122.157 50.1416C121.291 51.4147 120.426 53.0162 119.807 54.8232C119.148 56.6301 118.694 58.6423 118.488 60.6546C118.282 62.7079 118.364 64.7612 118.694 66.6503C118.983 68.5393 119.519 70.2641 120.137 71.6604Z" fill="#63365C"/>
<path d="M118.612 103.488L97.7504 98.1493C94.9057 102.01 90.2882 104.556 85.4646 104.761C80.105 104.966 74.7455 102.215 71.6946 97.8208L39.9495 103.488L37.0635 176.299H122.198L118.612 103.488Z" fill="#F0869C"/>
<path d="M61.7588 99.6274L89.1339 124.308L92.6382 120.489L102.574 127.84L104.759 128.169C108.057 128.702 111.026 130.509 112.922 133.261L116.055 137.737C113.994 122.419 118.9 110.223 118.9 110.223L122.157 176.298H37.1048L39.9907 103.488L61.7588 99.6274Z" fill="#EA5380"/>
<path d="M69.6745 103.611C71.1175 105.541 73.3437 107.43 76.106 108.785C78.8682 110.14 82.1252 110.962 85.4646 110.921C88.7628 110.88 92.0198 109.976 94.7408 108.539C97.4618 107.102 99.6057 105.13 101.007 103.159C99.0285 104.597 96.6785 105.952 94.04 106.937C91.3602 107.923 88.433 108.539 85.4646 108.58C82.4962 108.621 79.5279 108.087 76.8481 107.143C74.0858 106.28 71.6946 104.966 69.6745 103.611Z" fill="#EA5380"/>
<path d="M97.8329 110.223C96.5548 110.798 95.0706 111.373 93.4628 111.865C91.8549 112.358 90.1233 112.728 88.3918 112.974C86.6602 113.221 84.8874 113.303 83.1971 113.221C81.5068 113.179 79.9401 113.015 78.5796 112.81C79.8165 113.426 81.3831 113.96 83.1147 114.206C84.8462 114.494 86.7427 114.535 88.5567 114.288C90.4119 114.042 92.2259 113.508 93.7926 112.769C95.4005 112.071 96.761 111.126 97.8329 110.223Z" fill="#EA5380"/>
<path d="M85.5059 104.761C90.3295 104.556 94.9469 102.01 97.7916 98.1496L95.6891 97.6157L94.6171 81.8052H75.1577L73.2613 97.5747L71.7359 97.8621C74.7867 102.215 80.1051 104.967 85.5059 104.761Z" fill="#D46C67"/>
<path d="M74.8279 84.146C79.2805 95.7267 91.3602 94.659 94.6996 83.9817L94.5347 81.7642H75.0753L74.8279 84.146Z" fill="#4F2548"/>
<path d="M103.605 66.9795C104.594 65.3368 106.243 63.9816 108.14 63.7763C110.036 63.5299 112.139 64.5976 112.757 66.4456C113.376 68.2936 112.386 70.3059 111.273 71.9075C110.49 73.0573 109.583 74.1661 108.428 74.9464C107.274 75.7266 105.79 76.1373 104.471 75.7677C100.595 74.6589 102.162 69.4024 103.605 66.9795Z" fill="#BF4F5B"/>
<path d="M111.067 66.7327C110.201 66.0756 108.964 65.9524 107.975 66.322C106.944 66.6916 106.12 67.4718 105.46 68.3342C104.842 69.2377 104.388 70.2233 103.935 71.2089C103.77 71.5374 103.646 71.866 103.605 72.2355C103.564 72.6051 103.646 72.9747 103.893 73.2211C104.306 73.6729 105.089 73.5497 105.625 73.3033C106.573 72.8515 107.274 71.9892 107.604 71.0036C107.934 70.018 107.81 68.9092 107.315 68.0057C108.14 66.9791 109.748 66.4452 111.067 66.7327Z" fill="#A13E4C"/>
<path d="M67.4894 65.9941C66.5 64.3515 64.8509 62.9963 62.9544 62.791C61.0579 62.5446 58.9553 63.6123 58.3369 65.4603C57.7185 67.3083 58.708 69.3205 59.8211 70.9221C60.6044 72.072 61.5114 73.1808 62.6658 73.961C63.8202 74.7413 65.3044 75.1519 66.6237 74.7823C70.499 73.7146 68.9324 68.4171 67.4894 65.9941Z" fill="#BF4F5B"/>
<path d="M60.0273 65.7473C60.893 65.0902 62.1299 64.967 63.1193 65.3366C64.15 65.7062 64.9746 66.4865 65.6342 67.3489C66.2526 68.2524 66.7061 69.2379 67.1596 70.2235C67.3245 70.5521 67.4482 70.8806 67.4894 71.2502C67.5307 71.6198 67.4482 71.9894 67.2009 72.2358C66.7886 72.6875 66.0053 72.5643 65.4693 72.3179C64.5211 71.8662 63.8202 71.0038 63.4904 70.0182C63.1606 69.0326 63.2842 67.9238 63.779 67.0204C62.9544 65.9937 61.3465 65.4598 60.0273 65.7473Z" fill="#A13E4C"/>
<path d="M78.4147 36.7963C75.5288 37.2891 73.4674 39.8763 72.3543 42.5866C71.2411 45.256 70.7876 48.2127 69.6745 50.882C68.685 53.1818 67.2008 55.2351 65.3044 56.8777C66.5824 75.0291 71.1174 86.733 83.9804 87.349C96.8434 87.965 103.357 75.2344 105.13 61.354C93.2154 58.8489 97.0908 51.9087 93.0917 43.3669C89.1339 34.8662 82.2076 34.6198 78.4147 36.7963Z" fill="#D46C67"/>
<path d="M93.1329 43.3669C89.1751 34.8662 82.2076 34.6198 78.4147 36.7963C75.5288 37.2891 73.4674 39.8763 72.3543 42.5866C71.2411 45.256 70.7876 48.2127 69.6745 50.8821C68.685 53.1818 67.2008 55.2351 65.3044 56.8777C65.3868 58.0276 65.4693 59.1364 65.593 60.2041C68.0666 58.4383 70.0043 55.8922 70.9938 53.0175C71.6534 51.1285 71.9008 49.1162 72.2718 47.145C72.6429 45.1738 73.0964 43.2026 74.0858 41.4368C75.0753 39.712 76.6832 38.2336 78.6621 37.7819C81.2182 36.3035 84.3103 36.5088 86.5778 37.6176C88.8453 38.7264 90.5768 40.7797 91.69 43.0384C92.8031 45.297 93.4215 47.8021 93.875 50.2661C94.5347 53.8388 95.0706 57.5759 97.0908 60.5737C98.7811 63.0788 101.502 64.8857 104.47 65.5428C104.759 64.1465 105.006 62.7092 105.213 61.2308C93.2566 58.8079 97.0908 51.8676 93.1329 43.3669Z" fill="#BF4F5B"/>
<path d="M77.7551 53.7568C74.663 53.8389 71.6122 54.0853 68.5613 54.5781C69.0561 53.7568 69.7982 52.8944 70.5815 52.3195C71.406 51.7445 72.3955 51.3339 73.4262 51.3339C75.0753 51.2517 77.0954 52.3605 77.7551 53.7568Z" fill="#4F2548"/>
<path d="M75.1165 62.1347C75.1165 63.1613 74.292 64.0237 73.2201 64.0237C72.1894 64.0237 71.3236 63.2024 71.3236 62.1347C71.3236 61.108 72.1481 60.2456 73.2201 60.2456C74.292 60.2456 75.1165 61.0669 75.1165 62.1347Z" fill="#4F2548"/>
<path d="M91.6487 53.7568C94.7408 53.8389 97.7916 54.0853 100.842 54.5781C100.348 53.7568 99.6056 52.8944 98.8223 52.3195C97.9978 51.7445 97.0083 51.3339 95.9776 51.3339C94.3285 51.2517 92.3084 52.3605 91.6487 53.7568Z" fill="#4F2548"/>
<path d="M91.8961 62.1347C91.8961 63.1613 92.7207 64.0237 93.7926 64.0237C94.8233 64.0237 95.6891 63.2024 95.6891 62.1347C95.6891 61.108 94.8645 60.2456 93.7926 60.2456C92.7619 60.2456 91.8961 61.0669 91.8961 62.1347Z" fill="#4F2548"/>
<path d="M87.4848 70.8403C85.176 70.8814 82.8673 70.9225 80.5585 70.9635C81.2594 72.1134 82.5787 72.9347 83.898 72.9347C85.2585 72.9347 86.7839 71.9902 87.4848 70.8403Z" fill="#BF4F5B"/>
<path d="M71.9626 73.1227C73.997 72.8788 75.5051 71.5128 75.331 70.0717C75.1569 68.6306 73.3664 67.6601 71.3319 67.904C69.2975 68.148 67.7893 69.5139 67.9635 70.955C68.1376 72.3961 69.9281 73.3666 71.9626 73.1227Z" fill="#F0869C"/>
<path d="M92.7619 70.06C92.597 71.4973 94.1224 72.8936 96.1425 73.14C98.2039 73.3864 99.9767 72.4008 100.142 70.9635C100.307 69.5261 98.7811 68.1299 96.7609 67.8835C94.6996 67.6371 92.9268 68.6227 92.7619 70.06Z" fill="#F0869C"/>
<path d="M92.7619 74.9062C87.6085 75.7276 82.4138 76.2204 77.2191 76.3436C78.3735 78.2737 80.2287 79.8753 82.3726 80.6555C84.5164 81.4358 86.9488 81.3537 88.969 80.327C90.9891 79.2593 92.3908 77.1238 92.7619 74.9062Z" fill="white"/>
<path d="M89.6698 81.8047C87.9383 82.3796 86.0418 82.626 84.2278 82.4618C85.0936 83.0367 86.083 83.6527 87.1137 83.6527C88.1444 83.6527 89.3812 82.7903 89.6698 81.8047Z" fill="#BF4F5B"/>
<path d="M90.0821 145.416L89.9584 147.305C89.7935 149.728 90.5356 152.151 92.061 154.081L109.789 176.339L123.724 183.608C128.589 186.154 134.402 186.113 139.225 183.526C145.863 179.953 149.244 172.397 147.43 165.087L135.597 117.286C133.948 110.674 128.671 105.582 121.992 104.226L118.653 103.528C115.025 115.027 119.312 138.476 120.879 148.414L110.655 134.041C109.129 131.905 106.82 130.468 104.264 130.057L102.615 129.77L90.0821 145.416Z" fill="#F0869C"/>
<path d="M93.3391 150.55C94.9882 150.468 96.9671 150.057 98.8636 149.112C100.76 148.209 102.574 146.813 104.017 145.047C105.46 143.322 106.491 141.228 107.027 139.215C107.563 137.203 107.645 135.191 107.398 133.548C107.109 135.191 106.656 136.998 105.913 138.846C105.171 140.653 104.099 142.46 102.821 144.061C101.502 145.663 99.9355 147.018 98.2864 148.086C96.5961 149.154 94.9057 149.934 93.3391 150.55Z" fill="#EA5380"/>
<path d="M132.588 131.906C130.568 133.466 128.3 135.93 126.404 138.641C124.507 141.392 123.023 144.39 122.281 146.813C123.765 144.76 125.538 142.008 127.393 139.339C129.248 136.628 131.186 134 132.588 131.906Z" fill="#EA5380"/>
<path d="M130.155 141.72C128.754 141.967 127.063 142.788 125.661 143.897C124.26 145.006 123.105 146.443 122.528 147.798C123.806 147.182 125.249 146.155 126.61 145.088C127.97 143.979 129.248 142.829 130.155 141.72Z" fill="#EA5380"/>
<path d="M134.484 152.727C133.577 151.372 131.928 150.058 130.073 149.195C128.218 148.292 126.156 147.881 124.507 148.004C125.826 148.949 127.558 149.893 129.331 150.715C131.103 151.577 132.876 152.316 134.484 152.727Z" fill="#EA5380"/>
<path d="M120.838 148.373L133.206 165.785C132.918 151.864 120.838 148.373 120.838 148.373Z" fill="#EA5380"/>
<path d="M103.357 178.558C107.48 176.915 112.18 178.475 115.973 180.775C119.725 183.116 123.064 186.155 127.146 187.921C134.113 190.919 142.73 189.44 148.502 184.512C154.273 179.584 157.077 171.576 156.005 164.061C155.593 161.31 154.686 158.558 152.954 156.341C151.223 154.123 148.625 152.521 145.822 152.398C143.018 152.275 140.091 153.753 138.937 156.3C137.576 159.297 138.813 162.788 140.215 165.786C141.617 168.784 143.224 171.987 142.565 175.231C141.781 179.05 137.906 181.638 134.031 181.966C130.155 182.295 126.362 180.734 122.982 178.763C119.642 176.792 116.591 174.287 113.17 172.48C109.748 170.632 105.749 169.482 101.956 170.344C102.327 172.726 103.028 176.258 103.357 178.558Z" fill="#C4D3D9"/>
<path d="M142.565 175.314C142.441 175.889 142.235 176.464 141.988 176.998C143.925 179.708 146.399 182.09 149.202 183.938C151.099 182.131 152.666 179.995 153.82 177.655C149.862 177.49 145.945 176.135 142.688 173.876C142.688 174.369 142.647 174.862 142.565 175.314Z" fill="#97A5B3"/>
<path d="M128.547 186.484C125.126 184.841 122.198 182.336 119.065 180.2C115.932 178.065 112.098 176.217 108.263 176.217C108.47 174.246 108.181 172.234 107.439 170.427C105.625 170.057 103.728 170.016 101.914 170.427C102.285 172.726 102.986 176.258 103.357 178.558C107.48 176.915 112.18 178.476 115.973 180.775C119.725 183.116 123.064 186.155 127.146 187.921C131.681 189.892 136.958 189.933 141.658 188.373C137.246 189.071 132.588 188.414 128.547 186.484Z" fill="#97A5B3"/>
<path d="M156.17 168.866C156.294 167.264 156.211 165.704 156.005 164.102C156.005 164.061 156.005 164.02 156.005 163.979C153.16 165.006 150.068 165.375 147.059 165.047C144.09 164.677 141.245 163.65 138.731 162.008C139.06 163.322 139.638 164.636 140.174 165.868C140.256 166.073 140.38 166.32 140.462 166.525C145.121 169.359 150.934 170.221 156.17 168.866Z" fill="#97A5B3"/>
<path d="M104.223 178.639C106.779 173.834 105.666 167.716 102.657 163.198C99.6057 158.681 94.947 155.519 90.0821 152.973C85.2585 150.427 80.1463 148.373 75.57 145.375C71.3648 142.624 67.6131 139.133 64.6035 135.109C62.8307 132.727 61.2641 130.099 60.9755 127.142C60.6869 124.226 61.7588 121.023 64.3974 119.668C65.0982 122.501 67.2421 125.007 69.757 126.526C70.7876 119.504 69.2622 112.112 65.4693 106.116C61.6764 100.12 55.6571 95.5209 48.8546 93.4265C42.7117 91.5374 36.2802 92.0713 29.8487 92.523C31.9101 94.9049 34.7136 96.6707 37.7232 97.6152C31.9926 105.623 26.1795 113.795 23.0462 123.117C19.1708 134.657 19.6243 147.141 20.3664 159.256C27.3751 167.921 36.7337 174.491 47.123 178.598C57.5124 182.705 68.7263 184.553 79.8989 185.004C88.3918 185.333 100.224 186.195 104.223 178.639Z" fill="#C4D3D9"/>
<path d="M63.9439 115.561C62.9544 117.367 62.707 119.503 62.6658 121.146C63.1605 120.571 63.7377 120.078 64.3974 119.749C64.0263 117.778 63.8202 116.341 63.9439 115.561Z" fill="#97A5B3"/>
<path d="M43.4538 98.8062C41.8459 98.7241 39.6196 98.1081 37.682 97.5742C37.1872 98.2313 36.7337 98.9294 36.239 99.5865C38.3828 99.7097 41.2687 99.5865 43.4538 98.8062Z" fill="#97A5B3"/>
<path d="M90.0821 152.972C85.2585 150.426 80.1463 148.373 75.57 145.375C71.3648 142.624 67.6131 139.133 64.6035 135.109C63.5728 133.712 62.6246 132.234 61.9237 130.673C61.3053 134 59.3264 137.121 56.4405 138.969C55.3686 139.667 54.1317 140.201 53.3484 141.227C52.5651 142.254 52.4414 143.938 53.5545 144.636C54.3791 145.17 55.4922 144.882 56.358 144.431C57.2238 143.979 58.0483 143.363 59.0378 143.199C60.7694 142.952 62.4185 144.431 62.8307 146.155C63.243 147.88 62.6658 149.646 61.8825 151.248C61.058 152.808 60.0273 154.245 59.3264 155.847C59.0378 156.504 58.8317 157.202 58.9141 157.9C58.9966 158.598 59.4501 159.297 60.1097 159.461C61.0167 159.707 61.9237 159.009 62.5834 158.352C64.5211 156.463 66.4588 154.615 68.3964 152.726C69.1385 151.987 69.9219 151.248 70.9113 150.837C71.9008 150.426 73.0964 150.467 73.8797 151.207C74.9104 152.192 74.663 153.876 74.0858 155.149C73.3025 156.915 72.0245 158.475 71.4885 160.323C70.9938 162.212 71.6122 164.635 73.5087 165.169C74.6218 165.498 75.8174 165.005 76.642 164.266C77.5077 163.526 78.0849 162.541 78.6621 161.555C79.6103 159.913 80.6822 158.27 82.2489 157.202C83.8155 156.176 86.1243 155.97 87.526 157.243C88.8041 158.393 88.9278 160.364 88.6804 162.048C88.433 163.732 87.9383 165.457 88.2681 167.14C88.5979 168.824 90.1233 170.467 91.8137 170.097C93.0505 169.851 93.8338 168.66 94.2049 167.469C94.5759 166.278 94.6996 165.005 95.1943 163.896C95.6891 162.746 96.761 161.72 98.039 161.843C99.1109 161.925 99.9355 162.828 100.471 163.773C101.007 164.676 101.42 165.744 102.244 166.442C102.904 167.058 103.852 167.346 104.759 167.305C104.264 165.826 103.564 164.389 102.698 163.116C99.6057 158.681 94.9057 155.518 90.0821 152.972Z" fill="#97A5B3"/>
<path d="M43.9485 156.586C43.2477 152.767 42.7529 148.866 40.9802 145.416C39.2074 141.967 35.7443 139.051 31.8689 139.297C27.9935 139.503 24.8602 142.829 23.5821 146.484C22.3453 150.139 22.5927 154.122 22.8813 157.982C23.005 159.502 23.0874 161.021 23.2111 162.541C29.8075 169.563 38.053 174.984 47.0406 178.557C49.6792 179.583 52.4002 180.487 55.1624 181.267C53.4721 179.419 51.9467 177.366 50.6686 175.23C47.2467 169.522 45.1854 163.116 43.9485 156.586Z" fill="#DBE3E6"/>
<path d="M84.5989 164.963C78.9095 164.388 72.7253 166.319 68.685 170.343C65.3044 173.71 63.3255 178.351 63.0781 183.115C64.7272 183.443 66.4175 183.69 68.0666 183.936C68.3964 180.445 69.5508 176.996 71.4885 174.08C74.5393 169.522 79.3217 166.195 84.5989 164.963Z" fill="#97A5B3"/>
<path d="M47.123 109.852C47.3292 109.236 47.3292 108.456 47.123 107.634C46.9169 106.854 46.5046 106.033 45.8862 105.376C45.2678 104.718 44.4845 104.267 43.7012 104.02C42.9178 103.774 42.1345 103.774 41.4749 103.938C42.6292 104.513 43.9073 105.293 44.8968 106.361C45.8862 107.347 46.5871 108.62 47.123 109.852Z" fill="#4F2548"/>
<path d="M59.8211 117.613C59.6562 117.038 59.3264 116.381 58.7904 115.847C58.2545 115.314 57.5948 114.821 56.8527 114.533C56.1106 114.246 55.2861 114.082 54.544 114.164C53.8019 114.205 53.101 114.41 52.5651 114.739C53.7607 114.944 55.1212 115.231 56.3992 115.724C57.636 116.217 58.8316 116.915 59.8211 117.613Z" fill="#4F2548"/>
<path d="M48.9783 122.254C48.1537 121.925 47.3292 121.35 46.8344 120.57C46.2985 119.79 46.0099 118.845 46.1336 117.983C46.1748 117.695 46.2573 117.408 46.3397 117.162C46.5871 116.874 46.7932 116.546 46.9169 116.217C47.0406 116.094 47.1643 115.971 47.3292 115.848C47.2055 115.889 47.123 115.93 46.9994 115.971C47.0406 115.848 47.0818 115.724 47.0818 115.56C46.9994 115.765 46.8757 115.93 46.752 116.094C46.5046 116.258 46.2573 116.505 46.0511 116.792C45.7625 117.038 45.4739 117.244 45.1441 117.367C44.2783 117.778 43.2477 117.86 42.2582 117.572C41.2687 117.326 40.403 116.751 39.7845 116.012C39.1249 115.273 38.7126 114.41 38.4653 113.589C38.4653 114.451 38.6714 115.437 39.2898 116.381C39.867 117.285 40.8977 118.065 42.0521 118.394C43.2064 118.722 44.5257 118.517 45.4327 117.901C45.4739 117.86 45.5152 117.819 45.5564 117.819C45.5564 117.819 45.5564 117.819 45.5564 117.86C45.2678 118.886 45.5564 120.077 46.1748 120.981C46.7932 121.925 47.7827 122.541 48.7721 122.788C49.7616 123.034 50.7511 122.911 51.4519 122.582C50.7098 122.665 49.8028 122.582 48.9783 122.254Z" fill="#435377"/>
<path d="M50.009 127.347C44.1959 125.458 38.7951 122.296 34.3837 118.107C35.0846 121.433 37.0223 124.472 39.9082 126.238C42.8354 128.004 46.7108 128.25 50.009 127.347Z" fill="#97A5B3"/>
<path d="M49.7616 116.875C48.7309 115.478 47.3292 114.328 45.7625 113.63C45.5976 114.739 45.6801 116.094 46.1748 117.121C47.288 117.326 48.6897 117.162 49.7616 116.875Z" fill="#4F2548"/>
<path d="M61.7588 177.448L60.9343 175.23C60.2334 173.424 58.7492 172.027 56.8527 171.534C54.5852 170.918 51.2458 169.933 47.4116 168.701C39.0837 166.032 28.6531 162.212 22.9225 158.229C21.8094 157.449 20.8611 156.668 20.1603 155.888C20.1603 155.888 20.1603 155.888 20.1603 155.847C19.8717 150.344 19.7068 144.841 20.0778 139.379V139.297C20.0778 139.297 12.2034 148.784 8.20429 161.966C7.54465 164.143 7.70956 166.483 8.57534 168.578L11.956 176.586C12.6569 178.269 13.8525 179.748 15.3779 180.815C21.3146 185.004 37.4346 195.64 51.8642 198.638C53.5133 198.967 55.2449 198.597 56.6054 197.653L58.5018 196.339C58.5018 196.256 54.6265 187.099 61.7588 177.448Z" fill="#F0869C"/>
<path d="M69.1798 178.845L64.0676 177.859L61.7588 177.407C54.6265 187.058 58.4606 196.216 58.4606 196.216L70.9526 199.008L71.6534 184.347L71.8596 180.241C71.8596 179.707 71.4885 179.255 70.9526 179.132L69.1798 178.845Z" fill="#F4A7AE"/>
<path d="M15.7077 157.161C15.9963 154.779 16.8208 152.397 17.934 150.303C17.6454 153.259 19.2533 154.984 20.1603 155.888C20.1603 155.888 20.1603 155.888 20.1603 155.847C19.9541 152.028 19.8305 148.208 19.8717 144.389C16.7796 147.798 15.213 152.561 15.7077 157.161Z" fill="#EA5380"/>
<path d="M23.4997 174.86C22.1392 173.423 20.9024 171.945 19.8304 170.425C18.7173 168.947 17.7691 167.468 16.9857 166.154C17.3568 167.674 17.9752 169.357 18.9234 171.041C19.8304 172.725 21.0673 174.409 22.469 175.887C23.8707 177.365 25.4786 178.68 27.1277 179.706C28.7768 180.733 30.4259 181.472 31.9101 181.924C30.6321 181.02 29.2303 179.994 27.7874 178.844C26.3032 177.612 24.819 176.298 23.4997 174.86Z" fill="#EA5380"/>
<path d="M25.3962 174.163C26.9628 175.559 29.4777 176.914 32.1987 177.53C34.9197 178.146 37.7644 177.982 39.7846 177.325C37.682 177.284 35.0022 177.119 32.4048 176.544C29.8487 175.97 27.3339 174.984 25.3962 174.163Z" fill="#EA5380"/>
<path d="M53.5546 177.447C52.5651 178.885 51.7818 180.569 51.3283 182.334C50.8748 184.141 50.7511 185.989 50.9572 187.714C51.1634 189.439 51.6581 190.999 52.2765 192.19C52.0704 190.835 51.9055 189.275 51.9055 187.673C51.9467 186.03 52.1528 184.347 52.5651 182.663C52.9774 181.02 53.5958 179.378 54.3379 177.94C55.08 176.503 55.9458 175.189 56.7703 174.121C55.6984 174.86 54.5028 176.01 53.5546 177.447Z" fill="#EA5380"/>
<path d="M110.16 179.296C109.294 178.598 108.016 178.844 107.233 179.583C106.408 180.322 105.46 180.856 104.306 181.431C104.965 180.774 105.625 180.117 105.955 179.255C106.243 178.392 106.037 177.283 105.254 176.832C104.182 176.257 102.945 177.078 101.956 177.817C98.7811 180.24 95.1119 181.965 91.2365 182.868C90.1233 183.115 88.8453 183.238 88.062 182.458C87.526 181.883 87.4435 180.938 87.7321 180.199C88.0207 179.46 88.5979 178.844 89.2576 178.351C89.9997 177.776 90.8654 177.242 91.4014 176.462C91.9373 175.682 92.0198 174.491 91.2777 173.875C90.4944 173.218 89.2576 173.587 88.3506 174.08C84.8874 175.887 81.8778 178.515 79.6928 181.719C79.6928 181.719 76.0648 181.185 71.942 180.322C66.4175 187.755 69.592 196.256 69.592 196.256C79.9814 200.445 91.7312 201.143 102.533 198.227C103.275 198.022 104.017 197.817 104.594 197.324C105.171 196.831 105.542 196.01 105.254 195.312C105.048 194.819 104.553 194.49 104.017 194.367C105.996 193.505 107.81 192.191 109.212 190.548C109.541 190.137 109.871 189.685 109.995 189.193C110.119 188.659 109.995 188.084 109.583 187.755C109.047 187.345 108.305 187.55 107.686 187.755C106.326 188.207 105.006 188.659 103.646 189.111C106.326 187.509 108.552 185.168 110.077 182.499C110.366 182.006 110.613 181.472 110.696 180.897C110.737 180.281 110.613 179.665 110.16 179.296Z" fill="#D46C67"/>
<path d="M91.3602 199.131C84.9699 198.967 78.4972 197.283 72.478 194.901C71.0762 194.326 70.0455 193.053 69.8394 191.575C69.4271 188.331 69.7569 185.045 70.7876 181.924C66.7886 188.906 69.5096 196.215 69.5096 196.215C79.8989 200.404 91.6488 201.102 102.45 198.187C102.739 198.104 103.028 198.022 103.275 197.94C99.3995 198.844 95.4005 199.254 91.3602 199.131Z" fill="#BF4F5B"/>
<path d="M72.4367 197.325C71.4473 196.996 70.499 196.626 69.5096 196.257C70.499 199.624 71.1999 199.871 72.4367 197.325Z" fill="#D03467"/>
<path d="M92.7207 186.852C94.5347 186.934 96.9671 186.482 99.1522 185.456C101.337 184.429 103.234 182.868 104.347 181.431C102.863 182.458 100.884 183.69 98.8223 184.675C96.6785 185.661 94.4522 186.359 92.7207 186.852Z" fill="#A13E4C"/>
<path d="M94.947 191.534C96.1838 191.739 97.8741 191.698 99.482 191.247C101.09 190.795 102.574 190.015 103.522 189.193C102.368 189.686 100.843 190.261 99.3171 190.672C97.7917 191.082 96.225 191.329 94.947 191.534Z" fill="#A13E4C"/>
<path d="M94.8645 195.722C96.1013 196.01 97.8329 196.051 99.482 195.804C101.131 195.558 102.739 195.024 103.893 194.408C102.615 194.655 101.007 194.942 99.3995 195.188C97.7917 195.476 96.1426 195.599 94.8645 195.722Z" fill="#A13E4C"/>
<path d="M80.9708 135.848L90.0821 145.416C101.626 140.324 102.574 129.77 102.574 129.77L92.6382 120.489L80.9708 135.848Z" fill="#F4A7AE"/>
<path d="M83.5682 130.713C83.5682 130.713 79.2805 136.668 81.5068 135.847C83.1559 135.231 84.805 134.327 86.2892 133.013L85.8357 133.301L83.5682 130.713Z" fill="#D03467"/>
<path d="M80.5998 107.881C73.5911 102.419 65.6342 98.0247 57.3475 94.8216C56.4817 94.493 55.6159 94.1645 54.7089 94.2877C53.8019 94.4109 52.9361 95.1501 52.9773 96.0536C53.0186 96.916 53.8019 97.532 54.544 98.0248C56.3168 99.1335 58.1308 100.078 60.0685 100.858C58.3781 100.16 56.6878 99.4621 54.9975 98.7639C54.2966 98.4765 53.5133 98.1479 52.7712 98.1479C51.9879 98.1479 51.1633 98.5175 50.8335 99.2157C50.5037 99.9549 50.8335 100.858 51.4107 101.433C51.9879 102.008 52.7712 102.337 53.5545 102.624C56.1106 103.61 58.6255 104.595 61.1816 105.581C59.2851 104.965 57.636 104.226 55.7808 103.815C54.7089 103.569 53.3072 103.528 52.7712 104.472C52.3589 105.17 52.6887 106.115 53.2659 106.649C53.8431 107.224 54.6264 107.47 55.4098 107.716C57.7597 108.497 60.1097 109.277 62.4184 110.057C60.9755 109.77 59.6974 109.195 58.5018 109.359C57.3062 109.482 56.6054 110.386 56.729 111.577C56.8527 112.85 58.2545 113.507 59.4501 113.917C62.6246 115.026 65.8403 115.971 69.0973 116.71C69.7982 122.213 79.6928 126.114 79.6928 126.114L83.6094 130.631L85.8769 133.26L86.3304 132.972C89.1751 130.508 91.5251 126.607 92.6794 120.447L80.5998 107.881Z" fill="#D46C67"/>
<path d="M83.5682 130.715C83.5682 130.715 79.2805 136.669 81.5068 135.848C83.1559 135.232 84.805 134.329 86.2892 133.015L85.8357 133.302L83.5682 130.715Z" fill="#D03467"/>
<path d="M84.5988 128.374C83.2796 127.06 82.084 125.622 81.0945 124.103C76.2709 123.282 71.8183 119.545 70.2104 114.945C67.1596 114.37 64.1088 113.836 61.0167 113.261C60.0272 113.097 58.9966 112.892 58.172 112.317C57.5124 111.865 57.0176 111.085 56.9764 110.305C56.729 110.674 56.6466 111.126 56.6878 111.619C56.8115 112.892 58.2132 113.549 59.4088 113.96C62.5833 115.068 65.7991 116.013 69.0561 116.752C69.7569 122.255 79.6515 126.156 79.6515 126.156L83.5682 130.674L85.8357 133.302L86.2892 133.014C87.7734 131.741 89.1339 130.058 90.247 127.881C90.0409 128.086 89.8347 128.292 89.6286 128.497C88.1856 129.811 85.9594 129.77 84.5988 128.374Z" fill="#BF4F5B"/>
<path d="M70.128 112.522C68.0254 111.495 59.8624 108.867 57.5124 108.539C59.6562 109.565 67.8193 112.193 70.128 112.522Z" fill="#A13E4C"/>
<path d="M68.1491 107.84C66.1701 106.813 57.8422 103.815 55.6571 103.446C57.5948 104.514 65.9228 107.47 68.1491 107.84Z" fill="#A13E4C"/>
<path d="M67.9017 104.268C65.5517 102.79 57.801 99.0526 55.0799 98.3955C57.4299 99.8328 65.2219 103.611 67.9017 104.268Z" fill="#A13E4C"/>
<path d="M11.5849 142.459C11.7086 142.582 10.6779 143.732 9.31742 145.786C9.15251 146.032 8.9876 146.319 8.78146 146.607C8.61655 146.894 8.45164 147.182 8.2455 147.51C7.87446 148.126 7.54464 148.824 7.13236 149.564C6.4315 151.042 5.73063 152.685 5.19467 154.492C4.65871 156.299 4.28766 158.064 4.0403 159.666C3.95784 160.487 3.83416 161.226 3.79293 161.966C3.75171 162.335 3.71048 162.664 3.71048 163.033C3.71048 163.362 3.71048 163.69 3.66925 164.019C3.62802 166.483 3.79293 168.044 3.66925 168.044C3.5868 168.044 3.13329 166.565 3.00961 164.019C3.00961 163.69 2.96838 163.362 2.96838 163.033C2.96838 162.705 2.96838 162.335 2.96838 161.966C2.96838 161.226 3.05084 160.446 3.13329 159.584C3.33943 157.941 3.71048 156.093 4.24644 154.245C4.82362 152.397 5.56572 150.713 6.34904 149.194C6.76131 148.455 7.13236 147.757 7.54464 147.141C7.75078 146.812 7.91569 146.525 8.12182 146.237C8.32796 145.95 8.5341 145.703 8.69901 145.416C10.3069 143.404 11.5437 142.377 11.5849 142.459Z" fill="#797E9C"/>
<path d="M5.60694 145.744C5.6894 145.826 5.07098 146.648 4.20521 148.085C3.79293 148.783 3.2982 149.687 2.8447 150.672C2.3912 151.658 1.93769 152.808 1.56665 153.999C1.1956 155.19 0.948233 156.38 0.783323 157.448C0.618413 158.516 0.494731 159.502 0.453504 160.323C0.371049 161.966 0.412276 163.033 0.329821 163.033C0.247366 163.033 0.0412275 162.007 0 160.323C0 159.46 0.0412281 158.475 0.164911 157.366C0.329821 156.257 0.577186 155.025 0.948234 153.793C1.31928 152.561 1.81401 151.411 2.30874 150.385C2.80347 149.399 3.33943 148.496 3.83416 147.798C4.78239 146.442 5.52449 145.703 5.60694 145.744Z" fill="#797E9C"/>
<path d="M30.1785 80.161C30.3022 80.2842 28.9417 81.393 27.004 83.4052C26.7567 83.6516 26.5093 83.9391 26.2619 84.1855C26.0146 84.473 25.7672 84.7604 25.4786 85.089C24.9426 85.705 24.4067 86.4031 23.8295 87.1012C22.7576 88.5796 21.6444 90.2633 20.6138 92.1113C19.6243 93.9593 18.7997 95.8484 18.1813 97.5321C17.8927 98.3945 17.6041 99.2158 17.3568 99.9961C17.2331 100.407 17.1094 100.776 17.027 101.146C16.9445 101.516 16.8621 101.885 16.7796 102.214C16.1612 104.924 15.955 106.649 15.7901 106.649C15.6665 106.649 15.584 104.883 16.0375 102.09C16.12 101.721 16.1612 101.392 16.2436 100.982C16.3261 100.612 16.4085 100.201 16.5322 99.7907C16.6971 98.9694 16.9857 98.107 17.2743 97.2036C17.8927 95.4377 18.6761 93.5076 19.7067 91.5775C20.7374 89.6884 21.933 87.9636 23.0874 86.4852C23.7058 85.746 24.2418 85.0479 24.819 84.473C25.1076 84.1855 25.3549 83.857 25.6435 83.6106C25.9321 83.3642 26.1795 83.0767 26.4681 82.8303C28.5707 80.9413 30.0961 80.0378 30.1785 80.161Z" fill="#797E9C"/>
<path d="M23.005 83.5689C23.0462 83.651 22.3453 84.2259 21.3146 85.2936C20.7787 85.8275 20.2015 86.4846 19.5831 87.2648C18.9647 88.0451 18.3462 88.9486 17.7691 89.8931C17.1919 90.8787 16.7384 91.8643 16.3261 92.7677C15.955 93.6712 15.6665 94.5336 15.4191 95.2317C14.9656 96.669 14.8007 97.5725 14.7182 97.5725C14.6358 97.5725 14.677 96.628 15.0068 95.1496C15.1717 94.4104 15.4603 93.548 15.7901 92.6035C16.1612 91.6589 16.6559 90.6733 17.2331 89.6467C17.8103 88.6611 18.4699 87.7576 19.1296 86.9774C19.7892 86.1971 20.4076 85.54 20.9848 85.0473C22.1392 83.9795 22.9637 83.4867 23.005 83.5689Z" fill="#797E9C"/>
<path d="M158.602 183.279C158.685 183.32 158.479 183.731 158.025 184.429C157.901 184.593 157.778 184.798 157.654 185.004C157.53 185.209 157.324 185.414 157.159 185.661C156.788 186.112 156.417 186.646 155.922 187.18C155.675 187.468 155.428 187.714 155.139 188.001C154.851 188.289 154.562 188.576 154.232 188.864C153.614 189.48 152.872 190.014 152.13 190.63C150.563 191.78 148.749 192.888 146.687 193.792C144.626 194.695 142.565 195.311 140.668 195.681C139.72 195.845 138.813 196.009 137.947 196.05C137.535 196.092 137.123 196.133 136.71 196.133C136.298 196.133 135.927 196.133 135.556 196.133C134.814 196.174 134.154 196.092 133.577 196.05C133.289 196.009 133 196.009 132.753 195.968C132.505 195.927 132.299 195.886 132.093 195.845C131.268 195.681 130.856 195.599 130.856 195.517C130.856 195.434 131.31 195.434 132.134 195.434C132.34 195.434 132.546 195.434 132.794 195.476C133.041 195.476 133.289 195.476 133.577 195.476C134.154 195.476 134.773 195.476 135.515 195.393C135.886 195.352 136.257 195.352 136.628 195.311C136.999 195.27 137.411 195.188 137.824 195.147C138.648 195.065 139.514 194.86 140.462 194.654C142.276 194.203 144.255 193.587 146.234 192.724C148.213 191.821 149.986 190.794 151.552 189.726C152.294 189.151 153.037 188.659 153.655 188.084C153.985 187.796 154.273 187.55 154.562 187.303C154.851 187.016 155.098 186.769 155.386 186.523C155.922 186.03 156.335 185.537 156.747 185.168C156.953 184.963 157.118 184.757 157.283 184.593C157.448 184.388 157.572 184.223 157.695 184.1C158.231 183.566 158.561 183.238 158.602 183.279Z" fill="#797E9C"/>
<path d="M155.263 192.642C155.304 192.684 154.644 193.546 153.284 194.655C152.624 195.23 151.758 195.805 150.769 196.421C149.78 196.995 148.625 197.57 147.347 198.063C146.069 198.515 144.832 198.843 143.719 199.049C142.565 199.254 141.534 199.336 140.668 199.336C138.895 199.377 137.824 199.131 137.865 199.09C137.865 198.967 138.937 199.049 140.668 198.885C141.534 198.802 142.524 198.679 143.637 198.474C144.75 198.227 145.945 197.899 147.182 197.447C148.419 196.995 149.532 196.462 150.522 195.928C151.511 195.353 152.377 194.819 153.037 194.326C154.438 193.3 155.222 192.56 155.263 192.642Z" fill="#797E9C"/>
<path d="M152.171 102.994C152.006 102.994 152.047 101.475 151.635 99.0519C151.222 96.6701 150.151 93.4258 148.007 90.3869C145.863 87.348 143.142 85.2947 141.039 84.0627C138.937 82.8307 137.453 82.379 137.494 82.2147C137.535 82.1326 139.06 82.379 141.328 83.4877C143.595 84.5965 146.481 86.6909 148.749 89.853C150.975 93.0151 151.965 96.4647 152.253 98.9287C152.542 101.475 152.294 103.035 152.171 102.994Z" fill="#797E9C"/>
<path d="M154.809 93.6727C154.686 93.7138 154.479 92.6871 153.82 91.1266C153.655 90.757 153.49 90.3463 153.243 89.8946C153.036 89.4429 152.748 89.0322 152.459 88.5394C151.882 87.636 151.14 86.6504 150.274 85.7469C149.408 84.8435 148.46 84.0632 147.553 83.4472C147.1 83.1597 146.646 82.8723 146.234 82.6259C145.822 82.3795 145.409 82.1741 145.038 82.0099C143.513 81.3117 142.523 81.0654 142.523 80.9422C142.523 80.86 143.595 80.9832 145.203 81.5992C145.616 81.7635 146.028 81.9277 146.481 82.1741C146.935 82.3795 147.388 82.6669 147.883 82.9544C148.831 83.5704 149.821 84.3507 150.728 85.2952C151.635 86.2397 152.377 87.2664 152.954 88.2109C153.243 88.7037 153.49 89.1554 153.696 89.6482C153.902 90.1 154.067 90.5517 154.232 90.9213C154.809 92.605 154.892 93.6727 154.809 93.6727Z" fill="#797E9C"/>
</svg>
