<svg width="170" height="200" viewBox="0 0 170 200" fill="none" xmlns="http://www.w3.org/2000/svg">
<path d="M132.011 113.289C152.867 92.433 152.867 58.6188 132.011 37.7628C111.155 16.9069 77.3412 16.9069 56.4852 37.7628C35.6293 58.6188 35.6293 92.433 56.4852 113.289C77.3412 134.145 111.155 134.145 132.011 113.289Z" fill="#C6E6ED"/>
<path d="M93.7363 120.96C97.1664 119.301 99.3424 115.871 100.781 112.367C102.514 108.125 103.363 103.552 103.326 98.9785L100.264 98.5728L78.8359 104.658L74.4469 106.097C75.1476 110.523 76.8073 114.838 79.9792 117.936C83.5568 121.514 89.2367 123.099 93.7363 120.96Z" fill="#5C4291"/>
<path d="M103.363 98.979C103.399 103.552 102.551 108.126 100.818 112.367C99.3793 115.871 97.1664 119.301 93.7732 120.961C89.2736 123.137 83.5937 121.514 80.0161 118.01C76.8811 114.875 75.1845 110.56 74.4838 106.171L54.678 112.699L61.3906 190.3L99.9694 196.09L124.275 187.607L128.258 102.262L103.363 98.979Z" fill="#6A6FB2"/>
<path d="M107.346 103.773C106.498 106.724 105.686 110.154 104.322 113.621C103.621 115.354 102.809 117.051 101.74 118.637C100.67 120.223 99.4162 121.698 97.9409 122.915C96.4656 124.132 94.769 125.018 92.9249 125.534C91.1177 126.05 89.2367 126.198 87.4294 125.977C85.6222 125.755 83.9256 125.202 82.4134 124.428C80.9013 123.653 79.6104 122.62 78.5408 121.514C79.426 122.768 80.6062 123.985 82.0815 124.944C83.5568 125.94 85.3271 126.677 87.245 127.009C89.1629 127.341 91.2283 127.304 93.2568 126.788C95.2485 126.309 97.2032 125.313 98.8261 123.985C100.449 122.657 101.814 121.034 102.883 119.301C103.953 117.567 104.764 115.723 105.354 113.916C106.498 110.338 106.977 106.798 107.346 103.773Z" fill="#5C4291"/>
<path d="M76.8442 120.075C76.0697 118.526 75.0739 116.497 74.2994 114.395C73.5248 112.293 72.9716 110.154 72.529 108.457C72.3815 110.19 72.7134 112.551 73.5248 114.69C74.2994 116.866 75.5902 118.821 76.8442 120.075Z" fill="#5C4291"/>
<path d="M87.0237 132.468C85.0321 131.472 82.561 130.033 80.3849 128.263C78.172 126.493 76.291 124.354 74.8895 122.62C75.2952 123.653 75.8853 124.833 76.6967 125.94C77.5081 127.046 78.5408 128.152 79.6842 129.075C80.8275 129.997 82.1184 130.808 83.3724 131.361C84.6633 131.914 85.9173 132.283 87.0237 132.468Z" fill="#5C4291"/>
<path d="M113.395 114.285L112.768 116.387C111.698 120.075 110.997 123.874 110.702 127.71L108.047 162.453L87.0237 159.207L60.8004 183.255L61.3905 190.262L99.9694 196.053L124.275 187.57L127.004 129.701L113.395 114.285Z" fill="#5C4291"/>
<path d="M78.0614 96.9501C78.3933 101.376 78.7253 105.802 79.0572 110.228C81.012 112.109 83.7781 113.4 86.5074 113.547C89.1998 113.695 91.966 112.846 94.1052 111.224C96.023 109.785 97.4246 107.72 98.4204 105.544C99.3793 103.331 99.9326 100.97 100.338 98.6098C96.8713 93.0406 93.8101 87.0288 91.8553 80.7588C88.6466 87.1763 83.6306 92.4505 78.0614 96.9501Z" fill="#FAC9AE"/>
<path d="M86.6549 100.564C88.3515 99.1259 89.2736 97.0236 89.9743 94.9214C91.4496 90.5324 92.1135 85.8483 92.0029 81.2012C91.966 81.0536 91.8922 80.8692 91.8553 80.7217C88.6466 87.1761 83.6675 92.4502 78.0614 96.9499C78.172 98.4252 78.2827 99.9005 78.3933 101.339C79.3523 101.892 80.4587 102.224 81.6021 102.298C83.4093 102.408 85.2534 101.781 86.6549 100.564Z" fill="#4F2548"/>
<path d="M89.6424 55.642C86.1017 50.626 80.2743 47.1222 74.0043 46.4583C67.7712 45.7944 61.2062 47.9336 56.7803 52.2857C53.8297 55.1625 51.8381 58.9245 51.1373 62.9078C49.8833 70.1736 52.8339 77.4394 56.0795 84.1151C58.1818 88.3934 60.5054 92.7087 64.083 95.9174C67.6606 99.1262 72.7872 101.155 77.5081 99.9745C80.4218 99.2368 82.9298 97.3927 85.0321 95.2904C89.1261 91.2334 91.9291 85.9961 93.1831 80.4637C93.7364 77.9557 93.9576 75.5584 93.5519 73.0135C93.1094 70.358 93.6995 67.6656 93.2938 64.9732C92.8512 61.6169 91.5972 58.4081 89.6424 55.642Z" fill="#FAC9AE"/>
<path d="M82.4504 67.8867C78.3196 67.8129 74.2256 67.776 70.0948 67.7022C71.607 66.0425 73.8199 64.8992 76.0697 64.8623C78.3933 64.8992 80.9382 66.2269 82.4504 67.8867Z" fill="#7A3349"/>
<path d="M53.6084 74.0458C56.0427 72.8287 58.4769 71.5747 60.948 70.3576C59.5834 69.4355 57.7761 69.2511 56.2271 69.8044C54.6411 70.3576 53.3871 72.3861 53.6084 74.0458Z" fill="#7A3349"/>
<path d="M76.2173 77.1069C77.0321 77.1069 77.6926 76.1657 77.6926 75.0046C77.6926 73.8436 77.0321 72.9023 76.2173 72.9023C75.4025 72.9023 74.742 73.8436 74.742 75.0046C74.742 76.1657 75.4025 77.1069 76.2173 77.1069Z" fill="#4F2548"/>
<path d="M60.6898 77.5501C61.0956 78.4721 60.9849 79.3942 60.4317 79.6155C59.8784 79.8368 59.1408 79.2836 58.7351 78.3984C58.3294 77.4763 58.44 76.5543 58.9933 76.333C59.5096 76.1117 60.2841 76.6649 60.6898 77.5501Z" fill="#4F2548"/>
<path d="M71.7545 81.6069C69.1728 81.8282 66.6279 82.5659 64.3412 83.7461C65.5214 84.41 67.1811 84.6682 68.472 84.2993C69.7629 83.9305 71.0906 82.7872 71.7545 81.6069Z" fill="#F5A490"/>
<path d="M80.1268 82.1235C75.8116 84.8528 71.2382 87.1764 66.4803 89.0205C67.7712 91.5285 70.3161 93.5202 73.1192 93.889C75.8853 94.2578 78.9097 92.93 80.2743 90.4958C81.5283 88.0985 80.8644 84.7791 80.1268 82.1235Z" fill="white"/>
<path d="M81.0857 92.561C79.8317 93.7782 78.3564 94.774 76.6967 95.4379C77.6188 95.8436 78.8728 95.8067 79.7211 95.2903C80.5694 94.7371 81.0489 93.5569 81.0857 92.561Z" fill="#F5A490"/>
<path d="M87.7983 76.9229C88.0934 77.9556 86.5443 79.2465 84.3683 79.8366C82.1922 80.4267 80.2006 80.0948 79.9055 79.0621C79.6104 78.0294 81.1595 76.7385 83.3356 76.1484C85.5116 75.5583 87.5033 75.8902 87.7983 76.9229Z" fill="#F4A7AE"/>
<path d="M62.4602 84.0406C62.534 85.1101 61.3906 86.0691 59.8784 86.1797C58.3663 86.2904 57.0754 85.5527 56.9647 84.4831C56.891 83.4136 58.0343 82.4546 59.5465 82.344C61.0587 82.2333 62.3496 82.971 62.4602 84.0406Z" fill="#F4A7AE"/>
<path d="M68.0294 59.846C71.7176 55.162 75.9222 52.5802 81.9709 54.2399L84.442 54.7563C81.5283 51.6581 76.5123 50.6254 72.3078 51.2893C68.1032 51.9901 64.2674 54.1661 60.7636 56.6373C58.9933 57.8913 57.2598 59.219 55.3788 60.2886C54.0879 61.0262 52.7233 61.6164 51.2849 61.9852C51.2111 62.2802 51.1742 62.5753 51.1005 62.8704C50.6948 65.2308 50.7316 67.6282 51.1005 69.9886C57.8499 69.0666 63.9724 64.9726 68.0294 59.846Z" fill="#F5A490"/>
<path d="M94.7322 76.9964C91.5603 74.6359 89.7531 70.542 90.1588 66.5956C87.5402 65.9686 84.8478 64.272 83.4093 61.9853C81.9709 59.6986 81.4546 56.8586 82.0078 54.24C79.2416 52.5434 75.0739 52.4328 72.0496 53.613C68.2138 55.1252 65.669 58.7028 62.7184 61.5427C60.1735 64.0138 57.1123 66.0792 53.6822 67.0013C50.2522 67.9233 46.4164 67.6652 43.3921 65.7473C40.4046 63.8663 38.4867 60.5838 37.786 57.1168C37.0852 53.6499 37.4909 50.0723 38.413 46.6791C38.8556 44.9826 39.4826 43.286 40.6259 41.9582C43.0233 39.192 47.1909 38.7494 50.8054 39.2289C54.4568 39.7084 58.0343 40.8886 61.6857 40.6304C64.7469 40.4091 67.6237 39.192 70.3899 37.938C73.1561 36.6472 75.9591 35.2825 78.9466 34.7293C81.9341 34.176 85.2903 34.508 87.6877 36.389C90.6752 38.7126 91.6341 42.7327 92.0767 46.4578C95.8756 47.6381 98.8261 50.8837 100.191 54.6088C101.519 58.3339 101.371 62.5016 100.228 66.3005C99.1581 70.0994 97.0558 73.7876 94.7322 76.9964Z" fill="#7A3349"/>
<path d="M48.0761 62.8705C49.8096 63.35 51.0636 61.2108 49.8096 59.9199C48.2605 58.2971 47.0065 56.453 46.0845 54.3876C45.4206 52.9123 44.9411 51.3633 44.683 49.7773C44.351 47.8963 41.6955 47.8226 41.216 49.6667C41.0316 50.3674 40.8841 51.1051 40.8472 51.8796C40.6259 55.0515 41.6586 58.3709 43.9084 60.6207C44.978 61.6534 46.4533 62.4279 48.0761 62.8705Z" fill="#9F5A62"/>
<path d="M53.129 41.9213C57.6655 43.2122 62.3496 44.9088 66.923 43.8761C72.1234 42.6958 76.1804 38.1593 81.4546 37.3848C84.8477 36.8684 88.3884 38.1962 90.7858 40.6304C90.1219 38.9707 89.163 37.4586 87.7614 36.389C85.3641 34.508 82.0078 34.176 79.0203 34.7293C76.0329 35.2825 73.2298 36.684 70.4637 37.938C67.6975 39.2289 64.8207 40.446 61.7594 40.6304C58.1081 40.8886 54.4936 39.7084 50.8792 39.2289C47.486 38.7863 43.6871 39.1551 41.216 41.405C44.8673 40.0403 49.2195 40.778 53.129 41.9213Z" fill="#9F5A62"/>
<path d="M92.2611 73.1608C92.5193 71.3904 93.4413 69.657 94.9535 68.7718C96.5025 67.8866 98.6786 68.0342 99.8588 69.3619C101.039 70.7266 100.928 72.792 100.56 74.5623C100.301 75.8163 99.9326 77.1072 99.2318 78.1768C98.5311 79.2464 97.4246 80.1315 96.1337 80.316C92.4824 80.8323 91.8923 75.7425 92.2611 73.1608Z" fill="#FAC9AE"/>
<path d="M98.5311 70.247C97.5721 69.9888 96.4656 70.3576 95.728 71.0215C94.9904 71.6854 94.5478 72.6812 94.3265 73.6401C94.1052 74.6359 94.1052 75.6318 94.0683 76.6645C94.0683 76.9964 94.0683 77.3284 94.1421 77.6603C94.2527 77.9922 94.4371 78.2873 94.7322 78.4348C95.2485 78.6561 95.8755 78.2873 96.2444 77.8816C96.8713 77.1439 97.2033 76.185 97.0926 75.2261C97.0189 74.2671 96.5025 73.3451 95.7649 72.755C96.1337 71.5378 97.3139 70.5051 98.5311 70.247Z" fill="#F5A490"/>
<path d="M93.847 66.2633C93.847 65.2675 93.6626 64.0873 93.2938 62.8702C92.925 61.6531 92.3717 60.4359 91.6341 59.2926C90.8964 58.1492 90.0113 57.1165 89.0892 56.2682C88.1672 55.4199 87.1713 54.7561 86.2493 54.3135C87.7246 55.715 89.458 57.6329 90.8227 59.7721C92.1873 61.985 93.1831 64.3455 93.847 66.2633Z" fill="#9F5A62"/>
<path d="M97.2402 59.735C96.5763 58.2597 95.1748 56.5262 93.3307 55.3829C91.5235 54.2026 89.3474 53.6494 87.7246 53.6863C89.2736 54.1658 91.1915 54.9034 92.925 56.0099C94.6584 57.1163 96.1706 58.5548 97.2402 59.735Z" fill="#9F5A62"/>
<path d="M98.5679 55.6047C97.7934 54.4982 96.3919 53.3549 94.7322 52.7279C93.0725 52.1009 91.2652 51.9902 89.9744 52.3222C91.3021 52.4328 92.9618 52.7279 94.5109 53.318C96.0599 53.9081 97.4984 54.7933 98.5679 55.6047Z" fill="#9F5A62"/>
<path d="M58.5876 56.4533C59.4728 56.5271 60.5055 56.3796 61.4644 56.0476C62.4602 55.7157 63.4192 55.1624 64.3781 54.5354C66.2591 53.2814 67.9926 51.6586 70.058 50.6628C72.0865 49.667 74.447 49.2613 76.5861 49.3719C78.7622 49.4826 80.7538 50.1465 82.3398 50.9947C80.9014 49.9252 78.9097 49.0031 76.623 48.7449C74.3732 48.4499 71.8652 48.8187 69.6523 49.8883C68.5458 50.4046 67.55 51.1423 66.6279 51.8799C65.7059 52.6176 64.8576 53.3552 63.9724 54.0191C62.3127 55.3469 60.4317 56.3427 58.5876 56.4533Z" fill="#9F5A62"/>
<path d="M69.726 46.9747C70.685 46.7903 71.7914 46.6059 72.9348 46.569C74.115 46.5321 75.3322 46.6428 76.5493 46.8641C77.7664 47.0854 78.9466 47.4911 79.9793 47.9337C81.0489 48.4131 82.0078 48.9664 82.8193 49.5196C82.2291 48.7451 81.344 47.9706 80.3113 47.3436C79.2417 46.7166 78.0246 46.2371 76.7337 45.9789C75.4428 45.7207 74.115 45.7207 72.8979 45.9051C71.6808 46.0896 70.5743 46.4953 69.726 46.9747Z" fill="#9F5A62"/>
<path d="M76.328 44.061C77.5451 44.0979 79.0573 44.3561 80.4219 45.0199C81.7866 45.6838 82.9668 46.7165 83.7413 47.6386C83.52 47.0853 83.1512 46.4583 82.598 45.9051C82.0816 45.3519 81.4177 44.8724 80.6801 44.5036C79.9424 44.1348 79.131 43.9135 78.3934 43.8766C77.6189 43.8397 76.9181 43.9135 76.328 44.061Z" fill="#9F5A62"/>
<path d="M82.561 42.6226C82.9299 43.102 83.3724 43.6921 83.7782 44.356C84.1839 45.0199 84.4789 45.7207 84.7371 46.237C84.7002 45.6469 84.442 44.8724 84.0363 44.2085C83.5937 43.5446 83.0405 42.9914 82.561 42.6226Z" fill="#9F5A62"/>
<path d="M53.3871 162.785C53.7928 162.564 54.1985 162.342 54.6042 162.121C54.1985 162.342 53.7928 162.527 53.3871 162.785Z" fill="white"/>
<path d="M112.915 149.028L111.809 165.81L102.293 163.265L92.0028 160.536C87.6507 161.458 81.7127 163.818 78.1351 165.699C77.5819 165.957 76.9918 166.326 76.4016 166.769L98.9736 177.538L110.997 183.292C114.833 185.136 119.259 185.173 123.131 183.403C127.926 181.227 131.135 176.579 131.504 171.305L132.832 151.499L112.915 149.028Z" fill="#FAC9AE"/>
<path d="M112.915 149.028L132.832 151.463L132.389 157.806L112.804 150.946L112.915 149.028Z" fill="#4F2548"/>
<path d="M111.809 165.81L120.107 168.023C117.747 162.085 113.911 162.601 111.882 164.408L111.809 165.81Z" fill="#F5A490"/>
<path d="M135.967 151.868L111.956 148.918L113.395 114.285C113.726 106.577 120.734 100.934 128.295 102.225C134.823 103.331 139.397 109.269 138.88 115.834L135.967 151.868Z" fill="#6A6FB2"/>
<path d="M134.049 146.152C128.774 144.603 120.07 143.496 114.575 143.681C119.849 145.23 128.553 146.336 134.049 146.152Z" fill="#5C4291"/>
<path d="M114.464 122.4C114.944 119.412 115.349 115.577 116.53 111.962C117.12 110.155 117.894 108.458 118.853 106.946C119.812 105.434 120.919 104.143 122.025 103.11C120.66 103.737 119.185 104.807 118.005 106.282C116.788 107.758 115.829 109.565 115.202 111.483C114.575 113.401 114.28 115.392 114.206 117.273C114.095 119.191 114.206 120.924 114.464 122.4Z" fill="#5C4291"/>
<path d="M77.7294 166.99C82.561 160.867 87.3926 154.745 92.2241 148.622C93.1462 147.442 94.142 145.967 93.6994 144.528C93.2568 143.053 91.4127 142.389 89.9374 142.684C88.4253 143.016 87.2082 144.049 86.0648 145.082C81.5283 149.249 77.545 154.044 74.2256 159.245C75.3689 161.531 76.5492 164.74 77.7294 166.99Z" fill="#A13E4C"/>
<path d="M142.237 172.116C143.417 170.604 144.449 168.981 145.187 167.211C144.634 167.58 144.044 167.985 143.49 168.354C145.962 159.687 145.851 150.282 142.642 141.91C141.905 152.015 138.327 161.863 132.463 170.088C126.562 178.312 118.374 184.878 109.079 188.824C107.899 189.34 106.719 189.783 105.502 190.189C105.539 189.377 105.612 188.566 105.649 187.754C104.838 188.898 103.953 189.967 102.957 190.963C97.7934 192.365 92.4085 192.881 87.1713 191.885C85.991 192.77 84.2944 193.84 83.0773 194.725C93.1831 199.962 105.391 200.884 116.161 197.233C116.898 196.975 117.599 196.717 118.337 196.422C122.136 196.311 125.898 195.057 128.959 192.807C127.963 192.807 127.004 192.807 126.008 192.807C128.701 192.033 131.246 190.852 133.532 189.23C132.315 189.303 131.061 189.377 129.844 189.451C133.237 186.611 136.151 183.255 138.511 179.53C140.282 178.276 141.868 176.727 143.085 174.882C142.273 175.141 141.499 175.399 140.687 175.62C140.761 175.436 140.872 175.251 140.946 175.067C141.388 174.145 141.831 173.149 142.237 172.116Z" fill="#D46C67"/>
<path d="M145.187 156.625C143.048 166.879 137.884 176.8 130.692 184.103C131.393 184.103 132.168 183.918 132.868 183.881C131.614 185.32 129.66 186.168 127.742 186.316C124.607 189.34 120.771 192.069 116.677 193.545C117.636 193.655 118.742 193.803 119.738 193.913C117.525 195.167 114.944 195.979 112.399 196.053C113.026 196.385 113.69 196.79 114.317 197.122C112.472 197.712 110.26 197.528 108.526 196.606C102.588 197.454 95.4698 196.975 89.6055 195.684C90.9701 194.688 92.1872 193.582 93.2937 192.328C91.2283 192.364 89.1629 192.217 87.1344 191.811C85.9541 192.696 84.2576 193.766 83.0404 194.651C93.1462 199.888 105.354 200.81 116.124 197.159C116.861 196.901 117.562 196.643 118.3 196.348C122.099 196.237 125.861 194.983 128.922 192.733C127.926 192.733 126.967 192.733 125.971 192.733C128.664 191.959 131.209 190.778 133.495 189.156C132.278 189.229 131.024 189.303 129.807 189.377C133.2 186.537 136.114 183.181 138.475 179.456C140.245 178.202 141.831 176.653 143.048 174.808C142.236 175.067 141.462 175.325 140.651 175.546C140.724 175.362 140.835 175.177 140.909 174.993C141.388 173.997 141.794 173.001 142.2 171.969C143.38 170.456 144.413 168.834 145.15 167.063C144.597 167.432 144.007 167.838 143.454 168.207C144.56 164.518 145.15 160.572 145.187 156.625Z" fill="#BF4F5B"/>
<path d="M71.902 99.9006C73.4142 101.118 75.0001 102.409 75.8853 104.179C77.1024 106.65 76.5492 109.859 74.5944 111.814C71.9389 114.432 67.4024 114.322 64.3043 112.293C61.2061 110.228 59.362 106.687 58.4769 103.072C58.0343 101.339 56.7434 89.2785 59.3989 89.8686C60.3579 90.0899 61.7963 91.7496 62.5339 92.3766C63.5297 93.188 64.5256 93.9625 65.5214 94.7739C67.6237 96.4705 69.7628 98.1671 71.902 99.9006Z" fill="#4F2548"/>
<path d="M108.563 137.631C106.461 137.631 104.912 139.549 103.731 141.319C103.326 141.946 102.883 142.61 102.477 143.237C105.428 143.938 108.231 145.302 110.592 147.22C111.255 146.261 111.846 145.265 112.177 144.159C112.989 141.393 111.44 137.631 108.563 137.631Z" fill="#FBBF69"/>
<path d="M108.379 143.569C108.711 142.868 109.116 142.093 109.633 141.356C110.149 140.618 110.739 139.991 111.255 139.401C110.481 139.475 109.559 140.028 108.969 140.876C108.379 141.761 108.157 142.831 108.379 143.569Z" fill="#F28D6C"/>
<path d="M105.723 141.872C106.055 141.171 106.424 140.397 106.94 139.696C107.457 138.995 108.084 138.368 108.637 137.852C107.862 137.852 106.866 138.368 106.276 139.217C105.686 140.028 105.502 141.135 105.723 141.872Z" fill="#F28D6C"/>
<path d="M93.22 160.276C88.831 160.977 82.0815 163.596 78.1351 165.698C75.8115 158.801 73.4142 152.789 70.5742 146.741C66.6647 138.442 61.4643 130.771 55.1575 124.132C56.854 124.242 58.5875 124.464 60.2841 124.574C61.9069 124.685 63.5666 124.833 65.1894 124.574C66.8122 124.316 68.4351 123.652 69.5047 122.398C70.5742 121.144 71.0537 119.3 70.3529 117.825C69.2834 119.522 67.3655 121.144 65.4845 121.771C63.5666 122.398 61.5381 122.509 59.5096 122.398C55.9689 122.214 52.4282 121.403 49.4407 119.522C46.4532 117.641 44.0928 114.579 43.5764 111.076C43.0601 107.572 45.0886 103.847 48.1498 102.076C46.6745 104.252 46.6008 107.277 47.9654 109.526C49.3301 111.739 52.0962 113.067 54.7149 112.698C57.2966 112.33 59.6202 110.338 60.321 107.793C61.5012 108.973 63.1978 109.711 64.9681 109.858C66.4434 110.006 67.9556 109.748 69.1358 108.973C71.7176 107.314 72.8978 103.736 71.7914 100.859C70.9062 98.4987 68.8039 96.8758 66.9967 95.1424C63.6404 92.0074 60.8373 88.2454 58.735 84.1515C56.7434 80.1682 55.2312 75.6316 51.6168 73.0499C48.3711 70.6894 43.8715 70.4681 40.1095 71.9065C36.3475 73.3449 33.3231 76.2586 31.1102 79.5781C28.8973 82.9343 27.4589 86.6963 26.1311 90.4952C23.6231 97.7979 21.6315 105.285 20.1562 112.846C17.7219 125.349 17.6113 135.897 19.1972 148.548C20.7832 161.199 25.2828 173.702 33.5076 183.439C41.7323 193.175 53.9034 199.888 66.6647 199.999C79.426 200.072 92.3348 192.88 97.5721 181.262C101.924 171.599 101.076 159.76 107.383 151.277C108.415 149.913 109.633 148.622 110.628 147.183C108.268 145.265 105.465 143.901 102.514 143.2C98.9736 148.695 95.8755 154.375 93.22 160.276Z" fill="#F28D6C"/>
<path d="M54.7149 112.662C52.1331 113.03 49.3669 111.74 47.9654 109.49C46.6008 107.277 46.6745 104.216 48.1498 102.04C45.0886 103.81 43.0601 107.535 43.5764 111.039C44.0928 114.543 46.4532 117.604 49.4407 119.485C52.4282 121.366 56.0057 122.177 59.5096 122.362C61.5012 122.472 63.5666 122.362 65.4845 121.735C67.4024 121.108 69.3202 119.522 70.3529 117.788C69.4309 115.391 68.3244 116.129 64.8944 109.822C63.1609 109.637 61.4274 108.9 60.2472 107.756C59.5833 110.301 57.2966 112.293 54.7149 112.662Z" fill="#B03E5A"/>
<path d="M47.4491 87.9141C47.8917 89.7214 47.5228 91.3442 46.6377 91.5655C45.7525 91.7868 44.6829 90.4959 44.2403 88.6887C43.7977 86.8814 44.1665 85.2586 45.0517 85.0373C45.9369 84.816 47.0065 86.1438 47.4491 87.9141Z" fill="#4F2548"/>
<path d="M57.5917 86.2537C57.9605 87.8397 57.7392 89.2781 57.0753 89.4256C56.4114 89.5732 55.5631 88.4298 55.1574 86.8439C54.7886 85.2579 55.0099 83.8195 55.6738 83.672C56.3746 83.5245 57.2229 84.6678 57.5917 86.2537Z" fill="#4F2548"/>
<path d="M35.7205 169.866C38.3023 165.108 39.3719 159.576 39.1506 154.117C38.8555 147.626 36.5688 141.024 31.9216 136.488C28.3072 132.984 23.1068 130.955 18.1277 131.324C18.017 136.893 18.3858 142.5 19.1604 148.585C20.4512 158.802 23.6231 168.944 29.1555 177.575C31.8479 175.546 34.0977 172.854 35.7205 169.866Z" fill="#BF4F5B"/>
<path d="M67.5868 188.934C64.2674 180.156 72.2709 168.575 78.1351 165.699C77.7294 164.482 77.3237 163.338 76.918 162.195C71.9758 163.596 59.5834 174.735 67.5868 188.934Z" fill="#BF4F5B"/>
<path d="M93.847 173.665C90.8964 173.887 87.9458 174.809 85.696 176.69C82.561 179.345 81.1595 183.697 81.307 187.791C81.3808 190.631 82.1184 193.36 83.1142 196.016C89.3842 192.77 94.6215 187.717 97.5352 181.3C98.6048 178.939 99.3793 176.395 100.006 173.85C97.9409 173.628 95.8755 173.518 93.847 173.665Z" fill="#BF4F5B"/>
<path d="M52.797 167.801C50.0308 167.027 46.9696 169.461 45.605 171.637C44.1665 173.924 43.724 176.69 43.8346 179.382C43.9452 181.411 44.3878 183.513 45.6787 185.099C47.5597 187.349 50.8791 188.013 53.7191 187.201C56.559 186.39 58.9932 184.251 60.1366 181.485C61.2799 178.755 61.0955 175.51 59.694 172.891C58.2556 170.309 55.6369 168.613 52.797 167.801Z" fill="#BF4F5B"/>
<path d="M87.7614 168.944C87.9089 169.829 88.5728 170.641 89.458 170.788C90.4907 170.973 91.4496 170.346 92.2242 169.645C92.7774 169.129 93.3306 168.539 93.5888 167.838C94.3265 166.031 92.8512 164.223 91.007 164.924C89.4211 165.514 87.4663 167.063 87.7614 168.944Z" fill="#BF4F5B"/>
<path d="M54.7886 104.696C55.2164 104.696 55.5632 104.349 55.5632 103.921C55.5632 103.493 55.2164 103.146 54.7886 103.146C54.3609 103.146 54.0141 103.493 54.0141 103.921C54.0141 104.349 54.3609 104.696 54.7886 104.696Z" fill="#F28D6C"/>
<path d="M51.9856 106.761C51.9856 107.24 51.6167 107.609 51.1373 107.609C50.6578 107.609 50.289 107.24 50.289 106.761C50.289 106.281 50.6578 105.912 51.1373 105.912C51.5799 105.876 51.9856 106.281 51.9856 106.761Z" fill="#F28D6C"/>
<path d="M55.0468 108.31C55.0468 108.715 54.7148 109.01 54.346 109.01C53.9403 109.01 53.6453 108.678 53.6453 108.31C53.6453 107.904 53.9772 107.609 54.346 107.609C54.7517 107.609 55.0468 107.904 55.0468 108.31Z" fill="#F28D6C"/>
<path d="M66.7385 102.15C66.7385 102.519 66.4434 102.777 66.1115 102.777C65.7795 102.777 65.4845 102.482 65.4845 102.15C65.4845 101.782 65.7795 101.523 66.1115 101.523C66.4434 101.523 66.7385 101.782 66.7385 102.15Z" fill="#F28D6C"/>
<path d="M68.767 105.101C68.767 105.618 68.3613 106.023 67.845 106.023C67.3286 106.023 66.9229 105.618 66.9229 105.101C66.9229 104.585 67.3286 104.179 67.845 104.179C68.3613 104.179 68.767 104.585 68.767 105.101Z" fill="#F28D6C"/>
<path d="M70.3898 101.818C70.3898 102.15 70.0948 102.445 69.7628 102.445C69.4309 102.445 69.1358 102.15 69.1358 101.818C69.1358 101.486 69.4309 101.191 69.7628 101.191C70.0948 101.191 70.3898 101.45 70.3898 101.818Z" fill="#F28D6C"/>
<path d="M59.7309 102.778C60.0628 105.065 59.9522 108.089 59.2145 109.933C59.694 109.269 60.0997 108.531 60.321 107.757C60.9111 108.347 61.6487 108.827 62.4601 109.195C60.1734 107.351 60.4685 105.175 59.7309 102.778Z" fill="#4F2548"/>
<path d="M60.8004 150.429C63.7141 150.688 66.5909 151.315 69.5046 151.683C70.648 151.831 71.7913 151.941 72.8978 151.941C72.1602 150.208 71.3856 148.475 70.5742 146.741C69.9472 145.413 69.2833 144.086 68.5826 142.758C62.6076 144.27 56.9647 147.11 52.0962 150.835C54.9361 150.319 57.8867 150.171 60.8004 150.429Z" fill="#BF4F5B"/>
<path d="M87.6507 127.194C86.5811 127.969 85.6222 128.854 84.7001 129.813C82.7085 131.841 80.8275 134.054 78.467 135.64C76.1066 137.226 73.0085 138.075 70.3529 137.042C67.9187 136.083 66.3328 133.796 64.4887 131.915C62.7183 130.108 60.616 128.633 58.3293 127.563C54.7517 125.903 49.8833 124.797 45.9369 125.719C42.2118 126.604 41.1791 132.284 41.4003 135.456C41.6216 138.96 42.9863 142.242 44.4616 145.451C45.4574 147.627 46.7114 149.951 48.9612 150.688C51.5061 151.537 54.1616 149.951 56.7065 149.139C63.8248 146.853 72.0864 150.283 78.8727 147.184C81.934 145.783 84.2944 143.238 86.5811 140.767C89.2735 137.816 91.966 134.866 94.6584 131.915C93.1093 129.518 90.4907 127.711 87.6507 127.194Z" fill="#F28D6C"/>
<path d="M97.0557 127.674C96.945 126.567 96.0599 125.682 95.0272 125.277C93.9944 124.871 92.8511 124.945 91.7815 125.203C90.2693 125.572 88.9047 126.309 87.6507 127.194C90.4906 127.711 93.1093 129.518 94.6583 131.952C94.8427 131.731 95.064 131.51 95.2484 131.325C96.1705 130.293 97.2032 129.075 97.0557 127.674Z" fill="#FBBF69"/>
<path d="M92.1504 127.895C92.7405 127.563 93.4044 127.231 94.142 126.973C94.8797 126.752 95.6173 126.604 96.2812 126.53C95.7279 126.125 94.769 126.014 93.9207 126.272C93.0355 126.604 92.3717 127.268 92.1504 127.895Z" fill="#F28D6C"/>
<path d="M90.3431 127.01C90.7857 126.715 91.302 126.309 91.8184 126.014C92.3347 125.682 92.888 125.387 93.3674 125.129C92.8511 125.019 92.1134 125.166 91.5233 125.535C90.9332 125.904 90.4906 126.494 90.3431 127.01Z" fill="#F28D6C"/>
<path d="M29.4874 114.395C32.7699 108.937 34.2083 102.556 35.2779 96.2863C36.1631 90.9752 36.7901 85.2585 34.3558 80.5007C33.4338 79.9106 32.4748 79.3942 31.479 79.0254C31.3315 79.2098 31.184 79.4311 31.0733 79.6155C28.8604 82.9718 27.422 86.7338 26.0942 90.5327C23.5862 97.8354 21.5946 105.322 20.1193 112.883C19.3448 116.756 18.8284 120.481 18.4965 124.096C23.0699 122.325 26.9425 118.674 29.4874 114.395Z" fill="#BF4F5B"/>
<path d="M35.5361 84.1895C35.0566 93.8527 32.0691 103.368 26.9425 111.556C25.541 113.769 23.955 115.945 21.7421 117.347C19.0866 119.043 15.6196 119.449 12.6322 118.379C9.64471 117.31 7.21048 114.839 6.21466 111.851C5.40325 109.454 5.62455 106.54 7.43178 104.77C8.57513 103.663 10.1611 103.147 11.6364 102.557C18.2014 99.9014 23.5493 94.4059 26.0204 87.804C26.6843 86.0705 27.1638 84.2264 27.9752 82.5667C28.7497 80.9439 30.8151 77.7352 32.9912 78.104C35.573 78.5834 35.6467 82.3086 35.5361 84.1895Z" fill="#63365C"/>
<path d="M33.0281 78.1411C32.9912 78.1411 32.9912 78.1411 32.9543 78.1411C33.2863 78.5837 33.5445 79.1001 33.7289 79.6164C34.0977 80.8335 34.0608 82.1613 33.9133 83.4522C33.1756 91.5663 30.4095 99.496 25.9098 106.282C24.7296 108.053 23.4387 109.786 21.8159 111.151C20.1931 112.515 18.2014 113.511 16.0623 113.696C13.001 113.954 9.86603 112.331 8.31697 109.675C7.50556 108.274 7.13674 106.651 7.24739 105.028C5.62457 106.799 5.47704 109.602 6.25156 111.888C7.24739 114.876 9.68161 117.347 12.6691 118.417C15.6565 119.486 19.0866 119.08 21.779 117.384C23.9919 115.982 25.5779 113.806 26.9794 111.593C32.106 103.405 35.0935 93.8898 35.573 84.2267C35.6467 82.3088 35.573 78.5837 33.0281 78.1411Z" fill="#4F2548"/>
<path d="M38.7449 75.7423C40.1464 76.4062 41.7692 76.3324 43.3552 76.2955C44.9042 76.2586 46.5639 76.2586 47.9286 76.9963C49.1088 77.6602 49.9571 78.8035 51.1373 79.4674C52.4282 80.1682 54.0879 80.205 55.4156 79.5043C55.7107 79.3568 55.9689 79.1723 56.1902 78.9511C55.0099 76.6643 53.6453 74.5252 51.5799 73.0499C48.3343 70.6894 43.8346 70.4681 40.0726 71.9065C38.8924 72.3491 37.8228 72.9392 36.7901 73.64C37.122 74.5621 37.8597 75.3366 38.7449 75.7423Z" fill="#BF4F5B"/>
<path d="M56.9278 99.3111C56.3008 99.0898 55.6369 99.2004 55.0099 99.4217C54.7149 99.5323 54.4198 99.6799 54.1247 99.8643C55.6 100.602 57.2228 101.118 58.8457 101.376C58.6981 101.045 58.5506 100.749 58.3662 100.454C57.9974 99.9749 57.5179 99.5323 56.9278 99.3111Z" fill="#4F2548"/>
<path d="M64.6362 98.2414C63.8985 98.057 63.0502 98.2045 62.4232 98.684C61.6856 99.2372 61.3168 100.159 61.3906 101.081C62.6077 100.491 63.6772 99.3847 64.6362 98.2414Z" fill="#4F2548"/>
<path d="M62.4232 98.6838C63.0502 98.2043 63.8617 98.0937 64.6362 98.2412C64.7837 98.0568 64.9312 97.8724 65.0419 97.7249C65.4845 97.1716 65.1157 96.3602 64.4149 96.2865C60.8373 96.0283 57.186 96.6922 53.9034 98.1675C53.2027 98.4625 53.2027 99.4583 53.8666 99.7903C53.9403 99.8272 54.0141 99.864 54.0879 99.9009C54.3829 99.7165 54.678 99.569 54.973 99.4583C55.5631 99.237 56.2639 99.1264 56.8909 99.3477C57.481 99.5321 57.9605 100.012 58.2924 100.528C58.4768 100.823 58.6613 101.118 58.7719 101.45C58.8825 101.45 58.9932 101.487 59.067 101.487C59.8415 101.598 60.616 101.45 61.3168 101.081C61.3168 100.159 61.7225 99.237 62.4232 98.6838Z" fill="#63365C"/>
<path d="M62.829 122.288C62.5708 120.96 62.1282 119.706 61.4274 118.563C60.1366 116.46 57.9974 114.911 55.6 114.321C53.2027 113.731 50.5841 114.1 48.4449 115.317C47.7072 115.759 46.9696 116.313 46.527 117.05C47.3753 118.009 48.3711 118.821 49.4407 119.521C50.1415 119.964 50.8422 120.333 51.5799 120.665C51.6536 122.952 53.424 124.869 53.4609 127.156C53.4978 128.336 53.3871 129.553 53.4978 130.734C53.6453 131.914 54.0879 133.131 55.0099 133.906C56.0058 134.717 57.481 134.828 58.6613 134.385C59.8784 133.942 60.8373 132.984 61.5012 131.84C62.1651 130.734 62.497 129.443 62.7183 128.189C63.124 126.271 63.1978 124.206 62.829 122.288Z" fill="#E86265"/>
<path d="M58.6613 128.816C59.1776 127.967 59.5833 126.861 59.8046 125.607C60.0259 124.353 59.989 122.988 59.7677 121.697C59.5096 120.37 59.0301 119.116 58.3662 118.046C57.7023 116.977 56.9278 116.091 56.1164 115.464C56.6696 116.313 57.2597 117.272 57.7392 118.341C58.2187 119.411 58.5875 120.628 58.8457 121.845C59.067 123.062 59.1776 124.316 59.1038 125.496C59.067 126.713 58.8826 127.857 58.6613 128.816Z" fill="#BC4164"/>
<path d="M19.0866 145.45C19.0497 146.851 18.9759 148.548 19.3079 149.913C16.3573 148.179 13.4436 144.343 12.9641 140.95C12.4847 137.557 13.3329 134.09 14.9189 131.066C16.5048 128.041 18.7546 125.423 21.2258 123.062C24.3976 120.038 27.9383 117.383 31.7372 115.243C32.5855 114.764 33.7657 114.358 34.3927 115.059C34.7984 115.502 34.7615 116.202 34.5034 116.719C34.2452 117.235 33.7657 117.641 33.3231 118.009C30.9258 120.001 28.5284 121.993 26.1311 124.021C29.0817 122.325 32.2904 120.923 35.4254 119.595C35.9418 119.374 36.495 119.153 37.0482 119.153C37.6015 119.153 38.2285 119.411 38.4867 119.89C38.7079 120.37 38.5973 120.923 38.3391 121.366C38.081 121.808 37.6384 122.14 37.2327 122.472C33.987 124.98 30.557 127.267 27.0163 129.295C29.8931 127.746 32.9543 126.64 36.0524 125.644C36.9376 125.349 38.081 125.128 38.708 125.829C39.1874 126.345 39.1505 127.193 38.8186 127.783C38.4867 128.41 37.8965 128.853 37.3433 129.222C34.3558 131.361 31.0733 133.094 27.6433 134.385C29.4505 133.795 31.3684 133.389 33.1756 132.799C33.7657 132.615 34.3558 132.43 34.9828 132.467C35.6098 132.504 36.2368 132.836 36.4581 133.389C36.6794 133.98 36.3844 134.717 35.9049 135.16C35.4254 135.602 34.7984 135.824 34.1714 136.045C31.184 137.078 28.1596 138.147 25.1721 139.18C23.66 143.016 19.0866 145.45 19.0866 145.45Z" fill="#FAC9AE"/>
<path d="M36.2368 134.311C35.4623 134.975 34.4665 135.344 33.5076 135.639C30.6307 136.561 27.4957 137.446 24.5083 137.926C24.0288 138.959 23.4756 139.991 22.7379 140.803C21.9634 141.651 20.9676 142.315 19.8611 142.499C18.2752 142.757 16.6155 142.057 15.509 140.84C14.4025 139.659 13.8493 138.073 13.628 136.451C13.5542 135.897 13.5174 135.344 13.5174 134.791C12.9641 136.783 12.7797 138.885 13.0379 140.95C13.5174 144.343 16.4311 148.142 19.3816 149.913C19.0497 148.548 19.1235 146.851 19.1603 145.45C19.1603 145.45 23.7338 143.016 25.2828 139.18C28.2703 138.147 31.2946 137.078 34.2821 136.045C34.9091 135.824 35.5361 135.602 36.0156 135.16C36.3475 134.865 36.6057 134.422 36.6425 133.979C36.4581 134.09 36.3475 134.238 36.2368 134.311Z" fill="#F5A490"/>
<path d="M74.5206 155.852C65.6689 153.971 55.932 155.888 48.4817 161.089C46.9327 162.158 45.4574 163.412 44.6091 165.072C44.4247 165.478 44.3878 165.957 44.646 166.326C45.1255 167.027 46.0106 166.695 46.6376 166.326C48.8875 165.146 51.1373 163.966 53.3502 162.785C50.584 164.335 48.1129 166.474 45.8262 168.65C45.1992 169.24 44.5722 169.904 44.4985 170.826C44.4616 171.268 44.6091 171.711 44.9042 172.006C45.6787 172.744 46.7852 172.227 47.6335 171.711C51.1004 169.572 54.6042 167.47 58.0711 165.33C55.6738 167.433 53.3502 169.793 50.916 171.895C50.5103 172.227 50.1046 172.596 49.8464 173.039C49.5882 173.481 49.4407 174.071 49.662 174.551C49.957 175.215 50.7316 175.51 51.4692 175.436C52.2069 175.362 52.797 174.993 53.424 174.588C56.3008 172.781 58.9932 170.752 61.5381 168.502C59.9521 170.236 58.6981 172.449 57.481 174.477C57.2228 174.883 57.0016 175.289 56.9647 175.768C56.9278 176.247 57.1122 176.764 57.5548 176.948C58.1449 177.206 58.7719 176.764 59.2514 176.358C61.3168 174.477 63.124 172.301 64.5255 169.867C65.7058 169.867 66.9229 169.83 68.1031 169.646C71.0168 169.277 73.8199 168.318 76.2541 166.658L76.4385 166.732C77.0286 166.326 77.6187 165.957 78.172 165.662C81.7496 163.781 87.7245 161.421 92.0397 160.499L74.5206 155.852Z" fill="#FAC9AE"/>
<path d="M146.552 121.551C146.404 121.514 146.589 120.039 146.552 117.605C146.552 117.31 146.552 116.978 146.515 116.646C146.515 116.314 146.478 115.982 146.441 115.613C146.404 114.912 146.294 114.175 146.22 113.363C145.999 111.777 145.63 110.081 145.113 108.311C144.56 106.54 143.933 104.917 143.232 103.479C142.864 102.778 142.568 102.077 142.2 101.487C142.015 101.192 141.868 100.86 141.683 100.602C141.499 100.307 141.351 100.049 141.167 99.7907C139.876 97.7622 138.88 96.6189 138.991 96.5082C139.065 96.4344 140.208 97.4303 141.683 99.4219C141.868 99.6801 142.052 99.9383 142.237 100.196C142.421 100.455 142.605 100.787 142.79 101.082C143.195 101.672 143.564 102.372 143.933 103.11C144.671 104.585 145.372 106.245 145.925 108.052C146.441 109.86 146.81 111.63 146.994 113.253C147.068 114.064 147.142 114.839 147.142 115.576C147.142 115.945 147.179 116.277 147.142 116.609C147.142 116.941 147.105 117.273 147.105 117.568C147.068 120.113 146.662 121.588 146.552 121.551Z" fill="#797E9C"/>
<path d="M148.691 110.45C148.58 110.487 148.064 107.794 146.699 104.77C145.371 101.709 143.749 99.5326 143.859 99.4589C143.896 99.422 144.339 99.9384 144.966 100.86C145.593 101.782 146.367 103.073 147.031 104.622C147.695 106.171 148.138 107.647 148.396 108.716C148.691 109.749 148.728 110.45 148.691 110.45Z" fill="#797E9C"/>
<path d="M24.914 186.205C24.8033 186.279 23.4387 185.062 21.6315 182.739C21.4102 182.443 21.1889 182.148 20.9307 181.816C20.6725 181.485 20.4512 181.153 20.193 180.784C19.6767 180.083 19.1972 179.272 18.6809 178.46C17.685 176.764 16.6892 174.846 15.8409 172.78C14.9926 170.678 14.3288 168.613 13.8493 166.732C13.628 165.773 13.4067 164.888 13.2592 164.002C13.1854 163.56 13.1116 163.154 13.0379 162.748C13.001 162.343 12.9272 161.974 12.8903 161.605C12.5584 158.654 12.6691 156.847 12.8166 156.847C13.001 156.847 13.1485 158.654 13.6649 161.494C13.7386 161.863 13.8124 162.232 13.8862 162.601C13.9599 163.007 14.0706 163.375 14.1443 163.818C14.3288 164.666 14.5501 165.515 14.8082 166.473C15.3246 168.318 15.9885 170.309 16.8368 172.375C17.6851 174.403 18.6071 176.321 19.5292 177.981C20.0086 178.792 20.4512 179.604 20.9307 180.341C21.152 180.71 21.3733 181.042 21.5946 181.374C21.8159 181.706 22.0371 182.001 22.2216 182.333C23.9181 184.693 25.0615 186.095 24.914 186.205Z" fill="#797E9C"/>
<path d="M13.4804 176.284C13.4436 176.321 12.9641 175.731 12.3002 174.698C11.6732 173.665 10.8987 172.153 10.2717 170.383C9.68157 168.612 9.34963 166.953 9.23899 165.736C9.12834 164.518 9.16522 163.781 9.2021 163.781C9.34963 163.781 9.49716 166.768 10.6774 170.235C11.8945 173.739 13.628 176.21 13.4804 176.284Z" fill="#797E9C"/>
<path d="M10.5668 97.0616C10.6037 97.1722 9.60783 97.6517 8.2063 98.795C6.84166 99.9015 5.10819 101.746 4.00173 104.217C2.89526 106.688 2.63708 109.196 2.71085 110.966C2.78461 112.737 3.07967 113.843 2.96903 113.88C2.89526 113.917 2.41579 112.847 2.23138 111.003C2.01009 109.196 2.1945 106.54 3.37473 103.959C4.55497 101.377 6.39908 99.4958 7.91125 98.4262C9.42342 97.3197 10.5299 96.9878 10.5668 97.0616Z" fill="#797E9C"/>
<path d="M3.74355 98.2787C3.81732 98.3156 3.33784 98.9057 2.71084 99.9384C2.3789 100.455 2.08384 101.082 1.7519 101.783C1.45684 102.52 1.12491 103.332 0.903611 104.18C0.682318 105.065 0.534784 105.913 0.46102 106.688C0.387255 107.462 0.350379 108.163 0.387262 108.79C0.424144 109.97 0.534784 110.708 0.46102 110.745C0.424137 110.745 0.16597 110.044 0.0553234 108.827C-0.0184411 108.237 -0.0184411 107.499 0.0553234 106.688C0.129088 105.876 0.239728 104.991 0.497904 104.106C0.75608 103.221 1.05114 102.373 1.41996 101.635C1.78878 100.897 2.1576 100.27 2.48955 99.7909C3.15343 98.7582 3.70667 98.2418 3.74355 98.2787Z" fill="#797E9C"/>
<path d="M135.524 193.066C135.413 192.955 136.409 191.922 137.884 190.189C138.622 189.304 139.433 188.234 140.319 187.017C141.167 185.763 142.089 184.398 142.937 182.886C143.786 181.374 144.523 179.862 145.113 178.497C145.703 177.096 146.183 175.842 146.552 174.772C147.289 172.596 147.658 171.231 147.806 171.268C147.916 171.305 147.769 172.707 147.142 174.957C146.847 176.063 146.404 177.391 145.851 178.829C145.261 180.268 144.56 181.78 143.675 183.329C142.79 184.878 141.868 186.279 140.946 187.533C140.024 188.75 139.138 189.82 138.327 190.668C136.741 192.254 135.598 193.139 135.524 193.066Z" fill="#797E9C"/>
<path d="M142.163 190.041C142.052 189.93 144.302 187.385 146.183 183.623C148.101 179.898 148.802 176.542 148.986 176.579C149.06 176.579 148.949 177.427 148.58 178.792C148.248 180.12 147.584 181.964 146.625 183.845C145.667 185.726 144.56 187.312 143.675 188.381C142.827 189.488 142.2 190.078 142.163 190.041Z" fill="#797E9C"/>
<path d="M24.287 69.1419C26.9794 66.8184 28.676 63.3514 28.676 59.5157C28.676 52.4711 22.9592 46.7544 15.9147 46.7544C8.8702 46.7544 3.15344 52.4711 3.15344 59.5157C3.15344 66.5602 8.8702 72.2769 15.9147 72.2769C17.1318 72.2769 18.3121 72.0925 19.4554 71.7606C22.701 75.4857 28.3072 76.5184 28.3072 76.5184C26.1311 74.453 24.914 71.318 24.287 69.1419Z" fill="#C6E6ED"/>
<path d="M21.7052 55.1268C20.1193 53.7253 17.6851 53.9097 16.1729 55.4219L15.9147 55.68L15.6565 55.4219C14.1444 53.9097 11.7101 53.7622 10.1242 55.1268C8.39072 56.639 8.31696 59.3314 9.93978 60.9173L10.2717 61.2493L14.2181 65.1957C15.1402 66.1177 16.6524 66.1177 17.5744 65.1957L21.5208 61.2493L21.8528 60.9173C23.5125 59.3314 23.4756 56.6759 21.7052 55.1268Z" fill="#E86265"/>
</svg>
