<svg width="137" height="200" viewBox="0 0 137 200" fill="none" xmlns="http://www.w3.org/2000/svg">
<path d="M126.534 181.102H16.1527C2.63573 169.449 -3.21174 149.152 1.74589 132.034C6.36454 115.974 19.5002 102.119 18.6951 85.4236C17.9747 71.0168 6.74591 58.3049 7.84761 43.8981C8.44083 36.271 12.7205 29.0252 19.1188 24.8727C25.5171 20.7201 33.8646 19.7455 41.068 22.2879C48.1867 24.8303 53.7799 30.4659 58.6104 36.271C63.4409 42.0761 67.9324 48.3473 73.9494 52.9659C79.9663 57.5846 88.0172 60.3388 95.1782 57.9235C100.814 56.0168 105.305 51.1862 111.195 50.254C118.61 49.0676 125.729 54.8727 128.356 61.9066C130.983 68.9405 130.051 76.7371 128.399 84.0676C126.746 91.3558 124.416 98.6439 124.331 106.102C124.204 114.703 127.043 123.008 130.009 131.059C132.975 139.11 136.153 147.246 136.746 155.805C137.339 164.364 133.102 175.551 126.534 181.102Z" fill="#F8C6C9"/>
<path d="M86.5766 48.4745C91.9155 49.7033 97.8477 49.788 102.551 46.9491C107.594 43.9406 110.348 37.8812 110.263 32.0338C110.178 26.1863 107.466 20.5507 103.61 16.1439C99.7545 11.7371 94.7969 8.38969 89.6274 5.63545C85.2206 3.26256 80.5596 1.18629 75.602 0.381201C67.1697 -1.01711 56.4494 1.18629 55.3053 11.1016C54.7968 15.4236 55.6867 19.9999 57.3816 23.8982C60.7714 31.6948 66.5765 38.4321 73.6952 43.0084C77.6782 45.5507 82.0003 47.4575 86.5766 48.4745Z" fill="#F8C6C9"/>
<path d="M7.25439 183.771C7.25439 185.212 8.44087 186.398 9.88155 186.398H16.8307C19.9663 186.398 22.9748 187.712 25.1358 189.958L25.5172 190.339C27.6782 192.627 30.6867 193.898 33.8223 193.898H42.5511C45.4324 193.898 48.229 195 50.3477 196.949C52.4663 198.941 55.263 200 58.1443 200H84.8816C87.763 200 90.5596 198.898 92.6783 196.949C94.7969 194.958 97.5935 193.898 100.475 193.898H109.204C112.339 193.898 115.348 192.585 117.509 190.339L117.89 189.958C120.051 187.67 123.06 186.398 126.195 186.398H133.144C134.585 186.398 135.772 185.212 135.772 183.771C135.772 182.331 134.585 181.144 133.144 181.144H9.92391C8.44086 181.102 7.25439 182.288 7.25439 183.771Z" fill="#48284F"/>
<path d="M59.7967 59.45C55.6018 59.8738 51.2374 58.0517 48.5255 54.8314C45.8136 51.611 44.8391 46.9924 45.9831 42.9246C44.3729 41.5687 43.356 39.45 43.356 37.3314C43.356 35.2127 44.2882 33.1364 45.8984 31.7381C44.373 28.5602 45.1357 24.45 47.2119 21.6534C49.2882 18.8568 53.017 17.3313 56.4916 17.8822C57.8052 15.1703 60.6441 12.7974 63.6102 12.2042C66.5764 11.611 69.7543 12.5008 72.0001 14.5347C74.5425 12.7127 78.1018 12.2042 81.1103 13.0517C84.1188 13.9415 86.6612 16.2296 87.8052 19.111C91.2798 18.6873 95.1781 20.3822 97.1273 23.2635C99.0764 26.1449 99.2459 30.128 97.5934 33.1788C100.517 35.0856 102.297 38.6025 102.254 42.0771C102.212 45.5517 100.348 48.9839 97.4239 50.8483C98.4408 54.4924 96.9154 58.8144 93.9069 61.1026C90.8984 63.3907 86.4917 63.645 83.2289 61.7382C81.7459 63.8568 79.1188 64.789 76.5764 64.5772C74.034 64.3653 71.6611 62.6704 70.5594 60.3399C69.4154 61.8653 67.3391 62.8399 65.4323 62.7551C63.5255 62.628 60.7713 61.1026 59.7967 59.45Z" fill="#48284F"/>
<path d="M48.2713 22.5429C50.517 20.1276 54.1611 19.1107 57.2967 20.0005C58.1442 17.1615 60.7289 15.1276 63.6103 14.492C66.4916 13.8564 69.6696 14.831 71.6611 17.0344C73.9916 15.6785 76.9578 14.9157 79.6272 15.2547C82.2967 15.6361 85.8985 17.1615 87.8052 19.1107C86.6188 16.2293 84.0764 13.9412 81.1103 13.0513C78.1018 12.1615 74.5425 12.7123 72.0001 14.5344C69.7544 12.5429 66.5764 11.653 63.6103 12.2039C60.6442 12.7547 57.8052 15.17 56.4916 17.8818C53.0171 17.331 49.3306 18.8564 47.212 21.653C45.1357 24.4497 44.373 28.6022 45.8984 31.7378C44.8391 28.6446 46.0255 24.9581 48.2713 22.5429Z" fill="#63446D"/>
<path d="M97.5934 33.1787C100.559 39.0262 100.093 45.8906 94.7968 49.4499C95.5595 52.5431 94.2459 56.0177 91.6188 57.8398C88.9917 59.6618 85.3476 59.577 82.7205 57.755C79.6696 59.4923 76.0255 60.2126 72.5086 59.7465C68.9916 59.2804 65.0933 57.3313 62.5509 54.8736C58.9068 55.8906 54.7967 55.1703 51.7035 52.9245C48.6526 50.6787 46.1102 46.738 45.9831 42.9245C44.839 46.9923 45.8136 51.5686 48.5255 54.8313C51.2373 58.0516 55.6018 59.8313 59.7967 59.4499C60.7712 61.1025 63.5255 62.6279 65.4323 62.7126C67.3391 62.8398 69.4153 61.8228 70.5594 60.2974C71.6187 62.6279 73.9916 64.2804 76.5764 64.5347C79.1188 64.7465 81.7459 63.8143 83.2289 61.6957C86.4916 63.6448 90.8984 63.3906 93.9069 61.0601C96.9154 58.772 98.4832 54.4499 97.4239 50.8059C100.348 48.9414 102.254 45.5092 102.254 42.0347C102.297 38.6024 100.475 35.1279 97.5934 33.1787Z" fill="#2F1B36"/>
<path d="M92.8475 34.7038C92.5086 33.3055 91.7035 31.8648 90.517 30.8055C90.2204 30.5512 89.9238 30.3394 89.6272 30.1275C89.8391 28.8987 89.712 27.458 89.1611 26.0173C88.5255 24.3648 87.2967 22.797 85.6866 21.8224C84.034 20.8478 82.0848 20.4665 80.3475 20.6783C78.6102 20.8902 77.0848 21.6105 76.0679 22.5427C77.3391 21.9919 78.8221 21.6529 80.3899 21.6529C81.9577 21.6953 83.6102 22.0766 85.0085 22.9241C86.4069 23.7716 87.551 25.0427 88.2713 26.4411C88.9069 27.5851 89.2882 28.8563 89.4153 30.0004C88.4408 29.4495 87.3815 29.1105 86.3222 28.9834C84.8815 28.8563 83.4832 29.1529 82.5086 29.7038C83.6527 29.4919 84.9238 29.4919 86.195 29.7885C87.4662 30.0851 88.7798 30.6783 89.7967 31.5682C90.8137 32.458 91.6188 33.6444 92.0849 34.8733C92.551 36.1021 92.7205 37.3733 92.7205 38.5173C93.1018 37.5428 93.2289 36.1445 92.8475 34.7038Z" fill="#63446D"/>
<path d="M67.0425 21.7374C65.6018 21.3561 63.9493 21.3137 62.4238 21.8645C60.8984 22.373 59.5848 23.4323 58.7374 24.6188C57.9323 25.7205 57.4662 26.9493 57.3815 28.051C56.4069 28.1357 55.4323 28.4323 54.5425 28.8985C53.1866 29.6188 52.1272 30.8052 51.4916 32.034C50.856 33.3052 50.6442 34.6188 50.7289 35.7205C50.9832 34.6612 51.4069 33.4747 52.1696 32.4578C52.8899 31.3985 53.8645 30.4663 55.0509 29.8307C56.195 29.1951 57.551 28.8985 58.8221 28.8561C60.0933 28.8137 61.3221 29.0679 62.3391 29.4493C61.4916 28.7713 60.2628 28.2205 58.8221 28.0934C58.3984 28.051 57.9323 28.051 57.4662 28.0934C57.8899 27.1188 58.5255 26.0595 59.373 25.1696C60.3052 24.1951 61.4917 23.39 62.8052 22.9239C64.1188 22.4578 65.5594 22.373 66.873 22.5849C68.1866 22.7544 69.4154 23.2629 70.4323 23.8137C69.6273 22.9239 68.4408 22.1612 67.0425 21.7374Z" fill="#63446D"/>
<path d="M114.331 144.45L106.746 71.187H92.9325C91.8732 73.9836 90.0087 76.526 87.5511 78.0514C84.7969 79.7887 81.3223 80.2548 78.3138 79.026C75.6443 77.9667 73.4833 75.4667 72.763 72.5853H63.6528C56.9579 72.5853 51.068 77.1616 49.4579 83.687L44.2036 104.873L55.9833 110.467L52.2121 144.492H114.331V144.45Z" fill="#43AAC2"/>
<path d="M66.5341 93.7728C66.5341 93.7728 64.5426 81.3151 68.568 72.5439H64.7544C60.729 81.2728 62.7205 93.7728 62.7205 93.7728H66.5341Z" fill="#435377"/>
<path d="M98.568 92.3743C98.568 92.3743 96.5765 79.9167 100.602 71.1455H96.7884C92.763 79.8743 94.7545 92.3743 94.7545 92.3743H98.568Z" fill="#435377"/>
<path d="M94.7544 92.3741H98.568C98.568 92.3741 98.3561 91.0182 98.229 88.9419C96.9578 89.1538 95.729 89.408 94.4578 89.6199C94.5849 91.3571 94.7544 92.3741 94.7544 92.3741Z" fill="#48284F"/>
<path d="M62.3816 90.5098C62.5087 92.5013 62.7205 93.7725 62.7205 93.7725H66.5341C66.5341 93.7725 66.3646 92.6284 66.1952 90.764C64.924 90.764 63.6528 90.6793 62.3816 90.5098Z" fill="#48284F"/>
<path d="M52.2968 144.451L57.5086 97.7558C59.3731 96.9507 60.7713 94.7897 61.4493 93.5185C61.7883 92.9253 62.4239 92.5863 63.1019 92.6287C73.1442 93.3914 90.39 92.4168 98.6104 90.9762C99.3307 90.849 100.051 91.188 100.39 91.8236C103.102 96.8236 106.619 100.468 110.009 102.205L114.373 144.451H52.2968Z" fill="#435377"/>
<path d="M104.076 97.3319C105.941 99.5353 107.975 101.188 109.966 102.205L114.331 144.451L107.932 82.459L105.348 90.4251C104.627 92.6709 104.204 95.0014 104.076 97.3319Z" fill="#00829A"/>
<path d="M54.5849 123.772L52.2968 144.45L54.5849 123.772Z" fill="white"/>
<path d="M104.076 97.3315C104.034 97.8824 104.034 98.4756 104.034 99.0265L104.331 113.687L88.3561 106.696L75.39 112.416L54.5425 123.772L52.2544 144.45H114.288L109.924 102.204C107.975 101.187 105.983 99.5349 104.076 97.3315Z" fill="#48284F"/>
<path d="M66.1103 96.6114L63.2714 96.4419C62.8053 96.3995 62.4663 96.0181 62.5086 95.5944C62.551 95.1283 62.9324 94.7893 63.3561 94.8317L66.1951 95.0012C66.6612 95.0436 67.0002 95.4249 66.9578 95.8487C66.9578 96.2724 66.5764 96.6114 66.1103 96.6114Z" fill="#797E9C"/>
<path d="M95.4748 95.2134L98.3137 95.0439C98.7798 95.0016 99.1188 94.6202 99.0765 94.1965C99.0341 93.7304 98.6527 93.3914 98.229 93.4338L95.39 93.6032C94.9239 93.6456 94.5849 94.027 94.6273 94.4507C94.6273 94.9168 95.0087 95.2558 95.4748 95.2134Z" fill="#797E9C"/>
<path d="M56.068 110.424L59.0765 83.4751C57.1274 85.0853 55.8138 87.2887 55.3477 89.7463L51.746 108.348L56.068 110.424Z" fill="#00829A"/>
<path d="M93.6952 75.4665C92.6782 77.2038 91.1528 78.8563 89.2036 80.0428C87.2545 81.2292 84.8816 81.8648 82.4663 81.78C80.0511 81.6953 77.7206 80.975 75.7291 79.7461C73.7376 78.5597 72.1697 76.9495 70.9409 75.3394C71.5765 77.2038 72.8901 79.28 74.8816 80.8902C75.8986 81.6953 77.0426 82.3733 78.3138 82.8394C79.585 83.3055 80.9833 83.6021 82.3392 83.6445C83.7376 83.6868 85.1359 83.475 86.407 83.0512C87.7206 82.6275 88.9071 81.9495 89.924 81.1868C92.0427 79.619 93.3138 77.4156 93.6952 75.4665Z" fill="#00829A"/>
<path d="M90.2629 85.0009C89.2036 85.2975 87.9748 85.5517 86.6612 85.7212C85.3477 85.8907 83.9494 85.9755 82.5511 85.9755C81.1528 85.9331 79.7545 85.7636 78.4833 85.5094C77.1697 85.2551 75.9833 84.9161 74.924 84.5771C75.8138 85.2127 76.9579 85.8483 78.2714 86.2721C79.585 86.6958 81.0257 86.9924 82.5087 87.0348C83.9918 87.0772 85.4748 86.8653 86.7884 86.5263C88.1443 86.1449 89.3307 85.5941 90.2629 85.0009Z" fill="#00829A"/>
<path d="M78.3561 79.026C81.3222 80.2125 84.8392 79.7464 87.5935 78.0514C90.0511 76.4836 91.9155 73.9836 92.9748 71.187H89.6273L83.6528 54.0684L73.3985 66.865L75.4324 72.5853H72.8053C73.5256 75.4667 75.6866 77.9243 78.3561 79.026Z" fill="#D46C67"/>
<path d="M79.7121 69.0258C81.6189 67.6275 82.9325 65.4665 83.5681 63.1784C84.2037 60.8902 84.2036 58.475 83.907 56.1021C83.8223 55.4665 83.6952 54.8309 83.5681 54.1953L73.4409 66.8648L74.7545 70.5936C76.4918 70.636 78.2714 70.0428 79.7121 69.0258Z" fill="#48284F"/>
<path d="M131.28 120.637L127.043 109.069L111.11 113.052L131.28 120.637Z" fill="#BF4F5B"/>
<path d="M127.043 109.069L127.763 111.103L118.865 115.976L111.11 113.052L127.043 109.069Z" fill="#48284F"/>
<path d="M106.958 71.188H106.746L105.178 75.8914C103.695 80.4253 103.526 85.2982 104.797 89.8745L111.068 113.052L130.687 108.137L120.729 80.7643C118.61 75.0016 113.144 71.188 106.958 71.188Z" fill="#43AAC2"/>
<path d="M127.551 104.875C125.263 105.256 122.339 105.977 119.458 106.782C116.577 107.587 113.695 108.434 111.534 109.282C113.865 109.155 116.831 108.646 119.755 107.841C122.678 107.036 125.517 105.977 127.551 104.875Z" fill="#00829A"/>
<path d="M74.0766 79.5765C72.3816 79.3222 70.5596 79.746 69.2037 80.7629L70.0088 87.4578L76.6613 85.8053L74.0766 79.5765Z" fill="#E86265"/>
<path d="M73.2715 84.4495C72.0427 84.7461 70.8562 83.941 70.6867 82.7122L70.3054 80.1274C69.924 80.2969 69.5427 80.5088 69.2037 80.763L70.0088 87.458L76.6613 85.8054L75.8986 83.9834C74.9664 84.1105 74.1189 84.2376 73.2715 84.4495Z" fill="#BC4164"/>
<path d="M82.5088 93.39C82.5088 93.39 89.6698 105.254 93.2291 117.458C93.8223 119.576 92.5935 121.78 90.4325 122.288L79.5427 124.958C77.4664 125.466 75.3901 124.195 74.8817 122.161C73.2291 115.509 70.4325 102.882 69.8393 96.3137C68.1443 95.7629 67.085 93.6019 67.1274 91.8646C67.1274 90.0849 68.102 88.4324 69.4579 87.2883C70.8138 86.1442 72.5088 85.5086 74.2461 85.1273C76.28 84.7036 78.5257 84.6188 80.3054 85.7205C82.5935 87.0764 83.7376 91.0595 82.5088 93.39Z" fill="#FED06D"/>
<path d="M78.9071 121.526C77.2546 114.873 73.0596 101.102 72.4664 94.5344C70.7715 93.9836 69.7122 91.8226 69.7545 90.0853C69.7545 88.5598 70.4749 87.0768 71.5766 85.9751C70.8139 86.3141 70.1359 86.7378 69.5003 87.2463C68.1444 88.3904 67.1698 90.0853 67.1698 91.8226C67.1698 93.6022 68.2291 95.7209 69.8817 96.2717C70.4749 102.84 73.2291 115.467 74.9241 122.119C75.4325 124.153 77.5088 125.424 79.5851 124.916L81.958 124.323C80.5173 124.111 79.2885 123.051 78.9071 121.526Z" fill="#F6A75D"/>
<path d="M98.2715 107.84L90.8986 98.6871C89.3731 96.7803 86.8731 95.8905 84.5003 96.4413C80.7291 97.2888 77.1697 99.0261 74.2036 101.484C73.5256 102.035 72.8901 102.67 72.8053 103.602C72.763 103.984 72.9325 104.407 73.2291 104.662C73.7799 105.17 74.5002 104.916 75.1358 104.662C78.1443 103.475 81.1528 102.246 84.1189 101.06C80.7714 102.585 77.3392 104.111 74.4579 106.441C73.8647 106.95 73.229 107.501 73.1443 108.306C73.1019 108.687 73.1867 109.111 73.4833 109.407C74.0765 110.043 75.0087 109.704 75.7291 109.407C76.9579 108.857 78.1867 108.306 79.4155 107.797C81.8308 106.738 84.2884 105.679 86.7036 104.577C83.7375 106.102 80.7715 107.585 77.8477 109.111C77.2121 109.45 76.5341 109.789 76.0257 110.34C75.5172 110.89 75.2206 111.653 75.4748 112.374C75.7714 113.221 76.7036 113.645 77.5511 113.645C78.4409 113.645 79.246 113.263 80.0511 112.882C82.6358 111.653 85.263 110.424 87.8477 109.196C86.0681 110.213 84.246 111.272 82.4663 112.289C81.9579 112.585 81.407 112.882 81.0681 113.391C80.7291 113.857 80.6019 114.577 80.9833 115.043C81.2799 115.424 81.7884 115.552 82.2969 115.509C82.763 115.467 83.2291 115.255 83.6528 115.043C85.4325 114.196 87.2121 113.348 89.0341 112.458C89.7121 113.475 90.7291 114.111 91.9579 114.365C93.1443 114.619 94.4155 114.577 95.6019 114.535L117.043 130.467C120.517 133.052 125.263 133.221 128.907 130.806C131.068 129.407 132.382 126.992 132.382 124.407C132.382 121.102 130.221 118.136 127.085 117.119L98.2715 107.84Z" fill="#D46C67"/>
<path d="M129.755 130.043C126.534 131.145 122.975 130.636 120.136 128.73L96.5342 112.797C95.3477 113.052 94.1189 113.263 92.9325 113.094C91.746 112.924 90.5596 112.162 90.0511 111.06C88.0596 112.035 86.0681 113.009 84.0765 113.984C83.4409 114.28 82.8054 114.577 82.1274 114.619C81.6613 114.619 81.1528 114.492 80.8138 114.153C80.7715 114.492 80.8138 114.789 81.0257 115.043C81.3223 115.424 81.8308 115.552 82.3393 115.509C82.8054 115.467 83.2714 115.255 83.6952 115.043C85.4748 114.196 87.2545 113.348 89.0766 112.458C89.7545 113.475 90.7714 114.111 92.0003 114.365C93.1867 114.619 94.4579 114.577 95.6444 114.535L117.085 130.467C120.56 133.052 125.305 133.221 128.949 130.806C129.373 130.552 129.755 130.255 130.094 129.916L129.755 130.043Z" fill="#BF4F5B"/>
<path d="M110.051 73.73C109.077 74.3656 108.06 75.2554 107.212 76.3995C106.322 77.5435 105.644 78.9419 105.178 80.4249C104.712 81.908 104.543 83.4758 104.627 84.9164C104.712 86.3571 105.051 87.6707 105.517 88.73C105.39 87.5859 105.348 86.2724 105.475 84.9164C105.56 83.5605 105.856 82.1198 106.238 80.7639C106.661 79.3656 107.255 78.052 107.933 76.8656C108.568 75.6791 109.331 74.6198 110.051 73.73Z" fill="#00829A"/>
<path d="M53.4408 43.9831C54.0764 49.0679 54.7544 54.2374 56.8306 58.8984C58.9069 63.5594 62.6781 67.7543 67.6357 69.1103C72.0001 70.2967 76.873 69.0255 80.3476 66.1865C83.8222 63.3052 85.9832 58.9408 86.4493 54.4492C87.8476 55.4238 90.0934 55.1272 91.4917 54.195C92.89 53.2628 93.7375 51.6103 93.9069 49.9577C94.0341 48.6442 93.7375 47.2458 92.89 46.1865C92.085 45.1272 90.6866 44.4916 89.3731 44.7458C88.0595 45.0001 87.0002 46.017 86.407 47.2458C85.8137 48.4747 85.6443 49.8306 85.5171 51.1442C84.0765 50.0848 83.0171 48.178 83.229 46.3984C81.2798 46.1441 79.2883 45.1272 78.2714 43.4323C77.2544 41.7374 77.0849 39.534 77.8052 37.7119C76.0679 38.6441 73.6527 38.7289 71.7883 38.1357C69.9239 37.5424 68.3137 36.1865 67.3815 34.4492C66.5764 35.9323 65.2629 37.2882 63.6527 37.8391C62.0425 38.3475 60.2628 38.2628 58.6951 37.5424C58.7798 39.0255 58.4832 40.7628 57.4662 41.8645C56.534 42.9238 54.9238 43.856 53.4408 43.9831Z" fill="#D46C67"/>
<path d="M90.1358 46.9917C88.8222 47.7968 87.9747 49.3222 87.9324 50.8476C87.9324 51.3561 87.9747 51.8646 88.3561 52.2036C88.6951 52.5002 89.2036 52.5426 89.6273 52.3731C90.051 52.2036 90.3477 51.8646 90.6019 51.4832C90.8138 51.1019 90.9832 50.6781 90.9408 50.2544C90.8985 49.8307 90.6866 49.3646 90.3052 49.1527C89.9239 48.9409 89.4155 48.9832 89.0765 49.2798C89.1612 48.4747 89.5849 47.5002 90.1358 46.9917Z" fill="#BF4F5B"/>
<path d="M76.3646 46.8642C73.6951 46.5676 71.0679 46.271 68.3984 45.9744C68.7798 45.2117 69.5001 44.4913 70.2629 44.11C71.0256 43.771 71.9154 43.6862 72.7205 43.8557C74.1611 44.2795 75.39 45.7202 76.3646 46.8642Z" fill="#48284F"/>
<path d="M55.3476 48.6444C56.7883 48.0511 58.1866 47.5003 59.6273 46.9071C59.2459 46.3139 58.7798 45.8054 58.1442 45.5935C57.4239 45.3816 56.5764 45.763 56.1103 46.3986C55.6019 46.9918 55.5171 47.8816 55.3476 48.6444Z" fill="#48284F"/>
<path d="M72.0849 52.3728C72.0849 53.305 71.5341 54.0253 70.8561 54.0253C70.1781 54.0253 69.6273 53.2626 69.6273 52.3728C69.6273 51.4406 70.1781 50.7202 70.8561 50.7202C71.5341 50.7202 72.0849 51.4829 72.0849 52.3728Z" fill="#48284F"/>
<path d="M60.0087 52.5846C60.1781 53.3897 59.8392 54.1524 59.246 54.2796C58.6528 54.4067 58.0171 53.8558 57.8476 53.0508C57.6782 52.2457 58.0172 51.483 58.6104 51.3558C59.2036 51.1863 59.8392 51.7372 60.0087 52.5846Z" fill="#48284F"/>
<path d="M67.3391 57.1187C66.0256 57.2458 64.712 57.2881 63.3984 57.2881C63.6527 58.0509 64.5425 58.6865 65.39 58.6441C66.1527 58.6441 67.0849 57.9237 67.3391 57.1187Z" fill="#BF4F5B"/>
<path d="M74.3307 60.5513C71.2374 61.7801 68.0595 62.6699 64.7544 63.1784C65.8561 63.814 67.0425 64.4919 68.3137 64.7462C69.5849 65.0004 70.9408 64.8733 72.0425 64.1953C73.1442 63.4326 73.8646 61.8225 74.3307 60.5513Z" fill="white"/>
<path d="M73.9917 65.3813C72.6357 65.7203 71.2798 66.1017 69.9239 66.4407C70.5595 66.7797 71.5341 66.9491 72.2544 66.7797C72.9324 66.5678 73.568 65.9746 73.9917 65.3813Z" fill="#BF4F5B"/>
<path d="M82.89 55.6356C83.229 56.9068 81.6612 58.3899 79.4154 59.0255C77.1697 59.6187 75.051 59.1102 74.7121 57.839C74.3731 56.5679 75.9408 55.0848 78.1866 54.4492C80.4324 53.8136 82.551 54.3645 82.89 55.6356Z" fill="#F0869C"/>
<path d="M59.2883 60.2542C60.435 60.2542 61.3646 59.4574 61.3646 58.4745C61.3646 57.4916 60.435 56.6948 59.2883 56.6948C58.1416 56.6948 57.212 57.4916 57.212 58.4745C57.212 59.4574 58.1416 60.2542 59.2883 60.2542Z" fill="#F0869C"/>
<path d="M59.4578 38.9831C60.8561 39.7458 62.7628 40.0001 64.2459 39.4069C65.7289 38.7713 66.873 37.4577 67.2968 35.9323C67.3815 37.2035 68.229 38.4323 69.2883 39.1526C70.3476 39.8306 71.6612 40.0848 72.89 40.0001C74.1612 39.9153 75.39 39.4916 76.534 38.9831C75.9832 40.7628 76.4493 42.8814 77.5934 44.3645C78.7374 45.8052 81.1951 46.6102 83.2713 46.3984C81.3222 46.1441 79.3307 45.1272 78.3137 43.4323C77.2968 41.7374 77.1273 39.534 77.8476 37.7119C76.1104 38.6441 73.6951 38.7289 71.8307 38.1357C69.9662 37.5424 68.3561 36.1865 67.4239 34.4492C66.6188 35.9323 65.3052 37.2882 63.6951 37.8391C62.0849 38.3475 60.3052 38.2628 58.7374 37.5424C58.8222 39.0255 58.5256 40.7628 57.5086 41.8645C56.5341 42.9662 54.9238 43.9408 53.4408 44.0255C53.4832 44.4916 53.5679 44.9577 53.6103 45.4238C55.2205 45.4238 57.0425 44.8306 58.1442 43.6018C59.2036 42.2882 59.712 40.5933 59.4578 38.9831Z" fill="#BF4F5B"/>
<path d="M111.322 187.966H28.907C27.89 187.966 27.0002 187.246 26.7883 186.229L19.8815 151.356H120.348L113.441 186.229C113.229 187.246 112.339 187.966 111.322 187.966Z" fill="#00A1D2"/>
<path d="M105.771 151.356H19.8815L20.8985 156.483H91.7037C98.4409 156.483 103.526 162.67 102.212 169.28L98.8647 186.229C98.6528 187.246 97.8054 187.966 96.746 187.966H111.322C112.339 187.966 113.229 187.246 113.441 186.229L120.348 151.356H105.771Z" fill="#006797"/>
<path d="M29.8392 166.398L31.9154 176.949C32.3815 179.364 34.5002 181.101 36.9578 181.101H40.1358C41.7036 181.101 42.89 179.745 42.6782 178.22L41.3222 167.839C40.9832 165.296 38.8222 163.347 36.2375 163.347H32.3392C30.7714 163.347 29.5425 164.83 29.8392 166.398Z" fill="#3CBCD5"/>
<path d="M16.8307 144.449L14.8392 147.881H125.687L123.695 144.449H16.8307Z" fill="#00A1D2"/>
<path d="M16.8307 151.356H123.695L125.687 147.881H14.8392L16.8307 151.356Z" fill="#0085B6"/>
<path d="M111.365 101.272C111.365 99.3232 109.797 97.7554 107.848 97.7554C105.899 97.7554 104.331 99.3232 104.331 101.272C104.331 102.544 105.009 103.688 106.068 104.281C105.814 104.662 105.644 105.128 105.644 105.637C105.644 107.035 106.746 108.137 108.144 108.137C109.543 108.137 110.644 107.035 110.644 105.637C110.644 105.001 110.39 104.408 110.009 103.984C110.856 103.349 111.365 102.374 111.365 101.272Z" fill="#E0F1F5"/>
<path d="M32.6358 122.882C33.6951 121.865 34.3731 120.424 34.3731 118.814C34.3731 116.06 32.3816 113.772 29.7968 113.263C29.9239 113.009 29.9663 112.713 29.9663 112.458C29.9663 112.162 29.9239 111.907 29.7968 111.653C31.7883 111.526 33.3137 109.874 33.3137 107.882C33.3137 105.806 31.6189 104.111 29.5426 104.111C27.4663 104.111 25.7714 105.806 25.7714 107.882C25.7714 108.941 26.1951 109.916 26.9154 110.594C26.2375 110.933 25.7714 111.653 25.7714 112.458C25.7714 112.967 25.9409 113.391 26.2375 113.772C24.3731 114.704 23.1019 116.611 23.1019 118.814C23.1019 121.145 24.5002 123.094 26.4917 123.984C26.068 124.662 25.7714 125.467 25.7714 126.314C25.7714 128.687 27.6782 130.594 30.051 130.594C32.4239 130.594 34.3307 128.687 34.3307 126.314C34.3731 124.916 33.6951 123.645 32.6358 122.882Z" fill="#E0F1F5"/>
<path d="M24.2883 118.179C24.1188 119.916 25.0934 121.653 26.7036 122.374C27.212 122.628 27.8476 122.501 28.1866 121.992C28.4409 121.526 28.3137 120.763 27.8053 120.509C26.8307 120.043 26.3646 119.238 26.4493 118.179C26.5341 116.823 24.3731 116.823 24.2883 118.179Z" fill="white"/>
<path d="M27.9324 128.517C29.3307 128.517 29.3307 126.356 27.9324 126.356C26.5764 126.399 26.5764 128.517 27.9324 128.517Z" fill="white"/>
<path d="M104.585 144.451C103.695 141.23 102.466 136.061 102.339 132.713C102.212 129.366 102.89 125.891 104.882 123.222C107 120.383 110.305 118.73 112.848 116.315C115.305 113.984 117.043 110.891 117.551 107.544C118.017 104.196 117.127 100.637 114.924 98.0946C112.721 95.5522 109.119 93.8997 105.771 94.4929C107.636 95.8488 108.992 97.9251 109.458 100.171C109.924 102.417 109.543 104.874 108.356 106.866C106.661 109.79 103.526 111.527 101.28 114.027C97.6359 118.095 96.2376 124.366 98.2715 129.451C92.2545 125.595 66.6612 124.408 58.7375 129.239L60.4324 123.137C60.4324 123.137 62.5511 121.739 64.0765 119.451C65.0087 118.095 65.2206 116.4 64.7545 114.832C63.7799 111.612 61.5765 105.298 57.7206 99.4082C57.7206 99.4082 57.2969 92.7556 56.0257 88.3912C54.4155 89.5776 51.1527 93.2641 49.7968 98.4759C49.7968 98.4759 43.4832 98.2641 40.051 99.0268C40.051 99.0268 38.8646 90.9759 36.1951 87.459C23.8646 104.281 28.4408 123.518 37.1273 144.62H104.585V144.451Z" fill="#D9B79D"/>
<path d="M114.289 114.747C115.983 112.67 117.17 110.17 117.551 107.543C118.017 104.196 117.127 100.637 114.924 98.0941C112.721 95.5518 109.119 93.8992 105.772 94.4924C107.636 95.8484 108.992 97.9246 109.458 100.17C109.924 102.416 109.543 104.874 108.356 106.865C106.831 109.408 104.246 111.103 102.127 113.179C104.077 114.365 106.322 115.086 108.611 115.298C110.475 115.425 112.424 115.255 114.289 114.747Z" fill="#A18195"/>
<path d="M79.3732 138.9C83.3562 140.679 88.3139 139.917 91.5342 136.993C93.9918 134.79 95.3478 131.4 95.2207 128.095C88.9071 126.146 76.9156 125.383 67.9325 126.569C68.9494 127.968 69.9664 129.408 71.0257 130.807C73.3138 133.984 75.7715 137.29 79.3732 138.9Z" fill="#A18195"/>
<path d="M45.0087 98.3489C43.3138 98.4336 41.4917 98.5608 40.0934 98.8574C40.0934 98.8574 38.907 90.8065 36.2375 87.2896C30.0934 95.6794 28.1443 104.662 28.8222 114.196C32.5934 113.307 36.1528 111.4 38.9494 108.73C41.9155 105.934 44.0342 102.29 45.0087 98.3489Z" fill="#A18195"/>
<path d="M57.5511 111.103C59.5002 111.824 61.7036 111.866 63.6528 111.23C62.424 107.883 60.5172 103.476 57.8053 99.2811C57.8053 99.2811 57.3816 92.6286 56.1104 88.2642C54.5002 89.4506 51.2375 93.137 49.8816 98.3489C49.8816 98.3489 49.5002 98.3489 48.8223 98.3065C49.1612 100.807 49.8815 103.222 51.1104 105.425C52.551 107.925 54.7968 110.086 57.5511 111.103Z" fill="#A18195"/>
<path d="M99.0766 117.247C97.1698 120.976 96.746 125.552 98.2715 129.366C99.0765 129.917 100.517 131.273 100.517 131.273C98.6528 126.95 98.1443 121.95 99.0766 117.247Z" fill="#987664"/>
<path d="M65.6867 126.908C62.8477 127.416 60.3901 128.179 58.7376 129.153C57.5935 133.009 55.3477 136.526 55.3477 136.526C60.1782 135.001 64.246 129.577 65.6867 126.908Z" fill="#987664"/>
<path d="M39.4155 125.001C48.3986 131.951 57.0427 127.078 59.8817 125.044L60.4325 123.052C57.4664 125.044 43.9918 126.484 39.4155 125.001Z" fill="#987664"/>
<path d="M52.2968 98.5183C53.6104 98.5183 55.0934 98.7302 56.1527 98.942C56.0256 96.0183 55.6019 93.1369 54.8816 90.3403C53.1019 94.0268 52.2968 98.5183 52.2968 98.5183Z" fill="#48284F"/>
<path d="M56.1528 98.9418C57.1274 99.1112 57.763 99.3231 57.763 99.3231C57.763 99.3231 57.3392 92.6706 56.0681 88.3062C55.6443 88.9417 55.2629 89.6197 54.8816 90.3401C55.6019 93.1367 56.0257 96.018 56.1528 98.9418Z" fill="#685C7C"/>
<path d="M34.5425 100.636C35.39 100.213 36.5341 99.8314 37.7205 99.4924C37.4663 96.2297 36.7459 93.0093 35.5595 89.9585C34.9239 92.5432 34.1612 96.6534 34.5425 100.636Z" fill="#48284F"/>
<path d="M37.7205 99.493C38.6104 99.2387 39.4578 99.0269 40.1358 98.8574C40.1358 98.8574 38.9493 90.8065 36.2798 87.2896C36.2798 87.2896 35.9409 88.3065 35.5172 89.959C36.7036 93.0099 37.4663 96.2302 37.7205 99.493Z" fill="#685C7C"/>
<path d="M46.9579 108.052C47.085 109.493 46.5765 110.679 45.8985 110.721C45.1782 110.764 44.5426 109.662 44.4155 108.221C44.2884 106.781 44.7969 105.594 45.4748 105.552C46.1952 105.51 46.8731 106.611 46.9579 108.052Z" fill="#48284F"/>
<path d="M56.8731 107.756C56.7884 109.027 57.2121 110.086 57.8477 110.128C58.4833 110.171 59.0765 109.196 59.1612 107.925C59.246 106.654 58.8223 105.594 58.1867 105.552C57.5511 105.51 56.9579 106.484 56.8731 107.756Z" fill="#48284F"/>
<path d="M59.2037 117.882C58.3986 118.009 57.5087 117.925 56.7884 117.586C56.0257 117.204 55.4324 116.569 55.0511 115.891C54.924 115.637 54.7968 115.34 54.7121 115.086C54.7545 114.577 54.6698 114.069 54.5426 113.645C54.5426 113.73 54.5426 113.857 54.5426 113.942C54.5426 113.857 54.5426 113.772 54.5426 113.687C54.4155 114.069 54.3308 114.535 54.3731 115.001C54.246 115.425 54.0765 115.891 53.8646 116.315C53.3985 117.204 52.6358 117.967 51.7036 118.433C50.7714 118.899 49.7121 119.026 48.7375 118.857C47.7629 118.73 46.8307 118.306 46.1528 117.798C46.6612 118.518 47.5087 119.153 48.6104 119.45C49.6697 119.747 50.9833 119.704 52.085 119.154C53.1867 118.603 54.0341 117.628 54.4155 116.569C54.5002 116.399 54.5426 116.187 54.585 116.018C54.585 116.06 54.585 116.06 54.6274 116.103C54.9663 116.95 55.6019 117.755 56.5341 118.221C57.4663 118.645 58.4833 118.687 59.3731 118.391C60.2629 118.137 60.9409 117.543 61.3223 116.95C60.7291 117.374 60.0087 117.713 59.2037 117.882Z" fill="#48284F"/>
<path d="M56.407 112.84C54.8816 112.374 53.1867 112.543 51.7036 113.221C52.5511 114.026 53.4833 114.577 54.6274 114.789C55.3477 114.45 55.9833 113.56 56.407 112.84Z" fill="#48284F"/>
<path d="M22.3816 118.815C25.4324 117.925 29.4578 116.823 33.5256 116.018C37.5934 115.171 41.7036 114.62 44.8816 114.239C41.7036 114.112 37.4664 114.408 33.3562 115.256C29.246 116.103 25.263 117.459 22.3816 118.815Z" fill="#9F8094"/>
<path d="M23.0172 122.459C25.9409 121.484 29.7544 120.128 33.6104 118.942C37.4663 117.713 41.3222 116.654 44.2883 115.806C41.2375 116.188 37.2545 117.035 33.3562 118.264C29.5002 119.493 25.7714 121.018 23.0172 122.459Z" fill="#9F8094"/>
<path d="M26.4493 126.865C28.9493 125.552 32.1273 123.772 35.3477 122.035C38.568 120.297 41.8307 118.56 44.2883 117.204C41.6612 118.179 38.2714 119.662 35.0511 121.441C31.8307 123.179 28.6951 125.17 26.4493 126.865Z" fill="#9F8094"/>
<path d="M80.0087 116.4C78.2714 115.383 75.5171 114.323 72.2968 113.73C68.7374 113.052 64.6273 112.925 61.2374 113.264C64.5849 113.518 68.5679 113.9 72.0425 114.535C75.2629 115.044 78.0595 115.806 80.0087 116.4Z" fill="#9F8094"/>
<path d="M78.907 119.578C77.2968 118.646 74.7968 117.544 71.9155 116.739C68.6951 115.807 65.0086 115.213 61.873 115.001C64.8815 115.722 68.4409 116.569 71.6188 117.417C74.5426 118.222 77.085 119.027 78.907 119.578Z" fill="#9F8094"/>
<path d="M75.9408 123.475C74.6273 122.416 72.5934 121.102 70.2205 119.916C67.5934 118.602 64.5425 117.374 61.9153 116.611C64.373 117.84 67.2967 119.238 69.9238 120.509C72.2543 121.653 74.373 122.755 75.9408 123.475Z" fill="#9F8094"/>
<path d="M65.0087 141.95C64.6273 141.95 64.246 141.992 63.907 142.077C63.6951 140.933 62.6782 140.043 61.4493 140.043C60.6866 140.043 60.0087 140.382 59.5849 140.89C58.7798 140.085 57.6782 139.619 56.4917 139.619C55.7714 139.619 55.0934 139.789 54.5002 140.128C53.7375 138.094 51.7883 136.611 49.5002 136.611C48.6527 136.611 47.8052 136.823 47.0849 137.204C45.6019 133.772 42.2121 131.356 38.229 131.356C34.8392 131.356 31.8307 133.136 30.1357 135.763C29.7968 135.678 29.4578 135.594 29.1188 135.594C27.2968 135.594 25.7714 136.95 25.5595 138.729C25.39 138.729 25.2205 138.687 25.051 138.687C21.8306 138.687 19.2459 141.229 19.1188 144.407H69.9239C68.7799 142.924 67.0002 141.95 65.0087 141.95Z" fill="#E0F1F5"/>
<path d="M117.127 140.043C116.492 140.043 115.899 140.17 115.348 140.34C115.348 140.255 115.348 140.17 115.348 140.085C115.348 137.712 113.399 135.763 111.026 135.763C109.415 135.763 108.06 136.611 107.297 137.882C106.153 136.06 104.119 134.831 101.788 134.831C98.9918 134.831 96.5765 136.611 95.6867 139.111C95.4748 139.068 95.2629 139.068 95.0935 139.068C93.4833 139.068 92.1274 140.128 91.7036 141.611C90.4324 140.509 88.8223 139.873 87.0426 139.873C83.9917 139.873 81.407 141.78 80.3477 144.45H122.382C121.873 141.95 119.712 140.043 117.127 140.043Z" fill="#E0F1F5"/>
<path d="M92.8477 125.34C92.4239 125.34 92.0002 125.467 91.6612 125.636C91.4918 124.196 90.2629 123.052 88.7799 123.052C88.6104 123.052 88.4409 123.052 88.3138 123.094V123.052C88.3138 119.958 85.7714 117.416 82.6782 117.416C80.2629 117.416 78.229 118.941 77.424 121.06C76.7036 119.916 75.4324 119.196 73.9917 119.196C71.7459 119.196 69.9239 121.018 69.9239 123.263C69.9239 123.518 69.9663 123.772 70.0087 124.026C69.7968 123.984 69.5425 123.941 69.3307 123.941C67.6358 123.941 66.2375 125.34 66.2375 127.035C66.2375 128.73 67.6358 130.128 69.3307 130.128C71.0256 130.128 72.4239 128.73 72.4239 127.035C72.4239 127.035 72.4239 127.035 72.4239 126.992C72.8053 127.162 73.1867 127.247 73.6104 127.289C73.5256 127.586 73.5256 127.882 73.5256 128.179C73.5256 130.382 75.3053 132.162 77.5087 132.162C77.9748 132.162 78.4409 132.077 78.8646 131.908C79.3731 134.026 81.2799 135.594 83.568 135.594C86.2375 135.594 88.3985 133.433 88.3985 130.763C88.3985 130.721 88.3985 130.679 88.3985 130.636C88.8646 131.145 89.5426 131.441 90.3053 131.441C91.3222 131.441 92.2121 130.848 92.6358 130.001C92.7629 130.001 92.8477 130.043 92.9748 130.043C94.2884 130.043 95.39 128.984 95.39 127.628C95.2629 126.399 94.1612 125.34 92.8477 125.34Z" fill="#E0F1F5"/>
<path d="M53.5256 96.3989C53.6104 96.0599 53.6951 95.6786 53.6951 95.3396C53.6951 94.1955 53.229 93.1786 52.4663 92.4159C51.7459 91.6955 50.729 91.2718 49.6273 91.2718C48.9493 91.2718 48.3138 91.4413 47.7629 91.7379C46.8307 90.043 45.0087 88.8989 42.9324 88.8989C40.9832 88.8989 39.2883 89.9159 38.3137 91.4413C39.5425 95.0006 40.1358 98.8989 40.1358 98.8989C40.3053 98.8566 40.4324 98.8142 40.6019 98.8142C40.6442 98.8142 40.6866 98.8142 40.6866 98.8142C40.8561 98.7718 41.0256 98.7718 41.1951 98.7294C41.2375 98.7294 41.2375 98.7294 41.2798 98.7294C41.4493 98.6871 41.6188 98.6871 41.7883 98.6447C41.8307 98.6447 41.8307 98.6447 41.8731 98.6447C42.0425 98.6023 42.2544 98.6023 42.4239 98.6023C42.4662 98.6023 42.4663 98.6023 42.5087 98.6023C42.89 98.56 43.3137 98.5176 43.6951 98.5176C43.7374 98.5176 43.7375 98.5176 43.7798 98.5176C43.9917 98.5176 44.2036 98.4752 44.3731 98.4752C44.5849 98.4752 44.7968 98.4752 45.0087 98.4328C45.6019 98.3905 46.1951 98.3905 46.7036 98.3905C46.746 98.3905 46.7883 98.3905 46.8307 98.3905C47.551 99.0684 48.5256 99.4498 49.5849 99.4498C49.8391 99.4498 50.1358 99.4074 50.39 99.365C50.6019 100.509 51.6188 101.399 52.8477 101.399C54.2036 101.399 55.3052 100.34 55.3476 99.0261C55.3476 98.9837 55.3476 98.9413 55.3476 98.8989C55.39 97.6701 54.5849 96.6955 53.5256 96.3989Z" fill="#E0F1F5"/>
<path d="M118.865 112.755C118.865 110.721 117.212 109.111 115.221 109.111C113.865 109.111 112.721 109.831 112.085 110.933C111.746 110.763 111.322 110.721 110.941 110.721C109.288 110.721 107.932 112.077 107.932 113.729C107.932 114.238 108.06 114.746 108.314 115.17C106.28 115.552 104.712 117.331 104.712 119.45C104.712 119.704 104.754 119.958 104.797 120.213C103.738 120.509 102.932 121.484 102.932 122.628C102.932 124.026 104.034 125.128 105.432 125.128C106.449 125.128 107.339 124.492 107.721 123.602C108.144 123.73 108.61 123.814 109.077 123.814C111.492 123.814 113.441 121.865 113.441 119.45C113.441 119.407 113.441 119.365 113.441 119.323C113.653 119.365 113.907 119.407 114.119 119.407C115.517 119.407 116.661 118.263 116.661 116.865C116.661 116.653 116.619 116.399 116.576 116.187C117.89 115.636 118.865 114.28 118.865 112.755Z" fill="#E0F1F5"/>
<path d="M40.0933 93.136C40.6018 93.3055 40.9831 93.1783 41.3645 92.8394C41.873 92.3733 42.4662 92.2038 43.1442 92.119C43.7374 92.0343 44.034 91.3139 43.9069 90.8055C43.7374 90.1699 43.1442 90.0004 42.5933 90.0427C42.0001 90.1275 41.4069 90.297 40.8984 90.5512C40.5594 90.7207 40.1357 90.8055 39.7967 91.0173C38.9916 91.5258 39.2458 92.797 40.0933 93.136C40.0509 93.0936 40.0509 93.136 40.0933 93.136Z" fill="white"/>
<path d="M51.3222 94.4921C52.7205 94.4921 52.7205 92.3311 51.3222 92.3311C49.9663 92.3311 49.9663 94.4921 51.3222 94.4921Z" fill="white"/>
<path d="M53.9917 99.7885C55.39 99.7885 55.39 97.6274 53.9917 97.6274C52.5934 97.6698 52.5934 99.7885 53.9917 99.7885Z" fill="white"/>
<path d="M32.2968 140.594C32.6358 137.373 35.2205 135 38.3985 134.788C39.7544 134.704 39.7968 132.543 38.3985 132.627C33.9493 132.924 30.6018 136.144 30.1357 140.594C30.0086 141.949 32.1273 141.949 32.2968 140.594Z" fill="white"/>
<path d="M22.8476 142.882C23.3137 142.331 23.8221 142.034 24.5425 141.907C25.0933 141.822 25.4323 141.102 25.3052 140.594C25.1357 140 24.5424 139.746 23.9916 139.831C22.9746 140 22.0001 140.551 21.3221 141.356C20.9408 141.78 20.8984 142.458 21.3221 142.882C21.7035 143.263 22.4662 143.348 22.8476 142.882Z" fill="white"/>
<path d="M47.6357 140.509L47.7205 140.382C47.6357 140.466 47.6357 140.509 47.6781 140.466L47.7205 140.424C47.7628 140.382 47.8052 140.339 47.8476 140.297C47.9324 140.212 47.6357 140.424 47.8476 140.297C47.89 140.254 47.9324 140.254 47.9748 140.212C48.1019 140.127 47.9323 140.212 47.9323 140.212C47.9747 140.17 48.229 140.127 48.3137 140.127C48.5679 140.085 48.8222 139.831 48.9493 139.619C49.0764 139.407 49.1612 139.068 49.0764 138.814C48.8646 138.221 48.3561 137.966 47.7629 138.051C46.9578 138.178 46.2375 138.729 45.8561 139.407C45.5595 139.873 45.7289 140.593 46.2374 140.89C46.6612 141.144 47.3391 141.017 47.6357 140.509Z" fill="white"/>
<path d="M60.9832 142.754C62.3815 142.754 62.3815 140.593 60.9832 140.593C59.6273 140.593 59.6273 142.754 60.9832 142.754Z" fill="white"/>
<path d="M67.1697 125.933C66.8307 126.738 67.1273 127.755 67.7629 128.306C68.1867 128.687 68.8646 128.772 69.2884 128.306C69.6697 127.882 69.7545 127.204 69.2884 126.78C69.246 126.738 69.2036 126.695 69.1613 126.695C69.246 126.822 69.246 126.822 69.2036 126.738C69.1613 126.653 69.1613 126.653 69.2036 126.78C69.2036 126.738 69.1613 126.695 69.1613 126.653C69.1189 126.526 69.1613 126.568 69.1613 126.738C69.1613 126.695 69.1613 126.653 69.1613 126.611C69.1189 126.78 69.1189 126.78 69.1613 126.695C69.1613 126.653 69.2036 126.611 69.2036 126.568C69.4155 126.06 68.9917 125.382 68.4409 125.255C67.8477 125.043 67.3816 125.382 67.1697 125.933Z" fill="white"/>
<path d="M72.8476 123.221C72.8476 123.179 72.89 123.094 72.89 123.051C72.9324 122.84 72.8476 123.009 72.89 123.051C72.89 123.009 72.9748 122.924 72.9748 122.882C72.9748 122.84 73.0171 122.84 73.0171 122.84C73.0595 122.755 73.0595 122.797 72.9748 122.924C73.0595 122.882 73.1443 122.755 73.229 122.67C73.3138 122.585 73.0595 122.755 73.229 122.67C73.3138 122.628 73.3561 122.585 73.4409 122.585C73.9493 122.331 74.1189 121.568 73.8222 121.102C73.4833 120.594 72.89 120.467 72.3392 120.721C71.5765 121.102 71.0256 121.823 70.8561 122.628C70.729 123.178 71.0256 123.814 71.6188 123.941C72.0425 124.111 72.7205 123.814 72.8476 123.221Z" fill="white"/>
<path d="M79.3732 123.348C79.6274 121.483 81.3223 120.381 83.1444 120.509C84.5003 120.593 84.5003 118.475 83.1444 118.348C80.0511 118.136 77.6359 120.339 77.2545 123.348C77.085 124.704 79.2037 124.704 79.3732 123.348Z" fill="white"/>
<path d="M98.0171 141.483C98.4409 140.128 99.2883 139.026 100.56 138.348C101.746 137.67 100.687 135.805 99.4578 136.483C97.7205 137.458 96.4917 139.026 95.9409 140.933C95.5595 142.204 97.5934 142.797 98.0171 141.483Z" fill="white"/>
<path d="M102.933 137.967C104.331 137.967 104.331 135.806 102.933 135.806C101.534 135.806 101.534 137.967 102.933 137.967Z" fill="white"/>
<path d="M107.551 116.187C106.068 117.246 105.432 118.898 105.856 120.72C106.195 122.076 108.271 121.483 107.933 120.17C107.721 119.365 107.975 118.559 108.653 118.093C109.119 117.754 109.331 117.161 109.034 116.61C108.738 116.102 108.017 115.848 107.551 116.187Z" fill="white"/>
<path d="M109.797 114.492C111.195 114.492 111.195 112.331 109.797 112.331C108.441 112.331 108.441 114.492 109.797 114.492Z" fill="white"/>
<path d="M85.6442 142.713C86.9154 142.247 86.3646 140.17 85.0934 140.637C83.1866 141.315 81.7036 142.628 80.8137 144.408H83.2713C83.9069 143.687 84.712 143.052 85.6442 142.713Z" fill="white"/>
<g opacity="0.8">
<path opacity="0.8" d="M93.6951 90.7631C95.4035 90.7631 96.7884 89.3782 96.7884 87.6699C96.7884 85.9615 95.4035 84.5767 93.6951 84.5767C91.9868 84.5767 90.6019 85.9615 90.6019 87.6699C90.6019 89.3782 91.9868 90.7631 93.6951 90.7631Z" fill="#E0F1F5"/>
<path opacity="0.8" d="M94.0341 86.8222C94.0341 87.585 93.4409 88.1782 92.6782 88.1782C91.9155 88.1782 91.3223 87.585 91.3223 86.8222C91.3223 86.0595 91.9155 85.4663 92.6782 85.4663C93.4409 85.4663 94.0341 86.0595 94.0341 86.8222Z" fill="white"/>
</g>
<g opacity="0.8">
<path opacity="0.8" d="M108.144 79.0249C109.361 79.0249 110.348 78.0385 110.348 76.8216C110.348 75.6047 109.361 74.6182 108.144 74.6182C106.928 74.6182 105.941 75.6047 105.941 76.8216C105.941 78.0385 106.928 79.0249 108.144 79.0249Z" fill="#E0F1F5"/>
<path opacity="0.8" d="M108.356 76.186C108.356 76.6945 107.932 77.1606 107.382 77.1606C106.873 77.1606 106.407 76.7369 106.407 76.186C106.407 75.6775 106.831 75.2114 107.382 75.2114C107.932 75.2538 108.356 75.6775 108.356 76.186Z" fill="white"/>
</g>
<g opacity="0.8">
<path opacity="0.8" d="M104.119 86.1859C104.119 86.9486 103.483 87.5842 102.721 87.5842C101.958 87.5842 101.322 86.9486 101.322 86.1859C101.322 85.4232 101.958 84.7876 102.721 84.7876C103.483 84.7876 104.119 85.4232 104.119 86.1859Z" fill="#E0F1F5"/>
<path opacity="0.8" d="M102.254 86.3974C102.582 86.3974 102.848 86.1318 102.848 85.8042C102.848 85.4765 102.582 85.2109 102.254 85.2109C101.927 85.2109 101.661 85.4765 101.661 85.8042C101.661 86.1318 101.927 86.3974 102.254 86.3974Z" fill="white"/>
</g>
<path d="M123.133 69.6883C125.164 68.8423 126.124 66.5103 125.278 64.4797C124.432 62.4491 122.1 61.4888 120.069 62.3348C118.039 63.1808 117.078 65.5128 117.924 67.5435C118.77 69.5741 121.102 70.5344 123.133 69.6883Z" fill="#E0F1F5"/>
<path d="M120.305 66.6533C121.265 66.6533 122.043 65.8755 122.043 64.916C122.043 63.9565 121.265 63.1787 120.305 63.1787C119.346 63.1787 118.568 63.9565 118.568 64.916C118.568 65.8755 119.346 66.6533 120.305 66.6533Z" fill="white"/>
<path d="M128.229 76.1869C128.229 77.5852 127.085 78.7293 125.687 78.7293C124.288 78.7293 123.144 77.5852 123.144 76.1869C123.144 74.7886 124.288 73.6445 125.687 73.6445C127.085 73.6445 128.229 74.7886 128.229 76.1869Z" fill="#E0F1F5"/>
<path d="M125.941 75.4664C125.941 76.0597 125.433 76.5681 124.839 76.5681C124.246 76.5681 123.738 76.0597 123.738 75.4664C123.738 74.8732 124.246 74.3647 124.839 74.3647C125.433 74.3647 125.941 74.8732 125.941 75.4664Z" fill="white"/>
<path d="M21.5766 102.712C23.6827 102.712 25.3901 101.004 25.3901 98.898C25.3901 96.7919 23.6827 95.0845 21.5766 95.0845C19.4704 95.0845 17.763 96.7919 17.763 98.898C17.763 101.004 19.4704 102.712 21.5766 102.712Z" fill="#E0F1F5"/>
<path d="M21.9579 97.8391C21.9579 98.7713 21.1952 99.4916 20.3054 99.4916C19.3732 99.4916 18.6528 98.7289 18.6528 97.8391C18.6528 96.9069 19.4156 96.1865 20.3054 96.1865C21.1952 96.1865 21.9579 96.9492 21.9579 97.8391Z" fill="white"/>
<path d="M20.3054 106.949C20.3054 108.347 19.1613 109.491 17.763 109.491C16.3647 109.491 15.2206 108.347 15.2206 106.949C15.2206 105.551 16.3647 104.407 17.763 104.407C19.1613 104.407 20.3054 105.551 20.3054 106.949Z" fill="#E0F1F5"/>
<path d="M18.0172 106.271C18.0172 106.864 17.5087 107.373 16.9155 107.373C16.3223 107.373 15.8138 106.864 15.8138 106.271C15.8138 105.678 16.3223 105.169 16.9155 105.169C17.5087 105.127 18.0172 105.636 18.0172 106.271Z" fill="white"/>
<path d="M16.8732 117.204C16.8732 117.797 16.3647 118.305 15.7715 118.305C15.1783 118.305 14.6697 117.797 14.6697 117.204C14.6697 116.611 15.1783 116.102 15.7715 116.102C16.3647 116.102 16.8732 116.568 16.8732 117.204Z" fill="#E0F1F5"/>
<path d="M15.8986 116.865C15.8986 117.119 15.6868 117.331 15.4325 117.331C15.1783 117.331 14.9664 117.119 14.9664 116.865C14.9664 116.611 15.1783 116.399 15.4325 116.399C15.6868 116.399 15.8986 116.611 15.8986 116.865Z" fill="white"/>
<path d="M27.8901 80.0432C30.4644 80.0432 32.5512 77.9564 32.5512 75.3822C32.5512 72.808 30.4644 70.7212 27.8901 70.7212C25.3159 70.7212 23.2291 72.808 23.2291 75.3822C23.2291 77.9564 25.3159 80.0432 27.8901 80.0432Z" fill="#E0F1F5"/>
<path d="M26.3223 76.1025C27.4456 76.1025 28.3562 75.1919 28.3562 74.0686C28.3562 72.9453 27.4456 72.0347 26.3223 72.0347C25.199 72.0347 24.2885 72.9453 24.2885 74.0686C24.2885 75.1919 25.199 76.1025 26.3223 76.1025Z" fill="white"/>
<path d="M35.3901 63.7723C36.7942 63.7723 37.9325 62.634 37.9325 61.2299C37.9325 59.8258 36.7942 58.6875 35.3901 58.6875C33.986 58.6875 32.8477 59.8258 32.8477 61.2299C32.8477 62.634 33.986 63.7723 35.3901 63.7723Z" fill="#E0F1F5"/>
<path d="M35.6444 60.5094C35.6444 61.1026 35.1359 61.6111 34.5427 61.6111C33.9494 61.6111 33.441 61.1026 33.441 60.5094C33.441 59.9162 33.9494 59.4077 34.5427 59.4077C35.1359 59.4077 35.6444 59.9162 35.6444 60.5094Z" fill="white"/>
<path d="M41.746 72.5427C41.746 73.6444 40.8562 74.5766 39.7121 74.5766C38.5681 74.5766 37.6782 73.6868 37.6782 72.5427C37.6782 71.441 38.5681 70.5088 39.7121 70.5088C40.8562 70.5088 41.746 71.441 41.746 72.5427Z" fill="#E0F1F5"/>
<path d="M39.924 71.9919C39.924 72.458 39.5426 72.8817 39.0341 72.8817C38.568 72.8817 38.1443 72.5004 38.1443 71.9919C38.1443 71.5258 38.5256 71.1021 39.0341 71.1021C39.5426 71.1021 39.924 71.5258 39.924 71.9919Z" fill="white"/>
</svg>
