<svg width="157" height="200" viewBox="0 0 157 200" fill="none" xmlns="http://www.w3.org/2000/svg">
<path d="M15.7921 180.49H142.522C148.06 168.392 149.764 154.803 151.298 141.598C152.32 132.695 151.596 122.045 144.056 117.231C137.453 113.014 128.678 115.272 121.223 113.014C112.363 110.373 106.399 101.555 104.567 92.4816C102.735 83.4082 104.269 74.0365 106.016 64.9204C107.762 55.8044 109.679 46.5605 108.571 37.3593C106.91 23.6 98.0922 10.9056 85.7387 4.55848C73.3852 -1.74609 57.9219 -1.4905 45.7814 5.19746C28.316 14.8673 19.9241 35.3145 15.7495 54.8246C11.5748 74.4625 10.3821 94.7819 12.2138 114.803C14.2159 136.188 20.7335 159.617 15.7921 180.49Z" fill="#C9E6E8"/>
<path d="M114.407 72.8012C115.771 62.8331 117.134 52.8651 118.539 42.8971C119.306 37.3167 120.116 31.5659 122.842 26.5819C125.568 21.5978 130.595 17.5084 136.26 17.5936C140.648 17.6788 144.695 20.2347 147.464 23.6426C150.19 27.0504 151.766 31.2677 153.002 35.4849C157.219 49.9684 157.602 65.5594 154.152 80.2133C152.235 88.307 148.87 96.5711 142.182 101.512C135.153 106.709 124.929 106.411 119.008 99.766C112.32 92.439 113.172 81.8746 114.407 72.8012Z" fill="#C9E6E8"/>
<path d="M154.62 183.131C154.62 184.622 153.385 185.857 151.894 185.857H144.737C141.5 185.857 138.39 187.178 136.175 189.563L135.792 189.989C133.577 192.332 130.467 193.695 127.23 193.695H118.241C115.259 193.695 112.405 194.846 110.19 196.848C108.018 198.893 105.121 200 102.139 200H74.5778C71.5959 200 68.7419 198.85 66.5267 196.848C64.3542 194.803 61.4575 193.695 58.4756 193.695H29.5939C26.3564 193.695 23.2468 192.375 21.0316 189.989L20.6482 189.563C18.4331 187.221 15.3234 185.857 12.086 185.857H4.92941C3.43846 185.857 2.20312 184.622 2.20312 183.131C2.20312 181.64 3.43846 180.405 4.92941 180.405H151.894C153.385 180.405 154.62 181.64 154.62 183.131Z" fill="#48284F"/>
<path d="M103.417 75.9121C104.951 73.6969 104.695 70.6299 103.46 68.2443C102.224 65.8588 100.179 64.0271 98.1348 62.2806C96.09 60.534 94.0027 58.7875 92.5544 56.5298C89.9985 52.3977 90.254 46.6895 93.1933 42.7705C94.6417 40.811 96.6438 39.3626 98.2199 37.4883C101.415 33.6118 102.352 28.0314 100.605 23.3456C98.8589 18.6598 94.4713 15.0389 89.5299 14.2295C84.5885 13.4202 79.3063 15.4223 76.1114 19.2562C71.4682 14.9963 63.4596 13.2072 57.5385 15.3371C51.6173 17.4244 47.0167 23.0048 46.0795 29.2242C45.3127 34.2508 46.7185 39.7034 44.5459 44.304C41.1807 51.3328 31.1274 52.9089 27.3788 59.7673C25.0785 64.0697 25.8452 69.3093 27.3362 73.9525C28.7845 78.5958 30.9144 83.1538 31.0848 88.01C31.2552 92.7384 29.6365 97.8502 31.8942 102.025C34.1945 106.2 39.4341 107.563 44.12 108.372C53.8324 110.119 64.1412 111.311 73.3851 107.818C80.073 105.305 85.696 100.491 90.1689 94.911C94.6417 89.4584 99.3701 81.7906 103.417 75.9121Z" fill="#F28D6C"/>
<path d="M27.3362 74.0376C25.8878 69.3943 25.0784 64.1121 27.3787 59.8523C28.1455 58.404 29.2531 57.1686 30.4884 56.1036C28.2733 60.6191 28.3585 66.3699 31.17 70.5871C33.4703 73.995 37.1764 76.3379 38.9655 80.0014C40.9251 83.963 40.3713 88.7766 42.0752 92.8235C44.0347 97.4667 48.891 100.534 53.875 100.96C58.9016 101.386 63.9282 99.3836 67.762 96.1888C71.1699 93.3347 73.6832 89.586 76.4947 86.1355C79.3062 82.6851 82.6289 79.405 86.8462 77.9992C89.1891 77.2325 91.7024 77.0621 94.0453 76.2527C96.3882 75.4433 98.6885 73.7394 99.1145 71.3113C99.7535 67.6904 96.2604 64.8789 94.2157 61.8544C93.0655 60.1079 92.384 58.1058 92.2136 56.061C92.2988 56.2314 92.4266 56.4444 92.5118 56.6148C93.9175 58.8725 96.0474 60.6191 98.0921 62.3656C100.137 64.1121 102.182 65.9439 103.417 68.3294C104.652 70.7149 104.908 73.782 103.374 75.9971C99.3275 81.8757 94.5991 89.5434 90.0836 95.1238C85.6108 100.662 79.9878 105.518 73.2998 108.031C64.056 111.524 53.7898 110.289 44.0347 108.585C39.3489 107.733 34.1093 106.412 31.809 102.238C29.5087 98.1057 31.17 92.9939 30.9996 88.2228C30.8718 83.2388 28.7845 78.6808 27.3362 74.0376Z" fill="#D46C67"/>
<path d="M88.2519 17.1262C83.8642 16.9558 79.434 19.0006 76.7503 22.4936C72.9591 19.7673 68.2306 17.9782 63.5448 17.5522C58.9016 17.1262 53.9602 18.4468 50.6375 21.7695C48.465 23.942 47.1018 26.8387 46.2498 29.778C46.122 30.3317 45.9943 30.8429 45.8665 31.3967C45.9091 30.7151 45.9517 29.991 46.0794 29.3094C47.0166 23.09 51.5746 17.5096 57.5384 15.4223C63.4596 13.335 71.4681 15.0815 76.1113 19.3413C79.3062 15.4649 84.5884 13.4628 89.5298 14.3147C94.4713 15.1241 98.8589 18.745 100.605 23.4308C101.372 25.4329 101.628 27.6054 101.415 29.7354C101.202 27.5202 100.52 25.3477 99.3275 23.4734C96.8994 19.7247 92.6395 17.2966 88.2519 17.1262Z" fill="#F4A594"/>
<path d="M95.0677 34.5917C94.9399 33.0156 94.514 31.269 93.662 29.6503C92.81 28.0315 91.5321 26.498 89.9559 25.4756C88.3798 24.4107 86.5054 23.8143 84.6737 23.6439C82.842 23.4735 81.0528 23.7291 79.5619 24.2403C80.8398 23.3031 82.6716 22.5789 84.7163 22.5363C86.761 22.4511 88.9762 23.0049 90.8079 24.2403C92.6396 25.4756 94.0028 27.3074 94.6843 29.2243C95.4085 31.0986 95.4511 33.0582 95.0677 34.5917Z" fill="#F4A594"/>
<path d="M89.4874 30.4597C89.1466 29.7355 88.6781 28.9687 88.0817 28.2445C87.4853 27.5204 86.7611 26.8388 85.9518 26.2424C85.1424 25.6886 84.2478 25.2627 83.3107 25.0071C82.4161 24.7089 81.5215 24.5811 80.7122 24.5385C81.4789 24.3255 82.4587 24.2829 83.4385 24.4533C84.4182 24.6237 85.4406 25.0071 86.3352 25.646C87.2297 26.2424 87.9965 27.0518 88.5077 27.9464C89.0614 28.7557 89.3596 29.6503 89.4874 30.4597Z" fill="#F4A594"/>
<path d="M52.384 34.7197C53.9176 34.4215 55.6215 33.9955 57.3254 33.3139C59.0294 32.6324 60.7759 31.7804 62.3947 30.6728C64.0134 29.5653 65.5044 28.3299 66.7397 26.9668C68.0177 25.6036 69.04 24.1979 69.892 22.9199C69.5086 24.4109 68.7418 26.1148 67.5917 27.6909C66.4415 29.2671 64.9506 30.758 63.204 31.9082C61.4575 33.0583 59.5406 33.9103 57.6236 34.3789C55.7919 34.8475 53.9176 34.9327 52.384 34.7197Z" fill="#F4A594"/>
<path d="M53.0231 26.7965C55.3234 26.8391 58.2201 26.6261 60.989 25.8593C63.8005 25.1351 66.399 23.8572 68.3585 22.707C67.5917 23.559 66.5694 24.411 65.334 25.1777C64.0987 25.9019 62.6929 26.5409 61.2446 26.9243C59.7536 27.3077 58.2627 27.4781 56.8143 27.4355C55.4512 27.4355 54.1306 27.1799 53.0231 26.7965Z" fill="#F4A594"/>
<path d="M38.5821 95.208L34.4074 109.18L15.9197 104.111L27.0805 78.8928C29.7642 72.8012 35.8984 68.9248 42.5863 69.1804L58.5607 69.7342C59.4553 72.4179 61.3723 74.7608 63.843 76.1239C66.9526 77.8279 70.8717 77.9556 74.0666 76.5073C76.7077 75.2719 78.795 73.0142 79.86 70.3305L93.1081 69.4786C99.9238 69.0526 106.271 72.8864 109.04 79.1058L113.002 87.9663L101.33 100.746V149.265L34.4074 152.503C34.4074 143.046 39.3915 133.163 42.7993 127.583C44.7163 124.431 45.27 120.597 44.3329 117.018L38.5821 95.208Z" fill="#FBBF69"/>
<path d="M38.5822 95.208L39.6045 95.8044C42.1604 97.3379 44.0774 99.7234 45.0145 102.535L46.4629 106.923L42.6716 110.629L38.5822 95.208Z" fill="#F5A15D"/>
<path d="M58.0922 76.3366C59.6257 77.4016 61.4574 78.424 63.5448 79.1055C65.6321 79.7871 67.9324 80.1279 70.1901 80.0001C72.4478 79.8723 74.7055 79.2333 76.6651 78.2962C78.6672 77.359 80.3711 76.1237 81.7343 74.8457C80.8397 76.4644 79.3062 78.1684 77.304 79.4463C75.3019 80.7243 72.8312 81.6189 70.2753 81.7466C67.7194 81.917 65.1635 81.3633 62.991 80.2983C60.9037 79.3611 59.1997 77.8702 58.0922 76.3366Z" fill="#F5A15D"/>
<path d="M61.2019 82.1304C63.0762 82.8119 65.5469 83.4083 68.1029 83.4935C70.6162 83.5787 73.1295 83.0675 75.0464 82.5138C74.237 83.0675 73.1721 83.6213 71.9793 83.9621C70.7865 84.3029 69.4234 84.5159 68.1029 84.4733C66.7823 84.4307 65.4192 84.1751 64.269 83.7917C63.0336 83.3231 62.0113 82.7693 61.2019 82.1304Z" fill="#F5A15D"/>
<path d="M34.7056 71.5654C35.9409 72.673 37.1763 74.2065 38.1986 76.0383C39.221 77.87 39.9452 79.9999 40.3286 82.215C40.7119 84.4302 40.712 86.6879 40.4138 88.7326C40.1156 90.7773 39.434 92.6516 38.6672 94.1426C38.9654 92.4813 39.1784 90.6069 39.221 88.6474C39.2636 86.6453 39.1358 84.5579 38.795 82.5132C38.4542 80.4685 37.8579 78.4238 37.1337 76.592C36.4095 74.6751 35.5575 73.0138 34.7056 71.5654Z" fill="#F5A15D"/>
<path d="M19.1998 101.215C23.3744 101.683 29.8494 103.515 33.6832 105.304C29.466 104.793 22.991 102.961 19.1998 101.215Z" fill="#F5A15D"/>
<path d="M86.4201 69.8623L89.9983 91.5449H86.8461L84.1624 69.9901L86.4201 69.8623Z" fill="#BF4F5B"/>
<path d="M55.3658 69.6067L57.0272 91.9283H53.6193L52.8951 69.5215L55.3658 69.6067Z" fill="#BF4F5B"/>
<path d="M89.9984 91.5447H86.8462L86.548 89.3722L89.6577 89.3296L89.9984 91.5447Z" fill="#822D3C"/>
<path d="M56.8567 89.6279L57.0271 91.9282H53.6193L53.5341 89.6279H56.8567Z" fill="#822D3C"/>
<path d="M101.287 100.32C96.8141 98.7436 94.0026 94.4838 93.1507 92.0557C92.9803 91.5019 92.4691 91.1611 91.8727 91.1611L52.5969 91.5871C52.0006 91.5871 51.532 91.9705 51.3616 92.5243C49.1039 99.979 41.6918 108.839 41.6918 108.839L43.5661 115.655C44.6736 119.659 44.0347 123.919 41.7769 127.37C34.5352 138.36 33.2999 148.797 33.2999 152.119L34.4074 152.077L101.33 148.839V100.32H101.287Z" fill="#BF4F5B"/>
<path d="M52.2562 130.138C55.0677 129.84 58.22 129.414 61.5427 128.69C64.8654 128.008 68.2732 127.028 71.6385 125.793C74.9612 124.558 78.1986 123.067 81.1805 121.405C84.1624 119.787 86.8462 118.04 89.1891 116.464C87.4851 118.722 85.1422 121.064 82.2881 123.109C79.434 125.197 76.1113 126.986 72.5757 128.306C69.04 129.627 65.3339 130.394 61.8409 130.692C58.3478 130.947 55.0251 130.692 52.2562 130.138Z" fill="#822D3C"/>
<path d="M54.7268 123.919C58.3903 123.579 63.0335 123.153 67.6341 122.301C72.2348 121.449 76.7076 120.213 80.2433 119.191C78.7097 120.213 76.8354 121.193 74.7481 122.045C72.6607 122.897 70.3178 123.579 67.9323 124.005C65.5468 124.431 63.1613 124.644 60.9036 124.601C58.6033 124.601 56.4733 124.303 54.7268 123.919Z" fill="#822D3C"/>
<path d="M88.0814 95.8469H89.5724C90.1262 95.8469 90.5947 95.3784 90.5947 94.8246V94.4838C90.5947 93.93 90.1262 93.4614 89.5724 93.4614H88.0814C87.5276 93.4614 87.0591 93.93 87.0591 94.4838V94.8246C87.0591 95.3784 87.5276 95.8469 88.0814 95.8469Z" fill="#FBBF69"/>
<path d="M54.5564 95.8469H56.0473C56.6011 95.8469 57.0697 95.3784 57.0697 94.8246V94.4838C57.0697 93.93 56.6011 93.4614 56.0473 93.4614H54.5564C54.0026 93.4614 53.5341 93.93 53.5341 94.4838V94.8246C53.5341 95.3784 53.96 95.8469 54.5564 95.8469Z" fill="#FBBF69"/>
<path d="M64.1411 133.717C68.9547 133.504 73.8536 133.845 78.582 132.993C78.8802 132.95 79.221 132.865 79.5192 132.822C86.1219 131.417 90.7226 125.368 90.254 118.68C89.6576 110.458 91.0633 102.109 94.3434 94.5264C95.7492 96.7415 98.0921 99.2548 101.287 100.362V148.882L34.3648 152.119L33.2573 152.162C33.2573 150.458 33.5981 146.88 34.876 142.364C43.7791 137.21 53.9175 134.186 64.1411 133.717Z" fill="#822D3C"/>
<path d="M74.024 76.4654C70.8291 77.9563 66.9101 77.8285 63.8004 76.082C61.3297 74.7188 59.4128 72.3759 58.5182 69.6922L61.1167 69.7774L61.2445 59H76.8781L77.3467 70.4164L79.86 70.246C78.795 72.9723 76.6651 75.23 74.024 76.4654Z" fill="#FAC9AE"/>
<path d="M61.6279 61.7259C61.5001 61.4703 61.3297 61.1722 61.2019 60.9166V58.957H76.8355L77.0485 64.2392C70.4032 72.8015 64.0134 66.1562 61.6279 61.7259Z" fill="#48284F"/>
<path d="M86.9738 49.3294C87.5276 48.4348 88.2091 47.668 89.1037 47.1568C89.9983 46.6457 91.1058 46.5179 92.0856 46.8587C93.4913 47.4124 94.3007 48.9886 94.3859 50.4795C94.5563 52.8224 93.2784 55.1653 91.2336 56.3155C89.1889 57.4657 86.5052 57.3379 84.5883 55.9747C85.355 53.8448 85.781 51.2889 86.9738 49.3294Z" fill="#F5A490"/>
<path d="M91.83 48.3921C89.9982 49.7978 88.6777 51.8852 88.2517 54.1855C88.1665 54.6967 88.1665 55.3782 88.6351 55.6338C89.0185 55.8468 89.5296 55.6338 89.8704 55.3782C91.1058 54.3985 91.5318 52.5667 90.8502 51.1184C91.0632 50.1812 91.2336 49.1589 91.83 48.3921Z" fill="#F18785"/>
<path d="M88.3371 39.3188C88.4223 43.4083 88.2945 47.5403 87.1869 51.4594C86.0794 55.3785 84.0346 59.1271 80.9675 61.8108C77.9004 64.4945 73.7258 66.0281 69.6789 65.5595C66.3989 65.1335 63.3318 63.4296 60.9037 61.2144C58.433 58.9567 56.516 56.2304 54.7695 53.3763C54.4713 55.2081 52.384 56.6138 50.5097 56.7416C48.6353 56.8694 46.8036 55.8896 45.6534 54.3561C44.5459 52.8651 44.0773 50.9056 44.1625 49.0313C44.2051 47.5829 44.6311 46.0068 45.7812 45.1548C47.187 44.1325 49.2317 44.5159 50.5949 45.5382C51.958 46.6032 52.81 48.1793 53.5342 49.7555C54.4287 47.4125 54.8121 44.7714 54.4713 42.2581C63.0762 40.2134 70.3605 32.8439 71.9367 24.1538C83.1827 26.1559 88.2945 36.8055 88.3371 39.3188Z" fill="#FAC9AE"/>
<path d="M48.0389 47.0293C49.7854 48.0943 51.0633 49.8834 51.4467 51.9281C51.5319 52.4819 51.5319 53.0783 51.1485 53.4617C50.8077 53.8024 50.2114 53.8024 49.7428 53.6747C48.8056 53.3765 48.1241 52.4819 48.0389 51.5021C47.9537 50.5224 48.55 49.5426 49.402 49.1166C48.976 48.4776 48.5074 47.6683 48.0389 47.0293Z" fill="#F5A490"/>
<path d="M74.2795 27.519C71.5532 34.9311 64.4392 42.3006 54.5564 42.3006C63.1613 40.2559 70.4456 32.8864 72.0217 24.1963C83.1399 26.1984 88.2518 36.8054 88.337 39.3187C85.5255 33.6531 80.3711 29.3507 74.2795 27.519Z" fill="#F5A490"/>
<path d="M59.6257 39.4897C62.4798 39.0211 65.3765 38.5526 68.2306 38.084C67.0379 36.9764 65.2913 36.38 63.6726 36.593C62.0538 36.806 60.4777 38.084 59.6257 39.4897Z" fill="#F28D6C"/>
<path d="M86.6332 40.9379C84.1625 40.2989 81.6918 39.7025 79.2211 39.0636C80.0304 37.7004 81.777 36.9762 83.3531 37.317C84.8867 37.6578 86.4202 39.3617 86.6332 40.9379Z" fill="#F28D6C"/>
<path d="M62.8207 45.794C62.8207 46.6886 63.5448 47.4128 64.4394 47.4128C65.334 47.4128 66.0581 46.6886 66.0581 45.794C66.0581 44.8995 65.334 44.1753 64.4394 44.1753C63.5448 44.2179 62.8207 44.9421 62.8207 45.794Z" fill="#48284F"/>
<path d="M81.3083 47.8815C82.2023 47.8815 82.9271 47.1568 82.9271 46.2628C82.9271 45.3688 82.2023 44.644 81.3083 44.644C80.4143 44.644 79.6896 45.3688 79.6896 46.2628C79.6896 47.1568 80.4143 47.8815 81.3083 47.8815Z" fill="#48284F"/>
<path d="M70.5735 50.8208C72.3626 50.6078 74.1517 50.6078 75.9409 50.8634C75.2593 51.6302 74.4925 52.3117 73.4276 52.3117C72.4052 52.3117 71.2551 51.5876 70.5735 50.8208Z" fill="#F5A490"/>
<path d="M65.8026 54.9105C69.8921 54.6975 74.0241 54.9957 78.071 55.6773C76.9208 57.8924 74.2797 59.426 71.7664 59.2982C69.2531 59.1278 66.6972 57.2109 65.8026 54.9105Z" fill="white"/>
<path d="M68.4863 60.9595C70.3181 61.2577 72.1924 61.3003 74.0667 61.0447C73.3426 61.7688 72.448 62.3652 71.4256 62.3226C70.4033 62.3226 69.2105 61.7262 68.4863 60.9595Z" fill="#F5A490"/>
<path d="M64.9505 51.502C64.6097 52.8226 62.4372 53.3764 60.1369 52.78C57.794 52.1836 56.1752 50.6501 56.516 49.3295C56.8568 48.009 59.0293 47.4552 61.3296 48.0516C63.6299 48.648 65.2487 50.1815 64.9505 51.502Z" fill="#F0869C"/>
<path d="M80.7972 51.6727C81.138 52.9932 82.7993 53.6748 84.5458 53.2062C86.2924 52.7802 87.3999 51.3319 87.1017 50.0539C86.7609 48.7334 85.0996 48.0518 83.3531 48.5204C81.6065 48.9464 80.499 50.3947 80.7972 51.6727Z" fill="#F0869C"/>
<path d="M68.0176 102.536C66.7396 102.663 66.7396 104.836 66.9526 107.69C67.2082 110.544 67.6342 113.057 68.8696 112.93C69.1252 112.93 69.3381 112.802 69.5511 112.631C68.827 111.907 68.5288 109.905 68.3584 107.69C68.1454 105.347 68.1454 103.473 68.827 102.791C68.5714 102.621 68.2732 102.536 68.0176 102.536Z" fill="#797E9C"/>
<path d="M64.9504 99.0427L85.9089 81.4922C82.1602 92.014 73.0441 95.1237 69.3381 96.8276L65.7172 100.193L64.9504 99.0427Z" fill="#97A5B3"/>
<path d="M65.9303 100.065C66.6971 101.088 65.121 102.536 62.8206 104.282C60.5203 106.029 58.3904 107.392 57.6236 106.37C57.4958 106.199 57.4106 105.944 57.4106 105.688C58.433 105.731 60.0943 104.623 61.8835 103.26C63.7578 101.854 65.1636 100.576 65.2062 99.6392C65.5043 99.6818 65.7599 99.8522 65.9303 100.065Z" fill="#797E9C"/>
<path d="M69.2103 108.372C69.8067 108.329 70.4031 108.287 70.9568 108.457C71.5106 108.67 72.0218 109.139 72.0644 109.778C72.107 110.502 71.5106 111.098 70.829 111.311C70.1901 111.524 69.4659 111.439 68.7843 111.439C66.1006 111.481 63.5873 112.802 60.9462 113.313C58.6033 113.739 56.1752 113.484 53.9175 112.589C52.9803 112.206 52.0006 111.652 51.4042 110.8C50.8078 109.948 50.5948 108.67 51.1912 107.775C51.7876 106.838 52.9803 106.583 54.0879 106.497C56.6864 106.327 59.3275 106.668 61.8408 107.562C62.9058 107.946 63.8429 108.67 64.9931 108.627C66.3988 108.627 67.8046 108.457 69.2103 108.372Z" fill="#F5A490"/>
<path d="M28.1881 111.865L47.7407 109.991L52.1284 104.623C53.4063 103.047 55.3659 102.11 57.368 102.11C60.3925 102.11 63.8003 102.28 66.1007 103.175C66.5266 103.345 66.9526 103.516 67.2508 103.814C67.5916 104.112 67.8046 104.581 67.7194 105.007C67.6342 105.603 66.9952 105.986 66.3562 106.072C65.7599 106.114 65.1635 105.901 64.5671 105.773C61.5852 104.921 58.3477 104.964 55.3233 105.859C58.5607 106.285 61.7556 107.307 64.7375 108.67C65.5469 109.053 66.4414 109.522 66.7822 110.417C66.91 110.715 66.91 111.013 66.8674 111.311C66.6544 112.291 65.8025 112.461 65.0783 112.291C64.6097 112.206 64.2263 111.95 63.8003 111.78C60.7758 110.331 57.2828 109.863 53.9601 110.502C57.1976 111.226 60.4351 113.1 62.8632 115.358C63.2465 115.741 63.63 116.125 63.8429 116.636C64.0559 117.147 64.0559 117.743 63.7151 118.169C63.4169 118.553 62.8632 118.681 62.352 118.638C61.8408 118.595 61.3722 118.382 60.9462 118.169C58.7737 117.19 56.6012 116.21 54.4287 115.23C56.2604 117.019 58.1773 118.808 60.4777 120.001C60.9888 120.257 61.5852 120.598 61.5852 121.237C61.5852 121.62 61.3296 121.918 61.0314 122.131C60.3499 122.515 59.5831 122.344 58.8589 122.089C56.942 121.45 55.1529 120.385 53.6619 119.064C51.745 119.873 49.7002 120.129 47.7407 119.49L22.0539 128.776C19.4128 129.714 16.4735 129.202 14.301 127.371C11.7451 125.198 10.8505 121.663 12.0432 118.553L17.4533 104.623L29.9346 108.031L28.1881 111.865Z" fill="#FAC9AE"/>
<path d="M17.5384 104.581L30.0198 107.988L28.8696 110.374L17.2828 105.262L17.5384 104.581Z" fill="#48284F"/>
<path d="M18.22 112.802L28.2307 111.822L28.5289 111.183C21.7983 109.309 18.22 112.802 18.22 112.802Z" fill="#F5A490"/>
<path d="M69.3806 102.579L68.3582 75.231C63.076 85.0712 66.8673 93.9317 68.1026 97.8081L68.0174 102.75L69.3806 102.579Z" fill="#97A5B3"/>
<path d="M69.3806 102.537H67.9749C68.2304 102.494 68.5286 102.622 68.7842 102.792C69.7214 103.431 70.4882 105.305 70.7012 107.521C70.9142 109.864 70.403 111.866 69.5084 112.632C69.2954 112.803 69.0824 112.888 68.8268 112.931H70.2326C71.5105 112.803 72.3199 110.417 72.0643 107.521C71.8513 104.667 70.6586 102.451 69.3806 102.537Z" fill="#97A5B3"/>
<path d="M64.9931 99.0426L65.9303 100.065C65.7599 99.852 65.5043 99.7242 65.2061 99.639C64.0985 99.3834 62.1816 100.022 60.3925 101.386C58.5182 102.791 57.368 104.538 57.4106 105.688C57.4106 105.944 57.4958 106.199 57.6236 106.37L56.6864 105.347C55.9196 104.325 57.155 102.11 59.4553 100.363C61.7556 98.6166 64.2263 98.0203 64.9931 99.0426Z" fill="#97A5B3"/>
<path d="M139.711 184.836L106.186 184.921L111.511 175.251L134.471 175.208C138.007 175.208 141.202 177.296 142.565 180.533C143.417 182.535 141.926 184.836 139.711 184.836Z" fill="#435377"/>
<path d="M4.16267 154.463C2.71433 155.656 1.52157 157.104 0.541807 158.68C0.499209 158.339 0.414028 158.041 0.371429 157.701C-0.310146 153.441 -0.0119619 149.053 1.1382 144.921C1.90497 144.41 2.75694 144.026 3.6941 143.771C3.01253 143.558 2.28834 143.473 1.60677 143.515C1.99015 142.45 2.41614 141.385 2.88472 140.363C3.99228 138.02 5.44064 135.89 7.10197 133.973C8.63552 132.227 11.4896 133.718 10.8932 135.975C10.382 138.02 10.1265 140.107 10.2117 142.195C10.4672 147.264 12.9805 152.376 17.283 155.102C21.5854 157.871 27.6344 157.871 31.5961 154.676C31.5961 159.234 30.0199 165.411 28.8698 169.841C26.0157 170.65 23.119 171.417 20.1797 171.843C19.9667 169.841 19.9667 167.839 20.2223 165.837C19.0721 167.754 18.2628 169.884 17.7942 172.056C17.5812 172.056 17.3256 172.099 17.1126 172.099C15.5365 172.141 13.9177 172.014 12.3842 171.673C12.1712 168.265 12.6398 164.857 13.8325 161.662C11.7452 164.346 10.3395 167.541 9.65788 170.863C8.76331 170.523 7.86873 170.054 7.05936 169.543C7.05936 166.561 7.65575 163.536 8.80591 160.81C6.88898 162.685 5.61103 165.198 4.97205 167.839C3.52371 166.348 2.41615 164.559 1.64938 162.599C1.94757 159.745 2.79952 156.976 4.16267 154.463Z" fill="#797E9C"/>
<path d="M25.7174 157.061C27.8474 156.848 29.8921 156.039 31.596 154.718C31.596 159.276 30.0199 165.453 28.8697 169.883C26.0156 170.693 23.1189 171.459 20.1796 171.885C20.0093 170.224 19.9666 168.563 20.137 166.901C20.989 166.901 21.7984 166.859 22.6503 166.774C23.0763 163.366 24.1413 160.086 25.7174 157.061Z" fill="#435377"/>
<path d="M9.65785 170.863C8.76328 170.522 7.8687 170.054 7.05933 169.543C7.05933 167.157 7.44273 164.729 8.1669 162.471C9.27446 163.366 10.4672 164.175 11.7878 164.814C10.808 166.688 10.0838 168.776 9.65785 170.863Z" fill="#435377"/>
<path d="M17.7941 172.098C17.5811 172.098 17.3256 172.141 17.1126 172.141C15.5364 172.183 13.9177 172.055 12.3841 171.715C12.2563 169.585 12.3841 167.412 12.8101 165.282C14.9826 166.219 17.3256 166.773 19.6685 166.858C18.8591 168.477 18.2201 170.266 17.7941 172.098Z" fill="#435377"/>
<path d="M7.74094 162.045C6.42039 163.706 5.48321 165.751 5.01463 167.838C3.56628 166.347 2.45873 164.558 1.69196 162.599C1.90495 160.426 2.41612 158.254 3.31069 156.209C3.69408 156.976 4.12006 157.7 4.58864 158.424C5.44061 159.787 6.50558 160.98 7.74094 162.045Z" fill="#435377"/>
<path d="M0.712165 146.667C0.967755 149.734 1.69192 152.759 2.96988 155.527C2.03271 156.465 1.22334 157.53 0.54176 158.637C0.499162 158.296 0.413981 157.998 0.371382 157.657C-0.224996 154.037 -0.0972055 150.288 0.712165 146.667Z" fill="#435377"/>
<path d="M144.141 90.6931L131.106 85.2831C129.913 84.7719 128.976 83.8348 128.422 82.642C126.122 77.7432 120.968 73.9945 115.643 73.2278C109.679 72.3758 103.332 75.2725 100.009 80.2991C95.4511 87.2852 98.007 97.5941 97.9218 105.943C97.8366 114.25 96.5587 123.196 90.8931 129.287C85.1423 135.507 76.1966 137.466 67.7621 138.233C59.3276 139 50.5949 138.957 42.842 142.322C35.2595 145.645 29.168 152.29 26.5694 160.171C23.9709 168.052 24.8229 176.998 28.8697 184.197C30.1477 186.497 36.1115 185.901 36.1115 185.901L96.6864 185.73C110.062 185.688 135.366 162.045 128.848 140.746C123.609 123.664 122.927 111.098 123.694 103.813C123.949 101.3 126.122 99.3832 128.635 99.3832H133.364C135.792 99.3832 138.05 98.2756 139.583 96.4013L144.141 90.6931Z" fill="#797E9C"/>
<path d="M145.206 89.2448C145.504 89.4152 145.76 89.5856 145.93 89.8412C146.101 90.0968 146.228 90.4376 146.101 90.7358C145.973 91.0765 145.632 91.2895 145.291 91.4173C144.141 91.8859 142.821 91.8859 141.67 91.4599C140.818 91.1191 139.115 90.2246 139.541 89.0318C140.009 87.8391 141.969 88.1798 142.906 88.3502C143.715 88.5632 144.482 88.8188 145.206 89.2448Z" fill="#48284F"/>
<path d="M115.984 82.9834C116.324 82.4722 116.963 82.0036 117.73 81.7906C118.497 81.5776 119.434 81.5776 120.243 81.9184C121.053 82.2592 121.734 82.8982 122.118 83.6223C122.501 84.3465 122.586 85.1133 122.458 85.7097C121.862 84.6447 120.925 83.6223 119.732 83.1538C118.539 82.6426 117.176 82.6852 115.984 82.9834Z" fill="#48284F"/>
<path d="M97.3254 141.258C95.3232 147.137 93.8323 153.228 92.9803 159.405C92.8951 159.916 92.171 159.916 92.0858 159.405C91.2338 154.123 92.1284 148.585 94.6417 143.814C92.0858 146.583 89.7855 149.607 87.8259 152.845C87.5703 153.271 86.9314 153.015 87.0165 152.547C87.6981 149.437 89.2743 146.498 91.6172 144.325C93.0229 143.005 94.9399 141.769 96.6864 140.704C97.0272 140.534 97.4532 140.875 97.3254 141.258Z" fill="#435377"/>
<path d="M113.811 101.087C113.768 100.533 114.535 100.405 114.663 100.917L115.77 104.58C116.239 106.199 116.75 107.818 116.921 109.479C117.048 110.672 116.963 111.95 116.58 113.1C116.452 113.526 115.813 113.526 115.728 113.057C114.833 109.181 114.279 105.091 113.811 101.087Z" fill="#435377"/>
<path d="M111.596 103.089C113.129 107.86 114.62 112.674 115.004 117.658C115.387 122.642 114.322 129.159 111.383 133.206C110.02 135.08 108.018 136.742 105.675 136.742C103.247 136.742 101.202 134.91 99.583 133.078C97.4531 130.693 95.451 128.137 93.7045 125.453C97.0271 119.745 97.8791 112.631 97.9643 105.9C98.0069 99.4255 96.516 91.7578 97.9643 85.4106L106.654 84.8994C108.486 90.8206 109.721 97.1252 111.596 103.089Z" fill="#5B5F79"/>
<path d="M75.0038 175.08C74.8334 170.394 75.4724 165.581 76.7503 161.023C76.8781 160.512 77.6023 160.639 77.6023 161.15C77.5597 165.027 78.0283 168.903 78.9229 172.695C79.2636 174.143 81.3936 174.015 81.5214 172.524C81.99 167.711 82.8419 162.982 84.0347 158.296C84.1625 157.785 84.8866 157.87 84.8866 158.424C84.8866 163.706 85.5256 168.989 86.548 174.186C86.8036 175.506 88.6353 175.634 89.1039 174.399C90.68 170.096 93.1081 163.792 94.8547 161.023C97.6236 156.635 110.446 150.799 113.981 152.247C117.517 153.696 118.88 159.745 117.219 168.733C119.349 165.879 121.138 162.854 122.118 159.489C123.864 153.653 123.523 146.88 120.584 141.555C120.371 141.172 120.797 140.746 121.18 140.959C122.245 141.513 123.268 142.152 124.12 142.918C124.759 143.472 125.696 142.961 125.568 142.152C124.546 134.569 122.203 127.029 118.412 120.384C118.156 119.958 118.71 119.532 119.051 119.83C119.477 120.171 119.945 120.512 120.371 120.895C121.01 121.406 121.905 120.852 121.819 120.086C120.882 114.25 120.84 108.371 121.095 102.45C121.223 99.8514 123.353 97.8066 125.952 97.8066H131.617C134.812 97.8066 137.879 96.8695 140.563 95.1655L139.498 96.4861C138.007 98.3604 135.707 99.468 133.278 99.468H128.55C125.994 99.468 123.864 101.385 123.609 103.898C122.842 111.183 123.523 123.749 128.763 140.831C135.281 162.173 109.977 185.815 96.6012 185.815L36.0262 185.985C36.0262 185.985 33.1295 186.284 30.9144 185.687C44.4181 178.232 59.924 174.1 75.0038 175.08Z" fill="#435377"/>
<path d="M101.032 80.2994C103.971 79.277 106.953 81.7903 106.569 84.9C105.973 89.9692 107.336 95.2514 108.912 100.193C110.829 106.199 113.172 112.291 112.917 118.553C112.704 123.494 110.787 128.308 107.592 132.099C105.973 134.016 103.034 134.186 101.202 132.482C98.0923 129.543 95.1104 126.348 93.5343 122.557C91.66 117.999 91.7025 112.887 92.0433 107.946C92.5545 101.13 93.7473 94.3995 95.7068 87.8819C96.4736 85.3686 97.4108 82.8127 99.4129 81.1514C99.9241 80.768 100.435 80.5124 101.032 80.2994Z" fill="#797E9C"/>
<path d="M94.8974 121.321C95.4512 122.301 96.8995 122.046 97.1125 120.938C97.4107 119.49 97.7941 118.084 98.2627 116.678C98.2201 119.192 98.2201 121.747 98.8591 124.176C99.2424 125.581 99.8388 126.902 100.733 127.967C101.5 128.861 102.948 128.308 102.906 127.115C102.736 123.963 102.523 120.81 102.352 117.701C103.204 120.597 104.184 123.537 105.121 126.476C105.547 127.839 107.464 127.839 107.933 126.476C108.359 125.113 108.529 123.622 108.444 122.173C108.316 119.49 107.72 116.721 106.868 114.165C108.018 115.698 108.955 117.488 109.594 119.362C109.764 119.873 110.488 119.745 110.488 119.234C110.616 113.995 109.04 108.798 107.677 103.686C106.314 98.5313 105.249 93.0361 106.399 87.9243C106.484 92.0564 107.592 96.2736 108.87 100.235C110.787 106.242 113.13 112.333 112.874 118.595C112.661 123.537 110.744 128.35 107.549 132.141C105.93 134.058 102.991 134.229 101.159 132.525C98.0497 129.586 95.0678 126.391 93.4917 122.599C92.5119 120.171 92.0433 117.573 91.8729 114.932C92.7249 117.104 93.7046 119.277 94.8974 121.321Z" fill="#435377"/>
<path d="M37.6876 169.117L35.7706 185.858C34.4927 185.943 29.9773 186.113 28.8697 184.154C28.1881 182.961 27.6344 181.726 27.1232 180.49C28.9975 177.04 33.4703 170.863 37.6876 169.117Z" fill="#435377"/>
<path d="M93.023 168.265L90.5949 179.34C89.7003 183.43 92.81 187.349 97.0272 187.306L130.041 187.221C132.001 187.221 133.236 185.133 132.299 183.43L131.362 181.64C130.382 179.766 128.422 178.616 126.335 178.616L107.506 178.659C116.623 167.626 120.116 149.521 109.807 147.178C99.4127 144.878 95.4085 157.402 93.023 168.265Z" fill="#797E9C"/>
<path d="M129.615 182.833C129.232 182.066 128.678 181.47 128.124 181.001C128.806 181.257 129.53 181.811 130.041 182.578C130.595 183.344 130.893 184.367 130.893 185.389C130.893 186.028 130.723 186.667 130.467 187.221H129.785C130.041 186.624 130.169 185.985 130.211 185.346C130.254 184.452 129.998 183.6 129.615 182.833Z" fill="#435377"/>
<path d="M126.889 185.815C127.059 185.048 126.974 184.239 126.718 183.515C126.505 182.791 126.079 182.152 125.653 181.683C126.207 182.024 126.804 182.578 127.144 183.344C127.485 184.111 127.656 185.048 127.485 185.943C127.4 186.412 127.23 186.838 127.017 187.221H126.378C126.591 186.752 126.804 186.326 126.889 185.815Z" fill="#435377"/>
<path d="M45.1849 150.629C52.7674 147.647 62.1391 149.862 67.5065 155.954C72.9165 162.045 73.9815 171.63 70.105 178.786L78.0283 178.744C79.9453 178.744 81.6066 179.979 82.1604 181.811L83.0549 184.793C83.4383 186.028 82.5011 187.306 81.1806 187.306L36.1115 187.434C32.1072 187.434 29.2957 183.472 30.7015 179.723C33.087 173.461 37.7302 169.116 37.7302 169.116C35.4725 160.725 37.9006 153.781 45.1849 150.629Z" fill="#797E9C"/>
<path d="M51.3191 149.309C57.3255 149.053 63.5022 151.439 67.5065 155.954C72.9165 162.046 73.9814 171.63 70.105 178.787H64.7802C70.2754 169.032 69.5512 153.441 51.3191 149.309Z" fill="#435377"/>
<path d="M80.0731 185.73C79.9027 184.708 79.562 183.685 79.0934 182.791C78.6674 181.896 78.1136 181.129 77.5598 180.448C78.284 180.916 79.0082 181.598 79.6046 182.492C80.2009 183.387 80.6695 184.452 80.8399 185.602C80.9251 186.199 80.9677 186.752 80.9251 187.349H80.1583C80.2009 186.795 80.1583 186.284 80.0731 185.73Z" fill="#435377"/>
<path d="M76.1114 186.369C75.9837 184.58 75.4299 182.876 74.8335 181.598C75.3021 182.109 75.7707 182.79 76.154 183.642C76.4948 184.452 76.7504 185.389 76.8356 186.326C76.8782 186.667 76.8782 187.008 76.8356 187.391H76.1967C76.1541 187.008 76.154 186.667 76.1114 186.369Z" fill="#435377"/>
</svg>
